<svg width="14" height="14" viewBox="0 0 14 14" fill="none" xmlns="http://www.w3.org/2000/svg">
<g clip-path="url(#clip0_111_1882)">
<path d="M7.87498 2.43833C7.71398 2.43833 7.58331 2.30767 7.58331 2.14667V1.16667C7.58331 0.84525 7.3214 0.583333 6.99998 0.583333C6.67856 0.583333 6.41665 0.84525 6.41665 1.16667V2.14667C6.41665 2.30767 6.28598 2.43833 6.12498 2.43833C5.96398 2.43833 5.83331 2.30825 5.83331 2.14667V1.16667C5.83331 0.52325 6.35656 0 6.99998 0C7.6434 0 8.16665 0.52325 8.16665 1.16667V2.14667C8.16665 2.30825 8.03598 2.43833 7.87498 2.43833Z" fill="black"/>
<path d="M6.99998 14.0001C5.87415 14.0001 4.95831 13.0842 4.95831 11.9584C4.95831 11.7974 5.08898 11.6667 5.24998 11.6667C5.41098 11.6667 5.54165 11.7974 5.54165 11.9584C5.54165 12.7622 6.19615 13.4167 6.99998 13.4167C7.80381 13.4167 8.45831 12.7622 8.45831 11.9584C8.45831 11.7974 8.58898 11.6667 8.74998 11.6667C8.91098 11.6667 9.04165 11.7974 9.04165 11.9584C9.04165 13.0842 8.12581 14.0001 6.99998 14.0001Z" fill="black"/>
<path d="M11.9584 12.25H2.04169C1.55927 12.25 1.16669 11.8574 1.16669 11.375C1.16669 11.1189 1.2781 10.8768 1.47294 10.71C2.39227 9.933 2.91669 8.8025 2.91669 7.6055V5.83333C2.91669 3.58167 4.74835 1.75 7.00002 1.75C9.25169 1.75 11.0834 3.58167 11.0834 5.83333V7.6055C11.0834 8.80308 11.6078 9.933 12.5224 10.7059C12.7219 10.8768 12.8334 11.1189 12.8334 11.375C12.8334 11.8574 12.4414 12.25 11.9584 12.25ZM7.00002 2.33333C5.06977 2.33333 3.50002 3.90308 3.50002 5.83333V7.6055C3.50002 8.97517 2.90035 10.2673 1.85444 11.1516C1.78735 11.2087 1.75002 11.2898 1.75002 11.375C1.75002 11.536 1.88069 11.6667 2.04169 11.6667H11.9584C12.1194 11.6667 12.25 11.536 12.25 11.375C12.25 11.2898 12.2127 11.2087 12.1479 11.1533C11.1003 10.2673 10.5 8.97458 10.5 7.6055V5.83333C10.5 3.90308 8.93027 2.33333 7.00002 2.33333Z" fill="black"/>
</g>
<defs>
<clipPath id="clip0_111_1882">
<rect width="14" height="14" fill="white"/>
</clipPath>
</defs>
</svg>
