<svg width="21" height="19" viewBox="0 0 21 19" fill="none" xmlns="http://www.w3.org/2000/svg">
<path d="M16.75 11.5356V11.0356H17.25H18C18.4794 11.0356 18.9303 10.8629 19.2555 10.5686C19.5791 10.2758 19.75 9.89013 19.75 9.4999V2.71418C19.75 2.32395 19.5791 1.93824 19.2555 1.64548C18.9303 1.35122 18.4794 1.17847 18 1.17847H7.5C7.02062 1.17847 6.5697 1.35122 6.24447 1.64548C5.92089 1.93824 5.75 2.32395 5.75 2.71418V9.4999C5.75 9.89013 5.92089 10.2758 6.24447 10.5686C6.5697 10.8629 7.02062 11.0356 7.5 11.0356L7.50332 11.0356L12.3033 11.0675L12.4552 11.0685L12.5809 11.1539L16.3308 13.7004C16.3683 13.7259 16.4176 13.7443 16.4733 13.7488C16.5291 13.7534 16.5835 13.7435 16.6293 13.7227C16.675 13.702 16.7064 13.6734 16.7251 13.646C16.7434 13.6193 16.75 13.5935 16.75 13.5713V11.5356Z" stroke="black"/>
<path d="M16.5 4.07129H9V5.42843H16.5V4.07129Z" fill="black"/>
<path d="M16.5 6.78564H12.75V8.14279H16.5V6.78564Z" fill="black"/>
</svg>
