<svg width="20" height="20" viewBox="0 0 20 20" fill="none" xmlns="http://www.w3.org/2000/svg">
<g clip-path="url(#clip0_8_445)">
<mask id="path-1-outside-1_8_445" maskUnits="userSpaceOnUse" x="-0.0960541" y="-1" width="20" height="22" fill="black">
<rect fill="white" x="-0.0960541" y="-1" width="20" height="22"/>
<path d="M18.2962 14.054C17.7734 13.3551 17.0547 12.8552 16.2177 12.6082L12.6494 11.4956C12.5849 11.4755 12.5185 11.4666 12.4529 11.4681C12.3216 11.3292 12.2328 11.1195 12.2328 10.9311V10.1258C12.3875 10.0229 12.5381 9.9085 12.6843 9.78264C13.3866 9.17792 13.8273 8.30327 13.9186 7.34995C14.4314 7.33542 14.8441 6.91374 14.8441 6.39749V5.66686C14.8441 5.38292 14.7184 5.1187 14.5067 4.93979V3.9946C14.5067 3.83249 14.3754 3.70112 14.2132 3.70112C14.0512 3.70112 13.9198 3.83249 13.9198 3.9946L13.9197 4.62495C13.8952 4.61663 13.8705 4.60889 13.8459 4.60073C13.8086 4.58835 13.7713 4.57608 13.734 4.56405C13.6853 4.54839 13.6366 4.53311 13.5878 4.51807C13.5511 4.50674 13.5145 4.49534 13.4777 4.48436C13.4274 4.46932 13.377 4.45483 13.3266 4.44042C13.2914 4.43038 13.2563 4.4201 13.2211 4.41038C13.1668 4.39538 13.1125 4.38108 13.0581 4.36682C13.0268 4.35862 12.9955 4.35006 12.9641 4.3421C12.8948 4.32448 12.8255 4.3078 12.7561 4.29143C12.7397 4.28757 12.7233 4.28331 12.7068 4.27952C12.6212 4.25967 12.5354 4.24085 12.4496 4.22288C12.4236 4.21745 12.3975 4.21256 12.3714 4.20729C12.3114 4.19514 12.2513 4.18303 12.1912 4.17178C12.1579 4.16557 12.1246 4.15991 12.0913 4.15397C12.0383 4.14452 11.9853 4.1351 11.9322 4.12635C11.8964 4.12046 11.8605 4.11503 11.8247 4.10944C11.7739 4.10155 11.7232 4.09378 11.6725 4.08655C11.6357 4.08132 11.5989 4.07639 11.562 4.07147C11.512 4.06483 11.4621 4.05839 11.4121 4.05237C11.3749 4.04788 11.3377 4.04362 11.3005 4.03948C11.2506 4.03393 11.2007 4.02878 11.1507 4.02389C11.1138 4.02026 11.0768 4.01671 11.0398 4.01342C10.9891 4.00893 10.9384 4.00495 10.8877 4.00108C10.8516 3.99835 10.8156 3.99553 10.7795 3.99315C10.7268 3.98964 10.674 3.98678 10.6213 3.98401C10.5873 3.98221 10.5534 3.98018 10.5195 3.97866C10.4613 3.97608 10.4032 3.97432 10.3451 3.9726C10.3166 3.97174 10.2881 3.97053 10.2596 3.96991C10.173 3.96799 10.0864 3.9669 9.99988 3.9669C9.91336 3.9669 9.8268 3.96799 9.74027 3.96991C9.71168 3.97053 9.68309 3.97178 9.65449 3.9726C9.59649 3.97432 9.53844 3.97608 9.48043 3.97866C9.44637 3.98018 9.41227 3.98221 9.3782 3.98401C9.32559 3.98678 9.27301 3.98964 9.22039 3.99315C9.18426 3.99557 9.14813 3.99839 9.11199 4.00112C9.06137 4.00495 9.0107 4.00893 8.96008 4.01342C8.92301 4.01671 8.88594 4.0203 8.84887 4.02393C8.79906 4.02882 8.7493 4.03397 8.69949 4.03948C8.66215 4.04362 8.6248 4.04792 8.5875 4.05241C8.53773 4.05839 8.48797 4.06479 8.4382 4.07139C8.40117 4.07631 8.36414 4.08128 8.32715 4.08655C8.2766 4.09378 8.22606 4.10151 8.17555 4.10936C8.13953 4.11495 8.10352 4.12042 8.0675 4.12635C8.01477 4.13507 7.96203 4.1444 7.90934 4.15381C7.8757 4.15983 7.84207 4.16553 7.80848 4.17182C7.74887 4.18296 7.68934 4.19495 7.62981 4.20702C7.60328 4.21241 7.57672 4.21737 7.5502 4.22292C7.46449 4.24085 7.37887 4.25967 7.29328 4.27948C7.27586 4.2835 7.25844 4.28799 7.24102 4.29214C7.17266 4.30827 7.10434 4.32471 7.03606 4.34206C7.00402 4.35018 6.97203 4.35893 6.94 4.36733C6.88641 4.38139 6.83281 4.39546 6.77926 4.41026C6.7434 4.42018 6.70758 4.43061 6.67176 4.44089C6.62211 4.4551 6.5725 4.46932 6.52289 4.48417C6.48543 4.49538 6.44801 4.50698 6.41059 4.51854C6.36266 4.53335 6.31477 4.54835 6.26695 4.56374C6.22879 4.57604 6.19066 4.58858 6.15258 4.60124C6.12844 4.60924 6.10426 4.61682 6.08016 4.62499V2.62139C6.08016 1.92366 6.55418 1.3235 7.23293 1.16194L9.37547 0.65194C9.73344 0.566745 10.1123 0.565143 10.4709 0.647448L12.7548 1.17124C13.4407 1.32854 13.9197 1.92983 13.9197 2.63342C13.9197 2.79553 14.0511 2.9269 14.2132 2.9269C14.3753 2.9269 14.5067 2.79553 14.5067 2.63342C14.5067 1.65444 13.8402 0.817917 12.8861 0.599049L10.6021 0.0752993C10.1559 -0.0269663 9.68473 -0.0250523 9.23949 0.0809633L7.09699 0.590963C6.15266 0.815729 5.49313 1.65069 5.49313 2.62143L5.4932 4.93979C5.28152 5.1187 5.15578 5.38292 5.15578 5.6669V6.39753C5.15578 6.91378 5.56848 7.33546 6.08129 7.34999C6.17246 8.30331 6.61324 9.17796 7.31559 9.78268C7.46176 9.90854 7.61231 10.0229 7.76707 10.1258V10.9312C7.76707 11.1196 7.67828 11.3293 7.54703 11.4682C7.48137 11.4667 7.415 11.4755 7.35047 11.4957L3.78215 12.6083C2.94516 12.8553 2.22652 13.3551 1.70371 14.054C1.18051 14.7535 0.903946 15.585 0.903946 16.4585V16.6774C0.903946 16.8395 1.03531 16.9708 1.19742 16.9708C1.35953 16.9708 1.4909 16.8395 1.4909 16.6774V16.4585C1.4909 15.7127 1.72703 15.0028 2.17375 14.4057C2.62051 13.8084 3.23477 13.3814 3.9502 13.1708C3.95168 13.1703 3.95316 13.1699 3.95465 13.1694L5.855 12.5769L7.44258 14.3887C7.67102 14.6494 7.99438 14.7912 8.3275 14.7912C8.45492 14.7912 8.58383 14.7705 8.7093 14.7277L9.06809 14.6055L9.57359 15.6729C9.41832 15.7321 9.27481 15.8235 9.15109 15.9448C8.91113 16.1803 8.77352 16.507 8.77352 16.8412V18.6334C8.77352 18.8691 8.96527 19.0609 9.20098 19.0609H9.93633C10.172 19.0609 10.3638 18.8691 10.3638 18.6334V17.991C10.8644 17.8345 11.2263 17.364 11.2263 16.8202C11.2263 16.2982 10.8922 15.8466 10.4268 15.6715L10.9317 14.6054L11.2905 14.7276C11.416 14.7704 11.5449 14.7911 11.6723 14.7911C12.0054 14.7911 12.3288 14.6493 12.5572 14.3886L14.1448 12.5768L16.0452 13.1694C16.0466 13.1698 16.0481 13.1703 16.0496 13.1707C16.765 13.3813 17.3793 13.8083 17.8261 14.4056C18.2728 15.0028 18.5089 15.7126 18.5089 16.4585V18.9702C18.5089 19.2144 18.3103 19.413 18.0661 19.413H16.5937V16.6027C16.5937 16.4406 16.4623 16.3092 16.3002 16.3092C16.1381 16.3092 16.0068 16.4406 16.0068 16.6027V19.413H3.99305V16.6027C3.99305 16.4406 3.86168 16.3092 3.69957 16.3092C3.53746 16.3092 3.40609 16.4406 3.40609 16.6027V19.413H1.93371C1.68957 19.413 1.4909 19.2144 1.4909 18.9702V18.0428C1.4909 17.8807 1.35953 17.7494 1.19742 17.7494C1.03531 17.7494 0.903946 17.8807 0.903946 18.0428V18.9702C0.903946 19.538 1.3659 20 1.93375 20H18.0662C18.6341 20 19.096 19.538 19.096 18.9702V16.4584C19.0959 15.5849 18.8194 14.7535 18.2962 14.054ZM6.3898 5.14065C6.41391 5.13276 6.43809 5.12542 6.46223 5.11768C6.52035 5.09905 6.57848 5.08049 6.63668 5.0628C6.66758 5.05339 6.69859 5.04456 6.72953 5.03542C6.78117 5.02014 6.83281 5.00487 6.88453 4.99034C6.91824 4.98085 6.95199 4.9719 6.98574 4.96276C7.03477 4.94944 7.08375 4.93612 7.13281 4.92346C7.16816 4.91432 7.20359 4.90565 7.23898 4.89686C7.28656 4.88503 7.3341 4.87327 7.38172 4.86206C7.41809 4.8535 7.45449 4.8453 7.4909 4.8371C7.53758 4.82655 7.5843 4.81616 7.63102 4.8062C7.66805 4.79831 7.70512 4.79073 7.74219 4.78323C7.78848 4.77385 7.83473 4.76467 7.88102 4.75589C7.91836 4.74878 7.95574 4.7419 7.99309 4.73518C8.03922 4.72686 8.08535 4.71885 8.13148 4.71112C8.16898 4.70483 8.20645 4.6987 8.24395 4.69276C8.29016 4.68549 8.33637 4.67858 8.38258 4.67186C8.41996 4.66643 8.45738 4.66108 8.4948 4.656C8.54137 4.64971 8.58793 4.64389 8.63449 4.63819C8.67156 4.63366 8.70859 4.62905 8.74566 4.62491C8.79289 4.6196 8.84012 4.61487 8.88734 4.61014C8.92371 4.60651 8.96012 4.60272 8.99652 4.59944C9.04496 4.59507 9.0934 4.59139 9.14184 4.58764C9.17703 4.58495 9.21227 4.58198 9.24746 4.5796C9.29816 4.57616 9.34883 4.5735 9.39953 4.57077C9.43246 4.56901 9.46539 4.56686 9.49828 4.56538C9.5543 4.56284 9.61035 4.5612 9.66637 4.55952C9.69398 4.5587 9.7216 4.55745 9.74922 4.55682C9.83277 4.55495 9.91637 4.55389 9.99988 4.55389C10.0001 4.55389 10.0003 4.55389 10.0005 4.55389C10.0838 4.55389 10.1672 4.55491 10.2506 4.55678C10.2784 4.55741 10.3063 4.55866 10.334 4.55952C10.3898 4.5612 10.4455 4.56284 10.5013 4.56534C10.5347 4.56686 10.5682 4.56901 10.6016 4.57081C10.6518 4.5735 10.702 4.57616 10.7521 4.57952C10.7878 4.58194 10.8235 4.58491 10.8592 4.58768C10.9071 4.59135 10.955 4.59503 11.0029 4.59932C11.0398 4.60264 11.0767 4.60647 11.1137 4.61018C11.1604 4.61483 11.207 4.61952 11.2537 4.62479C11.2913 4.62901 11.3288 4.63366 11.3664 4.63827C11.4124 4.64389 11.4584 4.64964 11.5044 4.65585C11.5423 4.66096 11.5804 4.66643 11.6183 4.67194C11.6639 4.67854 11.7095 4.68538 11.7551 4.69256C11.7932 4.69854 11.8313 4.70479 11.8693 4.71116C11.9148 4.71878 11.9603 4.72671 12.0058 4.73491C12.0439 4.74174 12.0819 4.74878 12.1199 4.756C12.1654 4.76467 12.211 4.7737 12.2565 4.78292C12.2943 4.79057 12.332 4.79831 12.3698 4.80631C12.4157 4.81612 12.4616 4.82631 12.5075 4.83667C12.5448 4.84507 12.582 4.85342 12.6191 4.86217C12.6657 4.87315 12.7122 4.88464 12.7587 4.8962C12.7952 4.90526 12.8316 4.91421 12.868 4.92362C12.9157 4.93596 12.9634 4.94889 13.011 4.96182C13.0461 4.97135 13.0813 4.98069 13.1164 4.99053C13.1663 5.00456 13.2161 5.01932 13.2659 5.03405C13.2987 5.0437 13.3314 5.05307 13.3641 5.06299C13.4192 5.07975 13.4743 5.09737 13.5293 5.11495C13.5566 5.1237 13.5839 5.13202 13.6112 5.14092C13.6876 5.16592 13.7638 5.19182 13.84 5.21839C13.8459 5.22042 13.8518 5.22233 13.8577 5.22436C13.8584 5.22464 13.8591 5.22491 13.8599 5.22518L13.7845 5.50549C13.7566 5.60893 13.6897 5.69448 13.596 5.74628C13.5034 5.79741 13.3972 5.80854 13.2966 5.77772C13.1599 5.73573 13.0231 5.69635 12.8861 5.6596C10.832 5.10839 8.75422 5.14772 6.70332 5.77772C6.60285 5.80854 6.49652 5.79741 6.40406 5.74628C6.38063 5.73331 6.35887 5.71827 6.33898 5.70135C6.2793 5.65061 6.23641 5.58307 6.21551 5.50549L6.17867 5.3685L6.14016 5.22518C6.2232 5.19612 6.30645 5.16792 6.3898 5.14065ZM7.69859 9.3378C7.05234 8.78139 6.67066 7.94768 6.65141 7.05053C6.64801 6.89096 6.51762 6.76335 6.35797 6.76335H6.10859C5.90684 6.76335 5.74277 6.59924 5.74277 6.39753V5.88839C5.74367 5.88995 5.74473 5.89147 5.74563 5.89303C5.75449 5.90846 5.76379 5.92358 5.77348 5.93846C5.77676 5.94346 5.78008 5.94842 5.78344 5.95339C5.79199 5.96604 5.80086 5.97846 5.81 5.99065C5.81301 5.99467 5.8159 5.99878 5.81898 6.00276C5.83098 6.01823 5.84336 6.03339 5.85629 6.04811C5.85926 6.05151 5.86238 6.05475 5.86539 6.05811C5.87582 6.06971 5.88652 6.08104 5.89758 6.09214C5.90191 6.09651 5.90629 6.10085 5.91074 6.10514C5.92254 6.11659 5.93461 6.12772 5.94699 6.13854C5.94973 6.14092 5.95234 6.14346 5.95512 6.14581C5.9702 6.1587 5.98574 6.17108 6.00164 6.18311C6.0059 6.18631 6.01023 6.18936 6.01453 6.19253C6.02711 6.20171 6.03988 6.21061 6.05297 6.21921C6.0577 6.22233 6.06242 6.22549 6.06723 6.22854C6.08445 6.23948 6.10195 6.25014 6.11996 6.2601C6.12078 6.26053 6.1216 6.26092 6.12242 6.26135C6.13828 6.27006 6.1543 6.27823 6.17047 6.286C6.17609 6.2887 6.18176 6.2912 6.18742 6.29378C6.19914 6.29917 6.21094 6.30432 6.22281 6.30921C6.22906 6.31178 6.23531 6.31428 6.2416 6.31674C6.25371 6.32143 6.26594 6.32585 6.27816 6.33003C6.28375 6.33194 6.2893 6.33397 6.29492 6.33577C6.3125 6.34143 6.33016 6.34671 6.34793 6.35131C6.35008 6.35186 6.35227 6.35229 6.35441 6.35284C6.37023 6.35686 6.38613 6.36042 6.40211 6.36362C6.4082 6.36483 6.4143 6.36585 6.42043 6.36694C6.43277 6.36917 6.44512 6.37116 6.4575 6.37288C6.4641 6.37382 6.47074 6.37467 6.47734 6.37546C6.49012 6.37698 6.50293 6.37815 6.51574 6.37913C6.52148 6.37956 6.52723 6.38014 6.53297 6.3805C6.55113 6.38155 6.5693 6.38221 6.58754 6.38221C6.58809 6.38221 6.58863 6.38225 6.58918 6.38225C6.59109 6.38225 6.59297 6.38206 6.59488 6.38202C6.61398 6.3819 6.63309 6.38112 6.65223 6.37987C6.65777 6.37952 6.66328 6.37913 6.66883 6.37866C6.68992 6.3769 6.71105 6.37467 6.73211 6.37151C6.73355 6.37128 6.735 6.37096 6.73645 6.37077C6.75617 6.36772 6.77586 6.36389 6.79551 6.3596C6.80137 6.35831 6.80723 6.35698 6.81309 6.35561C6.83301 6.35088 6.85289 6.34569 6.8727 6.33967C6.87367 6.3394 6.87465 6.33921 6.87563 6.33889C7.39391 6.17967 7.91402 6.06026 8.43508 5.98065C9.6725 5.79163 10.9151 5.82706 12.1505 6.08698C12.4756 6.15538 12.8002 6.23932 13.1242 6.33882C13.3782 6.41698 13.6467 6.38893 13.8798 6.26003C13.8978 6.2501 13.9152 6.23956 13.9323 6.22866C13.9373 6.22546 13.9423 6.22214 13.9473 6.21885C13.9601 6.21038 13.9727 6.20163 13.985 6.1926C13.9895 6.18936 13.9939 6.18624 13.9983 6.18296C14.0141 6.17096 14.0297 6.15858 14.0447 6.14573C14.0475 6.14338 14.05 6.14092 14.0527 6.13854C14.0652 6.12764 14.0773 6.11643 14.0892 6.10495C14.0936 6.10073 14.0979 6.09647 14.1021 6.09217C14.1133 6.08092 14.1242 6.0694 14.1348 6.05764C14.1376 6.05448 14.1406 6.05139 14.1434 6.04819C14.1564 6.03339 14.1689 6.01819 14.1809 6.0026C14.1839 5.9987 14.1867 5.99471 14.1896 5.99077C14.1988 5.9785 14.2077 5.966 14.2163 5.95331C14.2197 5.94835 14.223 5.94342 14.2263 5.93839C14.2359 5.92362 14.2451 5.90866 14.2539 5.89339C14.2549 5.89167 14.256 5.89007 14.257 5.88835V6.39749C14.257 6.59924 14.0929 6.76331 13.8912 6.76331H13.6418C13.4822 6.76331 13.3518 6.89092 13.3484 7.05049C13.3291 7.94764 12.9474 8.78135 12.3012 9.33776C12.137 9.47917 11.9663 9.60358 11.7898 9.71128C11.7888 9.71186 11.7877 9.71225 11.7868 9.71284C11.7595 9.72936 11.7321 9.74522 11.7046 9.76096C11.696 9.76589 11.6874 9.771 11.6788 9.77585C11.6498 9.79214 11.6206 9.80788 11.5913 9.82327C11.5834 9.82741 11.5754 9.83151 11.5675 9.83561C11.4338 9.90456 11.2969 9.96448 11.157 10.0151C11.1535 10.0163 11.15 10.0176 11.1465 10.0188C11.0412 10.0565 10.9341 10.089 10.8255 10.1162C10.8224 10.117 10.8193 10.1179 10.8162 10.1186C10.7852 10.1263 10.7539 10.1334 10.7226 10.1402C10.7095 10.1431 10.6964 10.1458 10.6833 10.1485C10.6545 10.1545 10.6257 10.1602 10.5968 10.1654C10.5788 10.1686 10.5607 10.1714 10.5426 10.1744C10.5029 10.1809 10.4629 10.1867 10.4228 10.1919C10.3955 10.1954 10.3682 10.1989 10.3407 10.2017C10.3209 10.2038 10.3011 10.2055 10.2812 10.2073C10.2517 10.2099 10.2221 10.2122 10.1923 10.2141C10.1752 10.2151 10.158 10.2163 10.1407 10.2172C10.0965 10.2194 10.052 10.221 10.0073 10.2216C10.0048 10.2216 10.0023 10.2218 9.99977 10.2218C9.99727 10.2217 9.99477 10.2216 9.99227 10.2216C9.94754 10.221 9.90309 10.2194 9.85879 10.2172C9.84152 10.2163 9.82438 10.2151 9.80719 10.2141C9.77746 10.2122 9.74785 10.2099 9.71832 10.2073C9.69848 10.2055 9.67863 10.2038 9.65887 10.2017C9.63137 10.1989 9.60406 10.1954 9.57676 10.1919C9.53664 10.1867 9.49668 10.1809 9.45691 10.1744C9.43887 10.1714 9.42074 10.1686 9.40273 10.1654C9.37379 10.1602 9.345 10.1544 9.31625 10.1485C9.30313 10.1458 9.29 10.1431 9.27695 10.1402C9.24563 10.1334 9.21438 10.1263 9.18328 10.1186C9.1802 10.1178 9.17715 10.117 9.17406 10.1162C9.06543 10.089 8.95836 10.0565 8.85301 10.0188C8.84949 10.0176 8.84602 10.0163 8.84254 10.0151C8.70262 9.96448 8.56574 9.90456 8.43203 9.83561C8.4241 9.83151 8.41617 9.82745 8.40828 9.82327C8.37898 9.80788 8.3498 9.79214 8.32078 9.77585C8.31215 9.771 8.30359 9.76592 8.29496 9.76096C8.26746 9.74522 8.24 9.72936 8.21277 9.71284C8.2118 9.71225 8.21074 9.71186 8.20977 9.71128C8.03344 9.60362 7.86281 9.47925 7.69859 9.3378ZM8.52004 14.1719C8.29227 14.2495 8.04262 14.1827 7.88406 14.0018L6.46801 12.3857L7.52523 12.056C7.52652 12.0557 7.52785 12.0561 7.52918 12.0559C7.5325 12.0554 7.53582 12.0548 7.53902 12.0555C7.53953 12.0557 7.54004 12.056 7.54055 12.0562C7.54344 12.057 7.54598 12.0587 7.54848 12.0605C7.54957 12.0612 7.5509 12.0614 7.55188 12.0623L7.55184 12.0623L9.44539 13.8567L8.52004 14.1719ZM10.6393 16.8201C10.6393 17.1527 10.3798 17.4326 10.0484 17.4573C9.89527 17.4688 9.7768 17.5964 9.7768 17.75V18.4738H9.36051V16.8411C9.36051 16.6634 9.43402 16.4894 9.56223 16.3636C9.68563 16.2426 9.84629 16.1773 10.0124 16.1808C10.3581 16.1874 10.6393 16.4742 10.6393 16.8201ZM9.62734 14.4148L9.99992 14.2879L10.3725 14.4148L9.99992 15.2015L9.62734 14.4148ZM9.99992 13.5735L8.0752 11.7494C8.24863 11.5147 8.35406 11.2169 8.35406 10.9311V10.4507C8.60992 10.5665 8.87547 10.6542 9.15004 10.7139C9.15094 10.7141 9.15188 10.7143 9.15277 10.7145C9.21094 10.7271 9.26953 10.7384 9.32856 10.7485C9.34898 10.752 9.36949 10.7553 9.39004 10.7585C9.41906 10.763 9.44809 10.7675 9.47731 10.7714C9.51688 10.7767 9.5566 10.7813 9.59645 10.7855C9.61426 10.7874 9.63207 10.7892 9.64996 10.7908C9.69895 10.7954 9.74813 10.7991 9.79758 10.8019C9.80863 10.8026 9.81973 10.803 9.83078 10.8035C9.88586 10.8063 9.94109 10.8083 9.99672 10.8089H9.99676C9.99785 10.8089 9.99895 10.8089 10 10.8089C10.0011 10.8089 10.0021 10.8089 10.0032 10.8089H10.0033C10.0589 10.8083 10.1141 10.8063 10.1692 10.8035C10.1803 10.803 10.1914 10.8026 10.2024 10.8019C10.2518 10.7991 10.3011 10.7954 10.35 10.7908C10.3679 10.7892 10.3857 10.7874 10.4036 10.7855C10.4434 10.7814 10.4832 10.7767 10.5227 10.7714C10.5519 10.7674 10.5809 10.763 10.61 10.7585C10.6305 10.7553 10.651 10.752 10.6714 10.7485C10.7304 10.7384 10.789 10.7271 10.8472 10.7145C10.8481 10.7143 10.849 10.7141 10.8499 10.7139C11.1245 10.6542 11.39 10.5665 11.6459 10.4507V10.9311C11.6459 11.2169 11.7513 11.5147 11.9248 11.7494L9.99992 13.5735ZM12.1158 14.0017C11.9572 14.1827 11.7078 14.2496 11.4798 14.1719L10.5545 13.8567L12.1225 12.3706L12.4479 12.0623C12.4484 12.0618 12.449 12.0617 12.4495 12.0614C12.4523 12.0591 12.4555 12.0574 12.4589 12.0564C12.4596 12.0561 12.4602 12.0557 12.4609 12.0555C12.4654 12.0545 12.4702 12.0546 12.4748 12.056L13.5319 12.3857L12.1158 14.0017Z"/>
</mask>
<path d="M18.2962 14.054C17.7734 13.3551 17.0547 12.8552 16.2177 12.6082L12.6494 11.4956C12.5849 11.4755 12.5185 11.4666 12.4529 11.4681C12.3216 11.3292 12.2328 11.1195 12.2328 10.9311V10.1258C12.3875 10.0229 12.5381 9.9085 12.6843 9.78264C13.3866 9.17792 13.8273 8.30327 13.9186 7.34995C14.4314 7.33542 14.8441 6.91374 14.8441 6.39749V5.66686C14.8441 5.38292 14.7184 5.1187 14.5067 4.93979V3.9946C14.5067 3.83249 14.3754 3.70112 14.2132 3.70112C14.0512 3.70112 13.9198 3.83249 13.9198 3.9946L13.9197 4.62495C13.8952 4.61663 13.8705 4.60889 13.8459 4.60073C13.8086 4.58835 13.7713 4.57608 13.734 4.56405C13.6853 4.54839 13.6366 4.53311 13.5878 4.51807C13.5511 4.50674 13.5145 4.49534 13.4777 4.48436C13.4274 4.46932 13.377 4.45483 13.3266 4.44042C13.2914 4.43038 13.2563 4.4201 13.2211 4.41038C13.1668 4.39538 13.1125 4.38108 13.0581 4.36682C13.0268 4.35862 12.9955 4.35006 12.9641 4.3421C12.8948 4.32448 12.8255 4.3078 12.7561 4.29143C12.7397 4.28757 12.7233 4.28331 12.7068 4.27952C12.6212 4.25967 12.5354 4.24085 12.4496 4.22288C12.4236 4.21745 12.3975 4.21256 12.3714 4.20729C12.3114 4.19514 12.2513 4.18303 12.1912 4.17178C12.1579 4.16557 12.1246 4.15991 12.0913 4.15397C12.0383 4.14452 11.9853 4.1351 11.9322 4.12635C11.8964 4.12046 11.8605 4.11503 11.8247 4.10944C11.7739 4.10155 11.7232 4.09378 11.6725 4.08655C11.6357 4.08132 11.5989 4.07639 11.562 4.07147C11.512 4.06483 11.4621 4.05839 11.4121 4.05237C11.3749 4.04788 11.3377 4.04362 11.3005 4.03948C11.2506 4.03393 11.2007 4.02878 11.1507 4.02389C11.1138 4.02026 11.0768 4.01671 11.0398 4.01342C10.9891 4.00893 10.9384 4.00495 10.8877 4.00108C10.8516 3.99835 10.8156 3.99553 10.7795 3.99315C10.7268 3.98964 10.674 3.98678 10.6213 3.98401C10.5873 3.98221 10.5534 3.98018 10.5195 3.97866C10.4613 3.97608 10.4032 3.97432 10.3451 3.9726C10.3166 3.97174 10.2881 3.97053 10.2596 3.96991C10.173 3.96799 10.0864 3.9669 9.99988 3.9669C9.91336 3.9669 9.8268 3.96799 9.74027 3.96991C9.71168 3.97053 9.68309 3.97178 9.65449 3.9726C9.59649 3.97432 9.53844 3.97608 9.48043 3.97866C9.44637 3.98018 9.41227 3.98221 9.3782 3.98401C9.32559 3.98678 9.27301 3.98964 9.22039 3.99315C9.18426 3.99557 9.14813 3.99839 9.11199 4.00112C9.06137 4.00495 9.0107 4.00893 8.96008 4.01342C8.92301 4.01671 8.88594 4.0203 8.84887 4.02393C8.79906 4.02882 8.7493 4.03397 8.69949 4.03948C8.66215 4.04362 8.6248 4.04792 8.5875 4.05241C8.53773 4.05839 8.48797 4.06479 8.4382 4.07139C8.40117 4.07631 8.36414 4.08128 8.32715 4.08655C8.2766 4.09378 8.22606 4.10151 8.17555 4.10936C8.13953 4.11495 8.10352 4.12042 8.0675 4.12635C8.01477 4.13507 7.96203 4.1444 7.90934 4.15381C7.8757 4.15983 7.84207 4.16553 7.80848 4.17182C7.74887 4.18296 7.68934 4.19495 7.62981 4.20702C7.60328 4.21241 7.57672 4.21737 7.5502 4.22292C7.46449 4.24085 7.37887 4.25967 7.29328 4.27948C7.27586 4.2835 7.25844 4.28799 7.24102 4.29214C7.17266 4.30827 7.10434 4.32471 7.03606 4.34206C7.00402 4.35018 6.97203 4.35893 6.94 4.36733C6.88641 4.38139 6.83281 4.39546 6.77926 4.41026C6.7434 4.42018 6.70758 4.43061 6.67176 4.44089C6.62211 4.4551 6.5725 4.46932 6.52289 4.48417C6.48543 4.49538 6.44801 4.50698 6.41059 4.51854C6.36266 4.53335 6.31477 4.54835 6.26695 4.56374C6.22879 4.57604 6.19066 4.58858 6.15258 4.60124C6.12844 4.60924 6.10426 4.61682 6.08016 4.62499V2.62139C6.08016 1.92366 6.55418 1.3235 7.23293 1.16194L9.37547 0.65194C9.73344 0.566745 10.1123 0.565143 10.4709 0.647448L12.7548 1.17124C13.4407 1.32854 13.9197 1.92983 13.9197 2.63342C13.9197 2.79553 14.0511 2.9269 14.2132 2.9269C14.3753 2.9269 14.5067 2.79553 14.5067 2.63342C14.5067 1.65444 13.8402 0.817917 12.8861 0.599049L10.6021 0.0752993C10.1559 -0.0269663 9.68473 -0.0250523 9.23949 0.0809633L7.09699 0.590963C6.15266 0.815729 5.49313 1.65069 5.49313 2.62143L5.4932 4.93979C5.28152 5.1187 5.15578 5.38292 5.15578 5.6669V6.39753C5.15578 6.91378 5.56848 7.33546 6.08129 7.34999C6.17246 8.30331 6.61324 9.17796 7.31559 9.78268C7.46176 9.90854 7.61231 10.0229 7.76707 10.1258V10.9312C7.76707 11.1196 7.67828 11.3293 7.54703 11.4682C7.48137 11.4667 7.415 11.4755 7.35047 11.4957L3.78215 12.6083C2.94516 12.8553 2.22652 13.3551 1.70371 14.054C1.18051 14.7535 0.903946 15.585 0.903946 16.4585V16.6774C0.903946 16.8395 1.03531 16.9708 1.19742 16.9708C1.35953 16.9708 1.4909 16.8395 1.4909 16.6774V16.4585C1.4909 15.7127 1.72703 15.0028 2.17375 14.4057C2.62051 13.8084 3.23477 13.3814 3.9502 13.1708C3.95168 13.1703 3.95316 13.1699 3.95465 13.1694L5.855 12.5769L7.44258 14.3887C7.67102 14.6494 7.99438 14.7912 8.3275 14.7912C8.45492 14.7912 8.58383 14.7705 8.7093 14.7277L9.06809 14.6055L9.57359 15.6729C9.41832 15.7321 9.27481 15.8235 9.15109 15.9448C8.91113 16.1803 8.77352 16.507 8.77352 16.8412V18.6334C8.77352 18.8691 8.96527 19.0609 9.20098 19.0609H9.93633C10.172 19.0609 10.3638 18.8691 10.3638 18.6334V17.991C10.8644 17.8345 11.2263 17.364 11.2263 16.8202C11.2263 16.2982 10.8922 15.8466 10.4268 15.6715L10.9317 14.6054L11.2905 14.7276C11.416 14.7704 11.5449 14.7911 11.6723 14.7911C12.0054 14.7911 12.3288 14.6493 12.5572 14.3886L14.1448 12.5768L16.0452 13.1694C16.0466 13.1698 16.0481 13.1703 16.0496 13.1707C16.765 13.3813 17.3793 13.8083 17.8261 14.4056C18.2728 15.0028 18.5089 15.7126 18.5089 16.4585V18.9702C18.5089 19.2144 18.3103 19.413 18.0661 19.413H16.5937V16.6027C16.5937 16.4406 16.4623 16.3092 16.3002 16.3092C16.1381 16.3092 16.0068 16.4406 16.0068 16.6027V19.413H3.99305V16.6027C3.99305 16.4406 3.86168 16.3092 3.69957 16.3092C3.53746 16.3092 3.40609 16.4406 3.40609 16.6027V19.413H1.93371C1.68957 19.413 1.4909 19.2144 1.4909 18.9702V18.0428C1.4909 17.8807 1.35953 17.7494 1.19742 17.7494C1.03531 17.7494 0.903946 17.8807 0.903946 18.0428V18.9702C0.903946 19.538 1.3659 20 1.93375 20H18.0662C18.6341 20 19.096 19.538 19.096 18.9702V16.4584C19.0959 15.5849 18.8194 14.7535 18.2962 14.054ZM6.3898 5.14065C6.41391 5.13276 6.43809 5.12542 6.46223 5.11768C6.52035 5.09905 6.57848 5.08049 6.63668 5.0628C6.66758 5.05339 6.69859 5.04456 6.72953 5.03542C6.78117 5.02014 6.83281 5.00487 6.88453 4.99034C6.91824 4.98085 6.95199 4.9719 6.98574 4.96276C7.03477 4.94944 7.08375 4.93612 7.13281 4.92346C7.16816 4.91432 7.20359 4.90565 7.23898 4.89686C7.28656 4.88503 7.3341 4.87327 7.38172 4.86206C7.41809 4.8535 7.45449 4.8453 7.4909 4.8371C7.53758 4.82655 7.5843 4.81616 7.63102 4.8062C7.66805 4.79831 7.70512 4.79073 7.74219 4.78323C7.78848 4.77385 7.83473 4.76467 7.88102 4.75589C7.91836 4.74878 7.95574 4.7419 7.99309 4.73518C8.03922 4.72686 8.08535 4.71885 8.13148 4.71112C8.16898 4.70483 8.20645 4.6987 8.24395 4.69276C8.29016 4.68549 8.33637 4.67858 8.38258 4.67186C8.41996 4.66643 8.45738 4.66108 8.4948 4.656C8.54137 4.64971 8.58793 4.64389 8.63449 4.63819C8.67156 4.63366 8.70859 4.62905 8.74566 4.62491C8.79289 4.6196 8.84012 4.61487 8.88734 4.61014C8.92371 4.60651 8.96012 4.60272 8.99652 4.59944C9.04496 4.59507 9.0934 4.59139 9.14184 4.58764C9.17703 4.58495 9.21227 4.58198 9.24746 4.5796C9.29816 4.57616 9.34883 4.5735 9.39953 4.57077C9.43246 4.56901 9.46539 4.56686 9.49828 4.56538C9.5543 4.56284 9.61035 4.5612 9.66637 4.55952C9.69398 4.5587 9.7216 4.55745 9.74922 4.55682C9.83277 4.55495 9.91637 4.55389 9.99988 4.55389C10.0001 4.55389 10.0003 4.55389 10.0005 4.55389C10.0838 4.55389 10.1672 4.55491 10.2506 4.55678C10.2784 4.55741 10.3063 4.55866 10.334 4.55952C10.3898 4.5612 10.4455 4.56284 10.5013 4.56534C10.5347 4.56686 10.5682 4.56901 10.6016 4.57081C10.6518 4.5735 10.702 4.57616 10.7521 4.57952C10.7878 4.58194 10.8235 4.58491 10.8592 4.58768C10.9071 4.59135 10.955 4.59503 11.0029 4.59932C11.0398 4.60264 11.0767 4.60647 11.1137 4.61018C11.1604 4.61483 11.207 4.61952 11.2537 4.62479C11.2913 4.62901 11.3288 4.63366 11.3664 4.63827C11.4124 4.64389 11.4584 4.64964 11.5044 4.65585C11.5423 4.66096 11.5804 4.66643 11.6183 4.67194C11.6639 4.67854 11.7095 4.68538 11.7551 4.69256C11.7932 4.69854 11.8313 4.70479 11.8693 4.71116C11.9148 4.71878 11.9603 4.72671 12.0058 4.73491C12.0439 4.74174 12.0819 4.74878 12.1199 4.756C12.1654 4.76467 12.211 4.7737 12.2565 4.78292C12.2943 4.79057 12.332 4.79831 12.3698 4.80631C12.4157 4.81612 12.4616 4.82631 12.5075 4.83667C12.5448 4.84507 12.582 4.85342 12.6191 4.86217C12.6657 4.87315 12.7122 4.88464 12.7587 4.8962C12.7952 4.90526 12.8316 4.91421 12.868 4.92362C12.9157 4.93596 12.9634 4.94889 13.011 4.96182C13.0461 4.97135 13.0813 4.98069 13.1164 4.99053C13.1663 5.00456 13.2161 5.01932 13.2659 5.03405C13.2987 5.0437 13.3314 5.05307 13.3641 5.06299C13.4192 5.07975 13.4743 5.09737 13.5293 5.11495C13.5566 5.1237 13.5839 5.13202 13.6112 5.14092C13.6876 5.16592 13.7638 5.19182 13.84 5.21839C13.8459 5.22042 13.8518 5.22233 13.8577 5.22436C13.8584 5.22464 13.8591 5.22491 13.8599 5.22518L13.7845 5.50549C13.7566 5.60893 13.6897 5.69448 13.596 5.74628C13.5034 5.79741 13.3972 5.80854 13.2966 5.77772C13.1599 5.73573 13.0231 5.69635 12.8861 5.6596C10.832 5.10839 8.75422 5.14772 6.70332 5.77772C6.60285 5.80854 6.49652 5.79741 6.40406 5.74628C6.38063 5.73331 6.35887 5.71827 6.33898 5.70135C6.2793 5.65061 6.23641 5.58307 6.21551 5.50549L6.17867 5.3685L6.14016 5.22518C6.2232 5.19612 6.30645 5.16792 6.3898 5.14065ZM7.69859 9.3378C7.05234 8.78139 6.67066 7.94768 6.65141 7.05053C6.64801 6.89096 6.51762 6.76335 6.35797 6.76335H6.10859C5.90684 6.76335 5.74277 6.59924 5.74277 6.39753V5.88839C5.74367 5.88995 5.74473 5.89147 5.74563 5.89303C5.75449 5.90846 5.76379 5.92358 5.77348 5.93846C5.77676 5.94346 5.78008 5.94842 5.78344 5.95339C5.79199 5.96604 5.80086 5.97846 5.81 5.99065C5.81301 5.99467 5.8159 5.99878 5.81898 6.00276C5.83098 6.01823 5.84336 6.03339 5.85629 6.04811C5.85926 6.05151 5.86238 6.05475 5.86539 6.05811C5.87582 6.06971 5.88652 6.08104 5.89758 6.09214C5.90191 6.09651 5.90629 6.10085 5.91074 6.10514C5.92254 6.11659 5.93461 6.12772 5.94699 6.13854C5.94973 6.14092 5.95234 6.14346 5.95512 6.14581C5.9702 6.1587 5.98574 6.17108 6.00164 6.18311C6.0059 6.18631 6.01023 6.18936 6.01453 6.19253C6.02711 6.20171 6.03988 6.21061 6.05297 6.21921C6.0577 6.22233 6.06242 6.22549 6.06723 6.22854C6.08445 6.23948 6.10195 6.25014 6.11996 6.2601C6.12078 6.26053 6.1216 6.26092 6.12242 6.26135C6.13828 6.27006 6.1543 6.27823 6.17047 6.286C6.17609 6.2887 6.18176 6.2912 6.18742 6.29378C6.19914 6.29917 6.21094 6.30432 6.22281 6.30921C6.22906 6.31178 6.23531 6.31428 6.2416 6.31674C6.25371 6.32143 6.26594 6.32585 6.27816 6.33003C6.28375 6.33194 6.2893 6.33397 6.29492 6.33577C6.3125 6.34143 6.33016 6.34671 6.34793 6.35131C6.35008 6.35186 6.35227 6.35229 6.35441 6.35284C6.37023 6.35686 6.38613 6.36042 6.40211 6.36362C6.4082 6.36483 6.4143 6.36585 6.42043 6.36694C6.43277 6.36917 6.44512 6.37116 6.4575 6.37288C6.4641 6.37382 6.47074 6.37467 6.47734 6.37546C6.49012 6.37698 6.50293 6.37815 6.51574 6.37913C6.52148 6.37956 6.52723 6.38014 6.53297 6.3805C6.55113 6.38155 6.5693 6.38221 6.58754 6.38221C6.58809 6.38221 6.58863 6.38225 6.58918 6.38225C6.59109 6.38225 6.59297 6.38206 6.59488 6.38202C6.61398 6.3819 6.63309 6.38112 6.65223 6.37987C6.65777 6.37952 6.66328 6.37913 6.66883 6.37866C6.68992 6.3769 6.71105 6.37467 6.73211 6.37151C6.73355 6.37128 6.735 6.37096 6.73645 6.37077C6.75617 6.36772 6.77586 6.36389 6.79551 6.3596C6.80137 6.35831 6.80723 6.35698 6.81309 6.35561C6.83301 6.35088 6.85289 6.34569 6.8727 6.33967C6.87367 6.3394 6.87465 6.33921 6.87563 6.33889C7.39391 6.17967 7.91402 6.06026 8.43508 5.98065C9.6725 5.79163 10.9151 5.82706 12.1505 6.08698C12.4756 6.15538 12.8002 6.23932 13.1242 6.33882C13.3782 6.41698 13.6467 6.38893 13.8798 6.26003C13.8978 6.2501 13.9152 6.23956 13.9323 6.22866C13.9373 6.22546 13.9423 6.22214 13.9473 6.21885C13.9601 6.21038 13.9727 6.20163 13.985 6.1926C13.9895 6.18936 13.9939 6.18624 13.9983 6.18296C14.0141 6.17096 14.0297 6.15858 14.0447 6.14573C14.0475 6.14338 14.05 6.14092 14.0527 6.13854C14.0652 6.12764 14.0773 6.11643 14.0892 6.10495C14.0936 6.10073 14.0979 6.09647 14.1021 6.09217C14.1133 6.08092 14.1242 6.0694 14.1348 6.05764C14.1376 6.05448 14.1406 6.05139 14.1434 6.04819C14.1564 6.03339 14.1689 6.01819 14.1809 6.0026C14.1839 5.9987 14.1867 5.99471 14.1896 5.99077C14.1988 5.9785 14.2077 5.966 14.2163 5.95331C14.2197 5.94835 14.223 5.94342 14.2263 5.93839C14.2359 5.92362 14.2451 5.90866 14.2539 5.89339C14.2549 5.89167 14.256 5.89007 14.257 5.88835V6.39749C14.257 6.59924 14.0929 6.76331 13.8912 6.76331H13.6418C13.4822 6.76331 13.3518 6.89092 13.3484 7.05049C13.3291 7.94764 12.9474 8.78135 12.3012 9.33776C12.137 9.47917 11.9663 9.60358 11.7898 9.71128C11.7888 9.71186 11.7877 9.71225 11.7868 9.71284C11.7595 9.72936 11.7321 9.74522 11.7046 9.76096C11.696 9.76589 11.6874 9.771 11.6788 9.77585C11.6498 9.79214 11.6206 9.80788 11.5913 9.82327C11.5834 9.82741 11.5754 9.83151 11.5675 9.83561C11.4338 9.90456 11.2969 9.96448 11.157 10.0151C11.1535 10.0163 11.15 10.0176 11.1465 10.0188C11.0412 10.0565 10.9341 10.089 10.8255 10.1162C10.8224 10.117 10.8193 10.1179 10.8162 10.1186C10.7852 10.1263 10.7539 10.1334 10.7226 10.1402C10.7095 10.1431 10.6964 10.1458 10.6833 10.1485C10.6545 10.1545 10.6257 10.1602 10.5968 10.1654C10.5788 10.1686 10.5607 10.1714 10.5426 10.1744C10.5029 10.1809 10.4629 10.1867 10.4228 10.1919C10.3955 10.1954 10.3682 10.1989 10.3407 10.2017C10.3209 10.2038 10.3011 10.2055 10.2812 10.2073C10.2517 10.2099 10.2221 10.2122 10.1923 10.2141C10.1752 10.2151 10.158 10.2163 10.1407 10.2172C10.0965 10.2194 10.052 10.221 10.0073 10.2216C10.0048 10.2216 10.0023 10.2218 9.99977 10.2218C9.99727 10.2217 9.99477 10.2216 9.99227 10.2216C9.94754 10.221 9.90309 10.2194 9.85879 10.2172C9.84152 10.2163 9.82438 10.2151 9.80719 10.2141C9.77746 10.2122 9.74785 10.2099 9.71832 10.2073C9.69848 10.2055 9.67863 10.2038 9.65887 10.2017C9.63137 10.1989 9.60406 10.1954 9.57676 10.1919C9.53664 10.1867 9.49668 10.1809 9.45691 10.1744C9.43887 10.1714 9.42074 10.1686 9.40273 10.1654C9.37379 10.1602 9.345 10.1544 9.31625 10.1485C9.30313 10.1458 9.29 10.1431 9.27695 10.1402C9.24563 10.1334 9.21438 10.1263 9.18328 10.1186C9.1802 10.1178 9.17715 10.117 9.17406 10.1162C9.06543 10.089 8.95836 10.0565 8.85301 10.0188C8.84949 10.0176 8.84602 10.0163 8.84254 10.0151C8.70262 9.96448 8.56574 9.90456 8.43203 9.83561C8.4241 9.83151 8.41617 9.82745 8.40828 9.82327C8.37898 9.80788 8.3498 9.79214 8.32078 9.77585C8.31215 9.771 8.30359 9.76592 8.29496 9.76096C8.26746 9.74522 8.24 9.72936 8.21277 9.71284C8.2118 9.71225 8.21074 9.71186 8.20977 9.71128C8.03344 9.60362 7.86281 9.47925 7.69859 9.3378ZM8.52004 14.1719C8.29227 14.2495 8.04262 14.1827 7.88406 14.0018L6.46801 12.3857L7.52523 12.056C7.52652 12.0557 7.52785 12.0561 7.52918 12.0559C7.5325 12.0554 7.53582 12.0548 7.53902 12.0555C7.53953 12.0557 7.54004 12.056 7.54055 12.0562C7.54344 12.057 7.54598 12.0587 7.54848 12.0605C7.54957 12.0612 7.5509 12.0614 7.55188 12.0623L7.55184 12.0623L9.44539 13.8567L8.52004 14.1719ZM10.6393 16.8201C10.6393 17.1527 10.3798 17.4326 10.0484 17.4573C9.89527 17.4688 9.7768 17.5964 9.7768 17.75V18.4738H9.36051V16.8411C9.36051 16.6634 9.43402 16.4894 9.56223 16.3636C9.68563 16.2426 9.84629 16.1773 10.0124 16.1808C10.3581 16.1874 10.6393 16.4742 10.6393 16.8201ZM9.62734 14.4148L9.99992 14.2879L10.3725 14.4148L9.99992 15.2015L9.62734 14.4148ZM9.99992 13.5735L8.0752 11.7494C8.24863 11.5147 8.35406 11.2169 8.35406 10.9311V10.4507C8.60992 10.5665 8.87547 10.6542 9.15004 10.7139C9.15094 10.7141 9.15188 10.7143 9.15277 10.7145C9.21094 10.7271 9.26953 10.7384 9.32856 10.7485C9.34898 10.752 9.36949 10.7553 9.39004 10.7585C9.41906 10.763 9.44809 10.7675 9.47731 10.7714C9.51688 10.7767 9.5566 10.7813 9.59645 10.7855C9.61426 10.7874 9.63207 10.7892 9.64996 10.7908C9.69895 10.7954 9.74813 10.7991 9.79758 10.8019C9.80863 10.8026 9.81973 10.803 9.83078 10.8035C9.88586 10.8063 9.94109 10.8083 9.99672 10.8089H9.99676C9.99785 10.8089 9.99895 10.8089 10 10.8089C10.0011 10.8089 10.0021 10.8089 10.0032 10.8089H10.0033C10.0589 10.8083 10.1141 10.8063 10.1692 10.8035C10.1803 10.803 10.1914 10.8026 10.2024 10.8019C10.2518 10.7991 10.3011 10.7954 10.35 10.7908C10.3679 10.7892 10.3857 10.7874 10.4036 10.7855C10.4434 10.7814 10.4832 10.7767 10.5227 10.7714C10.5519 10.7674 10.5809 10.763 10.61 10.7585C10.6305 10.7553 10.651 10.752 10.6714 10.7485C10.7304 10.7384 10.789 10.7271 10.8472 10.7145C10.8481 10.7143 10.849 10.7141 10.8499 10.7139C11.1245 10.6542 11.39 10.5665 11.6459 10.4507V10.9311C11.6459 11.2169 11.7513 11.5147 11.9248 11.7494L9.99992 13.5735ZM12.1158 14.0017C11.9572 14.1827 11.7078 14.2496 11.4798 14.1719L10.5545 13.8567L12.1225 12.3706L12.4479 12.0623C12.4484 12.0618 12.449 12.0617 12.4495 12.0614C12.4523 12.0591 12.4555 12.0574 12.4589 12.0564C12.4596 12.0561 12.4602 12.0557 12.4609 12.0555C12.4654 12.0545 12.4702 12.0546 12.4748 12.056L13.5319 12.3857L12.1158 14.0017Z" fill="white"/>
<path d="M18.2962 14.054C17.7734 13.3551 17.0547 12.8552 16.2177 12.6082L12.6494 11.4956C12.5849 11.4755 12.5185 11.4666 12.4529 11.4681C12.3216 11.3292 12.2328 11.1195 12.2328 10.9311V10.1258C12.3875 10.0229 12.5381 9.9085 12.6843 9.78264C13.3866 9.17792 13.8273 8.30327 13.9186 7.34995C14.4314 7.33542 14.8441 6.91374 14.8441 6.39749V5.66686C14.8441 5.38292 14.7184 5.1187 14.5067 4.93979V3.9946C14.5067 3.83249 14.3754 3.70112 14.2132 3.70112C14.0512 3.70112 13.9198 3.83249 13.9198 3.9946L13.9197 4.62495C13.8952 4.61663 13.8705 4.60889 13.8459 4.60073C13.8086 4.58835 13.7713 4.57608 13.734 4.56405C13.6853 4.54839 13.6366 4.53311 13.5878 4.51807C13.5511 4.50674 13.5145 4.49534 13.4777 4.48436C13.4274 4.46932 13.377 4.45483 13.3266 4.44042C13.2914 4.43038 13.2563 4.4201 13.2211 4.41038C13.1668 4.39538 13.1125 4.38108 13.0581 4.36682C13.0268 4.35862 12.9955 4.35006 12.9641 4.3421C12.8948 4.32448 12.8255 4.3078 12.7561 4.29143C12.7397 4.28757 12.7233 4.28331 12.7068 4.27952C12.6212 4.25967 12.5354 4.24085 12.4496 4.22288C12.4236 4.21745 12.3975 4.21256 12.3714 4.20729C12.3114 4.19514 12.2513 4.18303 12.1912 4.17178C12.1579 4.16557 12.1246 4.15991 12.0913 4.15397C12.0383 4.14452 11.9853 4.1351 11.9322 4.12635C11.8964 4.12046 11.8605 4.11503 11.8247 4.10944C11.7739 4.10155 11.7232 4.09378 11.6725 4.08655C11.6357 4.08132 11.5989 4.07639 11.562 4.07147C11.512 4.06483 11.4621 4.05839 11.4121 4.05237C11.3749 4.04788 11.3377 4.04362 11.3005 4.03948C11.2506 4.03393 11.2007 4.02878 11.1507 4.02389C11.1138 4.02026 11.0768 4.01671 11.0398 4.01342C10.9891 4.00893 10.9384 4.00495 10.8877 4.00108C10.8516 3.99835 10.8156 3.99553 10.7795 3.99315C10.7268 3.98964 10.674 3.98678 10.6213 3.98401C10.5873 3.98221 10.5534 3.98018 10.5195 3.97866C10.4613 3.97608 10.4032 3.97432 10.3451 3.9726C10.3166 3.97174 10.2881 3.97053 10.2596 3.96991C10.173 3.96799 10.0864 3.9669 9.99988 3.9669C9.91336 3.9669 9.8268 3.96799 9.74027 3.96991C9.71168 3.97053 9.68309 3.97178 9.65449 3.9726C9.59649 3.97432 9.53844 3.97608 9.48043 3.97866C9.44637 3.98018 9.41227 3.98221 9.3782 3.98401C9.32559 3.98678 9.27301 3.98964 9.22039 3.99315C9.18426 3.99557 9.14813 3.99839 9.11199 4.00112C9.06137 4.00495 9.0107 4.00893 8.96008 4.01342C8.92301 4.01671 8.88594 4.0203 8.84887 4.02393C8.79906 4.02882 8.7493 4.03397 8.69949 4.03948C8.66215 4.04362 8.6248 4.04792 8.5875 4.05241C8.53773 4.05839 8.48797 4.06479 8.4382 4.07139C8.40117 4.07631 8.36414 4.08128 8.32715 4.08655C8.2766 4.09378 8.22606 4.10151 8.17555 4.10936C8.13953 4.11495 8.10352 4.12042 8.0675 4.12635C8.01477 4.13507 7.96203 4.1444 7.90934 4.15381C7.8757 4.15983 7.84207 4.16553 7.80848 4.17182C7.74887 4.18296 7.68934 4.19495 7.62981 4.20702C7.60328 4.21241 7.57672 4.21737 7.5502 4.22292C7.46449 4.24085 7.37887 4.25967 7.29328 4.27948C7.27586 4.2835 7.25844 4.28799 7.24102 4.29214C7.17266 4.30827 7.10434 4.32471 7.03606 4.34206C7.00402 4.35018 6.97203 4.35893 6.94 4.36733C6.88641 4.38139 6.83281 4.39546 6.77926 4.41026C6.7434 4.42018 6.70758 4.43061 6.67176 4.44089C6.62211 4.4551 6.5725 4.46932 6.52289 4.48417C6.48543 4.49538 6.44801 4.50698 6.41059 4.51854C6.36266 4.53335 6.31477 4.54835 6.26695 4.56374C6.22879 4.57604 6.19066 4.58858 6.15258 4.60124C6.12844 4.60924 6.10426 4.61682 6.08016 4.62499V2.62139C6.08016 1.92366 6.55418 1.3235 7.23293 1.16194L9.37547 0.65194C9.73344 0.566745 10.1123 0.565143 10.4709 0.647448L12.7548 1.17124C13.4407 1.32854 13.9197 1.92983 13.9197 2.63342C13.9197 2.79553 14.0511 2.9269 14.2132 2.9269C14.3753 2.9269 14.5067 2.79553 14.5067 2.63342C14.5067 1.65444 13.8402 0.817917 12.8861 0.599049L10.6021 0.0752993C10.1559 -0.0269663 9.68473 -0.0250523 9.23949 0.0809633L7.09699 0.590963C6.15266 0.815729 5.49313 1.65069 5.49313 2.62143L5.4932 4.93979C5.28152 5.1187 5.15578 5.38292 5.15578 5.6669V6.39753C5.15578 6.91378 5.56848 7.33546 6.08129 7.34999C6.17246 8.30331 6.61324 9.17796 7.31559 9.78268C7.46176 9.90854 7.61231 10.0229 7.76707 10.1258V10.9312C7.76707 11.1196 7.67828 11.3293 7.54703 11.4682C7.48137 11.4667 7.415 11.4755 7.35047 11.4957L3.78215 12.6083C2.94516 12.8553 2.22652 13.3551 1.70371 14.054C1.18051 14.7535 0.903946 15.585 0.903946 16.4585V16.6774C0.903946 16.8395 1.03531 16.9708 1.19742 16.9708C1.35953 16.9708 1.4909 16.8395 1.4909 16.6774V16.4585C1.4909 15.7127 1.72703 15.0028 2.17375 14.4057C2.62051 13.8084 3.23477 13.3814 3.9502 13.1708C3.95168 13.1703 3.95316 13.1699 3.95465 13.1694L5.855 12.5769L7.44258 14.3887C7.67102 14.6494 7.99438 14.7912 8.3275 14.7912C8.45492 14.7912 8.58383 14.7705 8.7093 14.7277L9.06809 14.6055L9.57359 15.6729C9.41832 15.7321 9.27481 15.8235 9.15109 15.9448C8.91113 16.1803 8.77352 16.507 8.77352 16.8412V18.6334C8.77352 18.8691 8.96527 19.0609 9.20098 19.0609H9.93633C10.172 19.0609 10.3638 18.8691 10.3638 18.6334V17.991C10.8644 17.8345 11.2263 17.364 11.2263 16.8202C11.2263 16.2982 10.8922 15.8466 10.4268 15.6715L10.9317 14.6054L11.2905 14.7276C11.416 14.7704 11.5449 14.7911 11.6723 14.7911C12.0054 14.7911 12.3288 14.6493 12.5572 14.3886L14.1448 12.5768L16.0452 13.1694C16.0466 13.1698 16.0481 13.1703 16.0496 13.1707C16.765 13.3813 17.3793 13.8083 17.8261 14.4056C18.2728 15.0028 18.5089 15.7126 18.5089 16.4585V18.9702C18.5089 19.2144 18.3103 19.413 18.0661 19.413H16.5937V16.6027C16.5937 16.4406 16.4623 16.3092 16.3002 16.3092C16.1381 16.3092 16.0068 16.4406 16.0068 16.6027V19.413H3.99305V16.6027C3.99305 16.4406 3.86168 16.3092 3.69957 16.3092C3.53746 16.3092 3.40609 16.4406 3.40609 16.6027V19.413H1.93371C1.68957 19.413 1.4909 19.2144 1.4909 18.9702V18.0428C1.4909 17.8807 1.35953 17.7494 1.19742 17.7494C1.03531 17.7494 0.903946 17.8807 0.903946 18.0428V18.9702C0.903946 19.538 1.3659 20 1.93375 20H18.0662C18.6341 20 19.096 19.538 19.096 18.9702V16.4584C19.0959 15.5849 18.8194 14.7535 18.2962 14.054ZM6.3898 5.14065C6.41391 5.13276 6.43809 5.12542 6.46223 5.11768C6.52035 5.09905 6.57848 5.08049 6.63668 5.0628C6.66758 5.05339 6.69859 5.04456 6.72953 5.03542C6.78117 5.02014 6.83281 5.00487 6.88453 4.99034C6.91824 4.98085 6.95199 4.9719 6.98574 4.96276C7.03477 4.94944 7.08375 4.93612 7.13281 4.92346C7.16816 4.91432 7.20359 4.90565 7.23898 4.89686C7.28656 4.88503 7.3341 4.87327 7.38172 4.86206C7.41809 4.8535 7.45449 4.8453 7.4909 4.8371C7.53758 4.82655 7.5843 4.81616 7.63102 4.8062C7.66805 4.79831 7.70512 4.79073 7.74219 4.78323C7.78848 4.77385 7.83473 4.76467 7.88102 4.75589C7.91836 4.74878 7.95574 4.7419 7.99309 4.73518C8.03922 4.72686 8.08535 4.71885 8.13148 4.71112C8.16898 4.70483 8.20645 4.6987 8.24395 4.69276C8.29016 4.68549 8.33637 4.67858 8.38258 4.67186C8.41996 4.66643 8.45738 4.66108 8.4948 4.656C8.54137 4.64971 8.58793 4.64389 8.63449 4.63819C8.67156 4.63366 8.70859 4.62905 8.74566 4.62491C8.79289 4.6196 8.84012 4.61487 8.88734 4.61014C8.92371 4.60651 8.96012 4.60272 8.99652 4.59944C9.04496 4.59507 9.0934 4.59139 9.14184 4.58764C9.17703 4.58495 9.21227 4.58198 9.24746 4.5796C9.29816 4.57616 9.34883 4.5735 9.39953 4.57077C9.43246 4.56901 9.46539 4.56686 9.49828 4.56538C9.5543 4.56284 9.61035 4.5612 9.66637 4.55952C9.69398 4.5587 9.7216 4.55745 9.74922 4.55682C9.83277 4.55495 9.91637 4.55389 9.99988 4.55389C10.0001 4.55389 10.0003 4.55389 10.0005 4.55389C10.0838 4.55389 10.1672 4.55491 10.2506 4.55678C10.2784 4.55741 10.3063 4.55866 10.334 4.55952C10.3898 4.5612 10.4455 4.56284 10.5013 4.56534C10.5347 4.56686 10.5682 4.56901 10.6016 4.57081C10.6518 4.5735 10.702 4.57616 10.7521 4.57952C10.7878 4.58194 10.8235 4.58491 10.8592 4.58768C10.9071 4.59135 10.955 4.59503 11.0029 4.59932C11.0398 4.60264 11.0767 4.60647 11.1137 4.61018C11.1604 4.61483 11.207 4.61952 11.2537 4.62479C11.2913 4.62901 11.3288 4.63366 11.3664 4.63827C11.4124 4.64389 11.4584 4.64964 11.5044 4.65585C11.5423 4.66096 11.5804 4.66643 11.6183 4.67194C11.6639 4.67854 11.7095 4.68538 11.7551 4.69256C11.7932 4.69854 11.8313 4.70479 11.8693 4.71116C11.9148 4.71878 11.9603 4.72671 12.0058 4.73491C12.0439 4.74174 12.0819 4.74878 12.1199 4.756C12.1654 4.76467 12.211 4.7737 12.2565 4.78292C12.2943 4.79057 12.332 4.79831 12.3698 4.80631C12.4157 4.81612 12.4616 4.82631 12.5075 4.83667C12.5448 4.84507 12.582 4.85342 12.6191 4.86217C12.6657 4.87315 12.7122 4.88464 12.7587 4.8962C12.7952 4.90526 12.8316 4.91421 12.868 4.92362C12.9157 4.93596 12.9634 4.94889 13.011 4.96182C13.0461 4.97135 13.0813 4.98069 13.1164 4.99053C13.1663 5.00456 13.2161 5.01932 13.2659 5.03405C13.2987 5.0437 13.3314 5.05307 13.3641 5.06299C13.4192 5.07975 13.4743 5.09737 13.5293 5.11495C13.5566 5.1237 13.5839 5.13202 13.6112 5.14092C13.6876 5.16592 13.7638 5.19182 13.84 5.21839C13.8459 5.22042 13.8518 5.22233 13.8577 5.22436C13.8584 5.22464 13.8591 5.22491 13.8599 5.22518L13.7845 5.50549C13.7566 5.60893 13.6897 5.69448 13.596 5.74628C13.5034 5.79741 13.3972 5.80854 13.2966 5.77772C13.1599 5.73573 13.0231 5.69635 12.8861 5.6596C10.832 5.10839 8.75422 5.14772 6.70332 5.77772C6.60285 5.80854 6.49652 5.79741 6.40406 5.74628C6.38063 5.73331 6.35887 5.71827 6.33898 5.70135C6.2793 5.65061 6.23641 5.58307 6.21551 5.50549L6.17867 5.3685L6.14016 5.22518C6.2232 5.19612 6.30645 5.16792 6.3898 5.14065ZM7.69859 9.3378C7.05234 8.78139 6.67066 7.94768 6.65141 7.05053C6.64801 6.89096 6.51762 6.76335 6.35797 6.76335H6.10859C5.90684 6.76335 5.74277 6.59924 5.74277 6.39753V5.88839C5.74367 5.88995 5.74473 5.89147 5.74563 5.89303C5.75449 5.90846 5.76379 5.92358 5.77348 5.93846C5.77676 5.94346 5.78008 5.94842 5.78344 5.95339C5.79199 5.96604 5.80086 5.97846 5.81 5.99065C5.81301 5.99467 5.8159 5.99878 5.81898 6.00276C5.83098 6.01823 5.84336 6.03339 5.85629 6.04811C5.85926 6.05151 5.86238 6.05475 5.86539 6.05811C5.87582 6.06971 5.88652 6.08104 5.89758 6.09214C5.90191 6.09651 5.90629 6.10085 5.91074 6.10514C5.92254 6.11659 5.93461 6.12772 5.94699 6.13854C5.94973 6.14092 5.95234 6.14346 5.95512 6.14581C5.9702 6.1587 5.98574 6.17108 6.00164 6.18311C6.0059 6.18631 6.01023 6.18936 6.01453 6.19253C6.02711 6.20171 6.03988 6.21061 6.05297 6.21921C6.0577 6.22233 6.06242 6.22549 6.06723 6.22854C6.08445 6.23948 6.10195 6.25014 6.11996 6.2601C6.12078 6.26053 6.1216 6.26092 6.12242 6.26135C6.13828 6.27006 6.1543 6.27823 6.17047 6.286C6.17609 6.2887 6.18176 6.2912 6.18742 6.29378C6.19914 6.29917 6.21094 6.30432 6.22281 6.30921C6.22906 6.31178 6.23531 6.31428 6.2416 6.31674C6.25371 6.32143 6.26594 6.32585 6.27816 6.33003C6.28375 6.33194 6.2893 6.33397 6.29492 6.33577C6.3125 6.34143 6.33016 6.34671 6.34793 6.35131C6.35008 6.35186 6.35227 6.35229 6.35441 6.35284C6.37023 6.35686 6.38613 6.36042 6.40211 6.36362C6.4082 6.36483 6.4143 6.36585 6.42043 6.36694C6.43277 6.36917 6.44512 6.37116 6.4575 6.37288C6.4641 6.37382 6.47074 6.37467 6.47734 6.37546C6.49012 6.37698 6.50293 6.37815 6.51574 6.37913C6.52148 6.37956 6.52723 6.38014 6.53297 6.3805C6.55113 6.38155 6.5693 6.38221 6.58754 6.38221C6.58809 6.38221 6.58863 6.38225 6.58918 6.38225C6.59109 6.38225 6.59297 6.38206 6.59488 6.38202C6.61398 6.3819 6.63309 6.38112 6.65223 6.37987C6.65777 6.37952 6.66328 6.37913 6.66883 6.37866C6.68992 6.3769 6.71105 6.37467 6.73211 6.37151C6.73355 6.37128 6.735 6.37096 6.73645 6.37077C6.75617 6.36772 6.77586 6.36389 6.79551 6.3596C6.80137 6.35831 6.80723 6.35698 6.81309 6.35561C6.83301 6.35088 6.85289 6.34569 6.8727 6.33967C6.87367 6.3394 6.87465 6.33921 6.87563 6.33889C7.39391 6.17967 7.91402 6.06026 8.43508 5.98065C9.6725 5.79163 10.9151 5.82706 12.1505 6.08698C12.4756 6.15538 12.8002 6.23932 13.1242 6.33882C13.3782 6.41698 13.6467 6.38893 13.8798 6.26003C13.8978 6.2501 13.9152 6.23956 13.9323 6.22866C13.9373 6.22546 13.9423 6.22214 13.9473 6.21885C13.9601 6.21038 13.9727 6.20163 13.985 6.1926C13.9895 6.18936 13.9939 6.18624 13.9983 6.18296C14.0141 6.17096 14.0297 6.15858 14.0447 6.14573C14.0475 6.14338 14.05 6.14092 14.0527 6.13854C14.0652 6.12764 14.0773 6.11643 14.0892 6.10495C14.0936 6.10073 14.0979 6.09647 14.1021 6.09217C14.1133 6.08092 14.1242 6.0694 14.1348 6.05764C14.1376 6.05448 14.1406 6.05139 14.1434 6.04819C14.1564 6.03339 14.1689 6.01819 14.1809 6.0026C14.1839 5.9987 14.1867 5.99471 14.1896 5.99077C14.1988 5.9785 14.2077 5.966 14.2163 5.95331C14.2197 5.94835 14.223 5.94342 14.2263 5.93839C14.2359 5.92362 14.2451 5.90866 14.2539 5.89339C14.2549 5.89167 14.256 5.89007 14.257 5.88835V6.39749C14.257 6.59924 14.0929 6.76331 13.8912 6.76331H13.6418C13.4822 6.76331 13.3518 6.89092 13.3484 7.05049C13.3291 7.94764 12.9474 8.78135 12.3012 9.33776C12.137 9.47917 11.9663 9.60358 11.7898 9.71128C11.7888 9.71186 11.7877 9.71225 11.7868 9.71284C11.7595 9.72936 11.7321 9.74522 11.7046 9.76096C11.696 9.76589 11.6874 9.771 11.6788 9.77585C11.6498 9.79214 11.6206 9.80788 11.5913 9.82327C11.5834 9.82741 11.5754 9.83151 11.5675 9.83561C11.4338 9.90456 11.2969 9.96448 11.157 10.0151C11.1535 10.0163 11.15 10.0176 11.1465 10.0188C11.0412 10.0565 10.9341 10.089 10.8255 10.1162C10.8224 10.117 10.8193 10.1179 10.8162 10.1186C10.7852 10.1263 10.7539 10.1334 10.7226 10.1402C10.7095 10.1431 10.6964 10.1458 10.6833 10.1485C10.6545 10.1545 10.6257 10.1602 10.5968 10.1654C10.5788 10.1686 10.5607 10.1714 10.5426 10.1744C10.5029 10.1809 10.4629 10.1867 10.4228 10.1919C10.3955 10.1954 10.3682 10.1989 10.3407 10.2017C10.3209 10.2038 10.3011 10.2055 10.2812 10.2073C10.2517 10.2099 10.2221 10.2122 10.1923 10.2141C10.1752 10.2151 10.158 10.2163 10.1407 10.2172C10.0965 10.2194 10.052 10.221 10.0073 10.2216C10.0048 10.2216 10.0023 10.2218 9.99977 10.2218C9.99727 10.2217 9.99477 10.2216 9.99227 10.2216C9.94754 10.221 9.90309 10.2194 9.85879 10.2172C9.84152 10.2163 9.82438 10.2151 9.80719 10.2141C9.77746 10.2122 9.74785 10.2099 9.71832 10.2073C9.69848 10.2055 9.67863 10.2038 9.65887 10.2017C9.63137 10.1989 9.60406 10.1954 9.57676 10.1919C9.53664 10.1867 9.49668 10.1809 9.45691 10.1744C9.43887 10.1714 9.42074 10.1686 9.40273 10.1654C9.37379 10.1602 9.345 10.1544 9.31625 10.1485C9.30313 10.1458 9.29 10.1431 9.27695 10.1402C9.24563 10.1334 9.21438 10.1263 9.18328 10.1186C9.1802 10.1178 9.17715 10.117 9.17406 10.1162C9.06543 10.089 8.95836 10.0565 8.85301 10.0188C8.84949 10.0176 8.84602 10.0163 8.84254 10.0151C8.70262 9.96448 8.56574 9.90456 8.43203 9.83561C8.4241 9.83151 8.41617 9.82745 8.40828 9.82327C8.37898 9.80788 8.3498 9.79214 8.32078 9.77585C8.31215 9.771 8.30359 9.76592 8.29496 9.76096C8.26746 9.74522 8.24 9.72936 8.21277 9.71284C8.2118 9.71225 8.21074 9.71186 8.20977 9.71128C8.03344 9.60362 7.86281 9.47925 7.69859 9.3378ZM8.52004 14.1719C8.29227 14.2495 8.04262 14.1827 7.88406 14.0018L6.46801 12.3857L7.52523 12.056C7.52652 12.0557 7.52785 12.0561 7.52918 12.0559C7.5325 12.0554 7.53582 12.0548 7.53902 12.0555C7.53953 12.0557 7.54004 12.056 7.54055 12.0562C7.54344 12.057 7.54598 12.0587 7.54848 12.0605C7.54957 12.0612 7.5509 12.0614 7.55188 12.0623L7.55184 12.0623L9.44539 13.8567L8.52004 14.1719ZM10.6393 16.8201C10.6393 17.1527 10.3798 17.4326 10.0484 17.4573C9.89527 17.4688 9.7768 17.5964 9.7768 17.75V18.4738H9.36051V16.8411C9.36051 16.6634 9.43402 16.4894 9.56223 16.3636C9.68563 16.2426 9.84629 16.1773 10.0124 16.1808C10.3581 16.1874 10.6393 16.4742 10.6393 16.8201ZM9.62734 14.4148L9.99992 14.2879L10.3725 14.4148L9.99992 15.2015L9.62734 14.4148ZM9.99992 13.5735L8.0752 11.7494C8.24863 11.5147 8.35406 11.2169 8.35406 10.9311V10.4507C8.60992 10.5665 8.87547 10.6542 9.15004 10.7139C9.15094 10.7141 9.15188 10.7143 9.15277 10.7145C9.21094 10.7271 9.26953 10.7384 9.32856 10.7485C9.34898 10.752 9.36949 10.7553 9.39004 10.7585C9.41906 10.763 9.44809 10.7675 9.47731 10.7714C9.51688 10.7767 9.5566 10.7813 9.59645 10.7855C9.61426 10.7874 9.63207 10.7892 9.64996 10.7908C9.69895 10.7954 9.74813 10.7991 9.79758 10.8019C9.80863 10.8026 9.81973 10.803 9.83078 10.8035C9.88586 10.8063 9.94109 10.8083 9.99672 10.8089H9.99676C9.99785 10.8089 9.99895 10.8089 10 10.8089C10.0011 10.8089 10.0021 10.8089 10.0032 10.8089H10.0033C10.0589 10.8083 10.1141 10.8063 10.1692 10.8035C10.1803 10.803 10.1914 10.8026 10.2024 10.8019C10.2518 10.7991 10.3011 10.7954 10.35 10.7908C10.3679 10.7892 10.3857 10.7874 10.4036 10.7855C10.4434 10.7814 10.4832 10.7767 10.5227 10.7714C10.5519 10.7674 10.5809 10.763 10.61 10.7585C10.6305 10.7553 10.651 10.752 10.6714 10.7485C10.7304 10.7384 10.789 10.7271 10.8472 10.7145C10.8481 10.7143 10.849 10.7141 10.8499 10.7139C11.1245 10.6542 11.39 10.5665 11.6459 10.4507V10.9311C11.6459 11.2169 11.7513 11.5147 11.9248 11.7494L9.99992 13.5735ZM12.1158 14.0017C11.9572 14.1827 11.7078 14.2496 11.4798 14.1719L10.5545 13.8567L12.1225 12.3706L12.4479 12.0623C12.4484 12.0618 12.449 12.0617 12.4495 12.0614C12.4523 12.0591 12.4555 12.0574 12.4589 12.0564C12.4596 12.0561 12.4602 12.0557 12.4609 12.0555C12.4654 12.0545 12.4702 12.0546 12.4748 12.056L13.5319 12.3857L12.1158 14.0017Z" stroke="white" stroke-width="0.6" mask="url(#path-1-outside-1_8_445)"/>
</g>
<defs>
<clipPath id="clip0_8_445">
<rect width="20" height="20" fill="white"/>
</clipPath>
</defs>
</svg>
