<svg width="39" height="41" viewBox="0 0 39 41" fill="none" xmlns="http://www.w3.org/2000/svg">
<mask id="path-1-outside-1_428_2186" maskUnits="userSpaceOnUse" x="-0.146973" y="-1" width="39" height="43" fill="black">
<rect fill="white" x="-0.146973" y="-1" width="39" height="43"/>
<path d="M36.5071 28.8106C35.4354 27.378 33.9621 26.3532 32.2463 25.8469L24.9312 23.566C24.7989 23.5248 24.6629 23.5066 24.5283 23.5096C24.2592 23.2249 24.0771 22.7949 24.0771 22.4088V20.7578C24.3944 20.5469 24.703 20.3124 25.0027 20.0544C26.4425 18.8147 27.346 17.0217 27.533 15.0674C28.5842 15.0376 29.4303 14.1732 29.4303 13.1148V11.6171C29.4303 11.035 29.1726 10.4933 28.7387 10.1266V8.18892C28.7387 7.8566 28.4694 7.5873 28.1371 7.5873C27.8048 7.5873 27.5355 7.8566 27.5355 8.18892L27.5354 9.48114C27.485 9.46409 27.4344 9.44823 27.384 9.43149C27.3076 9.40611 27.2312 9.38097 27.1547 9.3563C27.0548 9.32419 26.955 9.29288 26.855 9.26205C26.7798 9.23883 26.7046 9.21544 26.6292 9.19294C26.5261 9.16211 26.4228 9.1324 26.3195 9.10285C26.2474 9.08227 26.1753 9.06121 26.1032 9.04127C25.9919 9.01052 25.8805 8.98122 25.769 8.95199C25.7048 8.93517 25.6406 8.91763 25.5764 8.9013C25.4344 8.86518 25.2922 8.83099 25.15 8.79744C25.1163 8.78951 25.0827 8.78078 25.049 8.77301C24.8733 8.73233 24.6975 8.69374 24.5216 8.6569C24.4682 8.64577 24.4148 8.63576 24.3614 8.62495C24.2382 8.60004 24.1151 8.57522 23.9918 8.55216C23.9236 8.53942 23.8554 8.52781 23.7872 8.51564C23.6784 8.49626 23.5697 8.47696 23.4609 8.45903C23.3875 8.44693 23.3141 8.4358 23.2405 8.42435C23.1365 8.40818 23.0326 8.39224 22.9285 8.37743C22.8531 8.3667 22.7776 8.35661 22.7021 8.34652C22.5996 8.3329 22.4972 8.31969 22.3947 8.30736C22.3184 8.29815 22.2422 8.28942 22.166 8.28093C22.0636 8.26956 21.9614 8.25899 21.859 8.24898C21.7832 8.24153 21.7074 8.23425 21.6316 8.22752C21.5277 8.21831 21.4237 8.21014 21.3198 8.20222C21.2458 8.19661 21.1719 8.19084 21.0979 8.18596C20.9898 8.17875 20.8817 8.17291 20.7736 8.16722C20.704 8.16354 20.6344 8.15937 20.5648 8.15625C20.4457 8.15096 20.3266 8.14736 20.2074 8.14384C20.149 8.14208 20.0905 8.13959 20.0321 8.13831C19.8546 8.13439 19.6771 8.13215 19.4997 8.13215C19.3223 8.13215 19.1449 8.13439 18.9675 8.13831C18.9089 8.13959 18.8503 8.14216 18.7916 8.14384C18.6727 8.14736 18.5537 8.15096 18.4348 8.15625C18.365 8.15937 18.2951 8.16354 18.2253 8.16722C18.1174 8.17291 18.0096 8.17875 17.9017 8.18596C17.8277 8.19092 17.7536 8.19669 17.6795 8.2023C17.5757 8.21014 17.4719 8.21831 17.3681 8.22752C17.2921 8.23425 17.2161 8.24161 17.1401 8.24906C17.038 8.25907 16.936 8.26964 16.8339 8.28093C16.7573 8.28942 16.6808 8.29823 16.6043 8.30744C16.5023 8.31969 16.4003 8.33282 16.2983 8.34636C16.2223 8.35645 16.1464 8.36662 16.0706 8.37743C15.967 8.39224 15.8633 8.4081 15.7598 8.42419C15.686 8.43564 15.6121 8.44685 15.5383 8.45903C15.4302 8.47688 15.3221 8.49602 15.2141 8.51532C15.1451 8.52765 15.0762 8.53934 15.0073 8.55224C14.8851 8.57506 14.7631 8.59964 14.641 8.62439C14.5867 8.63544 14.5322 8.64561 14.4778 8.65698C14.3021 8.69374 14.1266 8.73233 13.9512 8.77293C13.9154 8.78118 13.8797 8.79039 13.844 8.79888C13.7039 8.83195 13.5638 8.86566 13.4239 8.90122C13.3582 8.91787 13.2926 8.93581 13.2269 8.95303C13.1171 8.98186 13.0072 9.01068 12.8974 9.04103C12.8239 9.06137 12.7505 9.08275 12.677 9.10382C12.5753 9.13296 12.4736 9.16211 12.3719 9.19254C12.2951 9.21552 12.2184 9.23931 12.1416 9.26301C12.0434 9.29336 11.9452 9.32411 11.8472 9.35566C11.769 9.38089 11.6908 9.40659 11.6127 9.43254C11.5632 9.44895 11.5137 9.46449 11.4643 9.48122V5.37386C11.4643 3.9435 12.436 2.71318 13.8274 2.38198L18.2196 1.33648C18.9535 1.16183 19.7301 1.15854 20.4654 1.32727L25.1474 2.40104C26.5534 2.72351 27.5354 3.95615 27.5354 5.39852C27.5354 5.73084 27.8047 6.00015 28.137 6.00015C28.4693 6.00015 28.7386 5.73084 28.7386 5.39852C28.7386 3.3916 27.3724 1.67673 25.4163 1.22805L20.7343 0.154364C19.8196 -0.055281 18.8536 -0.0513572 17.9409 0.165975L13.5488 1.21147C11.6129 1.67224 10.2608 3.38391 10.2608 5.37394L10.261 10.1266C9.82706 10.4933 9.56929 11.035 9.56929 11.6171V13.1149C9.56929 14.1732 10.4153 15.0377 11.4666 15.0675C11.6535 17.0218 12.5571 18.8148 13.9969 20.0545C14.2965 20.3125 14.6052 20.547 14.9224 20.7579V22.409C14.9224 22.7951 14.7404 23.225 14.4714 23.5098C14.3367 23.5067 14.2007 23.5248 14.0684 23.5662L6.75334 25.847C5.03751 26.3534 3.56431 27.378 2.49255 28.8108C1.41998 30.2448 0.853027 31.9492 0.853027 33.74V34.1886C0.853027 34.5209 1.12233 34.7902 1.45465 34.7902C1.78698 34.7902 2.05628 34.5209 2.05628 34.1886V33.74C2.05628 32.2111 2.54035 30.7558 3.45613 29.5316C4.37198 28.3073 5.63121 27.4319 7.09784 27.0001C7.10088 26.9992 7.10393 26.9983 7.10697 26.9974L11.0027 25.7826L14.2572 29.4969C14.7255 30.0314 15.3884 30.322 16.0713 30.322C16.3325 30.322 16.5968 30.2794 16.854 30.1917L17.5895 29.9412L18.6258 32.1294C18.3075 32.2507 18.0133 32.4381 17.7597 32.6868C17.2678 33.1695 16.9856 33.8394 16.9856 34.5245V38.1985C16.9856 38.6817 17.3787 39.0748 17.8619 39.0748H19.3694C19.8525 39.0748 20.2456 38.6817 20.2456 38.1985V36.8815C21.2719 36.5607 22.0138 35.5963 22.0138 34.4814C22.0138 33.4113 21.329 32.4855 20.375 32.1265L21.41 29.941L22.1454 30.1916C22.4028 30.2793 22.6669 30.3218 22.9282 30.3218C23.6111 30.3218 24.274 30.0311 24.7423 29.4967L27.9968 25.7825L31.8925 26.9972C31.8956 26.9982 31.8986 26.999 31.9016 26.9999C33.3683 27.4317 34.6276 28.3071 35.5433 29.5314C36.4591 30.7557 36.9432 32.2109 36.9432 33.7398V38.889C36.9432 39.3894 36.536 39.7967 36.0354 39.7967H33.017V34.0356C33.017 33.7033 32.7477 33.434 32.4154 33.434C32.0831 33.434 31.8138 33.7033 31.8138 34.0356V39.7966H7.18569V34.0356C7.18569 33.7033 6.91638 33.434 6.58406 33.434C6.25173 33.434 5.98243 33.7033 5.98243 34.0356V39.7966H2.96405C2.46356 39.7966 2.05628 39.3894 2.05628 38.8889V36.9878C2.05628 36.6555 1.78698 36.3862 1.45465 36.3862C1.12233 36.3862 0.853027 36.6555 0.853027 36.9878V38.8889C0.853027 40.053 1.80003 41 2.96413 41H36.0357C37.1998 41 38.1468 40.053 38.1468 38.8889V33.7398C38.1466 31.9491 37.5797 30.2446 36.5071 28.8106ZM12.099 10.5383C12.1484 10.5222 12.198 10.5071 12.2475 10.4912C12.3667 10.4531 12.4858 10.415 12.6051 10.3787C12.6685 10.3594 12.7321 10.3413 12.7955 10.3226C12.9013 10.2913 13.0072 10.26 13.1132 10.2302C13.1823 10.2107 13.2515 10.1924 13.3207 10.1737C13.4212 10.1464 13.5216 10.119 13.6222 10.0931C13.6947 10.0744 13.7673 10.0566 13.8399 10.0386C13.9374 10.0143 14.0348 9.9902 14.1325 9.96722C14.207 9.94968 14.2816 9.93286 14.3563 9.91605C14.452 9.89443 14.5477 9.87313 14.6435 9.85271C14.7194 9.83653 14.7954 9.82099 14.8714 9.80562C14.9663 9.7864 15.0611 9.76758 15.156 9.74957C15.2326 9.73499 15.3092 9.7209 15.3858 9.70712C15.4803 9.69007 15.5749 9.67365 15.6695 9.6578C15.7464 9.6449 15.8232 9.63233 15.9 9.62016C15.9948 9.60526 16.0895 9.59109 16.1842 9.57732C16.2609 9.56619 16.3376 9.55521 16.4143 9.54481C16.5097 9.53191 16.6052 9.51998 16.7006 9.50829C16.7766 9.499 16.8526 9.48955 16.9285 9.48106C17.0254 9.47017 17.1222 9.46048 17.219 9.45079C17.2935 9.44335 17.3682 9.43558 17.4428 9.42885C17.5421 9.41988 17.6414 9.41236 17.7407 9.40467C17.8129 9.39914 17.8851 9.39306 17.9572 9.38817C18.0612 9.38113 18.165 9.37568 18.269 9.37008C18.3365 9.36647 18.404 9.36207 18.4714 9.35902C18.5862 9.35382 18.7012 9.35046 18.816 9.34701C18.8726 9.34533 18.9292 9.34277 18.9858 9.34149C19.1571 9.33764 19.3285 9.33548 19.4997 9.33548C19.5001 9.33548 19.5005 9.33548 19.5009 9.33548C19.6718 9.33548 19.8428 9.33756 20.0137 9.34141C20.0707 9.34269 20.1277 9.34525 20.1847 9.34701C20.299 9.35046 20.4132 9.35382 20.5275 9.35894C20.5961 9.36207 20.6647 9.36647 20.7333 9.37015C20.8361 9.37568 20.9389 9.38113 21.0418 9.38801C21.115 9.39298 21.1881 9.39906 21.2613 9.40475C21.3595 9.41228 21.4577 9.4198 21.5558 9.42861C21.6315 9.43542 21.7072 9.44327 21.783 9.45087C21.8787 9.4604 21.9744 9.47001 22.07 9.48082C22.147 9.48947 22.224 9.499 22.301 9.50845C22.3953 9.51998 22.4897 9.53175 22.5839 9.54449C22.6617 9.55498 22.7397 9.56619 22.8175 9.57748C22.9109 9.59101 23.0045 9.60502 23.0979 9.61976C23.176 9.63201 23.254 9.64482 23.332 9.65788C23.4253 9.67349 23.5186 9.68975 23.6119 9.70656C23.6899 9.72058 23.7678 9.73499 23.8457 9.74981C23.9391 9.76758 24.0324 9.78608 24.1257 9.80498C24.2032 9.82067 24.2806 9.83653 24.358 9.85295C24.4521 9.87304 24.5463 9.89395 24.6404 9.91517C24.7167 9.93238 24.7929 9.94952 24.8692 9.96746C24.9646 9.98996 25.06 10.0135 25.1553 10.0372C25.23 10.0558 25.3048 10.0741 25.3794 10.0934C25.4772 10.1187 25.5749 10.1452 25.6725 10.1717C25.7445 10.1913 25.8165 10.2104 25.8885 10.2306C25.9907 10.2593 26.0929 10.2896 26.1951 10.3198C26.2622 10.3396 26.3294 10.3588 26.3964 10.3791C26.5093 10.4135 26.6222 10.4496 26.7349 10.4856C26.7909 10.5036 26.8469 10.5206 26.9029 10.5389C27.0595 10.5901 27.2158 10.6432 27.3719 10.6977C27.3839 10.7019 27.396 10.7058 27.4081 10.7099C27.4097 10.7105 27.4112 10.7111 27.4127 10.7116L27.2581 11.2863C27.201 11.4983 27.0639 11.6737 26.8717 11.7799C26.682 11.8847 26.4642 11.9075 26.2581 11.8443C25.9778 11.7582 25.6973 11.6775 25.4165 11.6022C21.2055 10.4722 16.9461 10.5528 12.7417 11.8443C12.5358 11.9075 12.3178 11.8847 12.1283 11.7799C12.0802 11.7533 12.0356 11.7225 11.9949 11.6878C11.8725 11.5838 11.7846 11.4453 11.7417 11.2863L11.6662 11.0054L11.5873 10.7116C11.7575 10.652 11.9282 10.5942 12.099 10.5383ZM14.7821 19.1425C13.4572 18.0019 12.6748 16.2927 12.6353 14.4536C12.6284 14.1265 12.3611 13.8649 12.0338 13.8649H11.5226C11.109 13.8649 10.7726 13.5285 10.7726 13.1149V12.0712C10.7745 12.0744 10.7766 12.0775 10.7785 12.0807C10.7966 12.1124 10.8157 12.1433 10.8356 12.1738C10.8423 12.1841 10.8491 12.1943 10.856 12.2044C10.8735 12.2304 10.8917 12.2558 10.9104 12.2808C10.9166 12.2891 10.9225 12.2975 10.9289 12.3057C10.9534 12.3374 10.9788 12.3684 11.0053 12.3986C11.0114 12.4056 11.0178 12.4122 11.024 12.4191C11.0454 12.4429 11.0673 12.4661 11.09 12.4889C11.0989 12.4978 11.1078 12.5067 11.117 12.5155C11.1411 12.539 11.1659 12.5618 11.1913 12.584C11.1969 12.5889 11.2022 12.5941 11.2079 12.5989C11.2388 12.6253 11.2707 12.6507 11.3033 12.6754C11.312 12.6819 11.3209 12.6882 11.3297 12.6947C11.3555 12.7135 11.3817 12.7318 11.4085 12.7494C11.4182 12.7558 11.4279 12.7623 11.4378 12.7685C11.4731 12.7909 11.5089 12.8128 11.5459 12.8332C11.5475 12.8341 11.5492 12.8349 11.5509 12.8358C11.5834 12.8536 11.6162 12.8704 11.6494 12.8863C11.6609 12.8918 11.6725 12.897 11.6842 12.9022C11.7082 12.9133 11.7324 12.9239 11.7567 12.9339C11.7695 12.9392 11.7823 12.9443 11.7952 12.9493C11.82 12.9589 11.8451 12.968 11.8702 12.9766C11.8816 12.9805 11.893 12.9846 11.9045 12.9883C11.9406 12.9999 11.9768 13.0107 12.0132 13.0202C12.0176 13.0213 12.0221 13.0222 12.0265 13.0233C12.0589 13.0316 12.0915 13.0389 12.1243 13.0454C12.1368 13.0479 12.1492 13.05 12.1618 13.0522C12.1871 13.0568 12.2124 13.0609 12.2378 13.0644C12.2513 13.0663 12.265 13.0681 12.2785 13.0697C12.3047 13.0728 12.3309 13.0752 12.3572 13.0772C12.369 13.0781 12.3808 13.0793 12.3925 13.08C12.4298 13.0822 12.467 13.0835 12.5044 13.0835C12.5055 13.0835 12.5066 13.0836 12.5078 13.0836C12.5117 13.0836 12.5155 13.0832 12.5194 13.0831C12.5586 13.0829 12.5978 13.0813 12.637 13.0787C12.6484 13.078 12.6597 13.0772 12.671 13.0763C12.7143 13.0726 12.7576 13.0681 12.8008 13.0616C12.8037 13.0611 12.8067 13.0605 12.8097 13.0601C12.8501 13.0538 12.8904 13.046 12.9307 13.0372C12.9427 13.0345 12.9548 13.0318 12.9668 13.029C13.0076 13.0193 13.0484 13.0087 13.089 12.9963C13.091 12.9958 13.093 12.9954 13.095 12.9947C14.1574 12.6683 15.2237 12.4235 16.2918 12.2603C18.8286 11.8728 21.3758 11.9455 23.9085 12.4783C24.575 12.6185 25.2404 12.7906 25.9045 12.9946C26.4253 13.1548 26.9756 13.0973 27.4536 12.8331C27.4904 12.8127 27.526 12.7911 27.5612 12.7688C27.5715 12.7622 27.5817 12.7554 27.5918 12.7487C27.6181 12.7313 27.644 12.7133 27.6693 12.6948C27.6783 12.6882 27.6875 12.6818 27.6964 12.6751C27.7289 12.6505 27.7608 12.6251 27.7916 12.5987C27.7972 12.5939 27.8025 12.5889 27.808 12.584C27.8336 12.5617 27.8585 12.5387 27.8828 12.5151C27.8917 12.5065 27.9005 12.4978 27.9093 12.489C27.9322 12.4659 27.9545 12.4423 27.9762 12.4182C27.9821 12.4117 27.9881 12.4054 27.9939 12.3988C28.0205 12.3684 28.0461 12.3373 28.0707 12.3053C28.0769 12.2973 28.0827 12.2892 28.0887 12.2811C28.1075 12.2559 28.1258 12.2303 28.1434 12.2043C28.1503 12.1941 28.1571 12.184 28.1638 12.1737C28.1834 12.1434 28.2024 12.1128 28.2204 12.0814C28.2224 12.0779 28.2248 12.0746 28.2268 12.0711V13.1148C28.2268 13.5285 27.8904 13.8648 27.4768 13.8648H26.9656C26.6384 13.8648 26.3711 14.1264 26.3641 14.4535C26.3246 16.2927 25.5422 18.0018 24.2173 19.1424C23.8807 19.4323 23.5308 19.6873 23.169 19.9081C23.167 19.9093 23.1648 19.9101 23.1628 19.9113C23.107 19.9452 23.0507 19.9777 22.9943 20.01C22.9767 20.0201 22.9591 20.0306 22.9414 20.0405C22.882 20.0739 22.8221 20.1061 22.762 20.1377C22.7458 20.1462 22.7296 20.1546 22.7133 20.163C22.4392 20.3043 22.1586 20.4272 21.8718 20.5309C21.8646 20.5334 21.8574 20.536 21.8503 20.5386C21.6343 20.6158 21.4148 20.6825 21.1921 20.7383C21.1858 20.7399 21.1796 20.7416 21.1732 20.7432C21.1096 20.7589 21.0454 20.7734 20.9812 20.7875C20.9544 20.7933 20.9276 20.799 20.9007 20.8045C20.8417 20.8167 20.7827 20.8285 20.7234 20.8391C20.6865 20.8457 20.6494 20.8514 20.6123 20.8574C20.5308 20.8708 20.4489 20.8827 20.3666 20.8934C20.3106 20.9006 20.2547 20.9077 20.1983 20.9136C20.1578 20.9178 20.1171 20.9213 20.0764 20.9249C20.0159 20.9302 19.9552 20.935 19.8942 20.9388C19.859 20.941 19.8238 20.9434 19.7885 20.9452C19.6977 20.9497 19.6066 20.953 19.5148 20.9543C19.5097 20.9543 19.5046 20.9547 19.4995 20.9547C19.4943 20.9546 19.4892 20.9543 19.4841 20.9543C19.3924 20.953 19.3013 20.9497 19.2105 20.9452C19.1751 20.9434 19.1399 20.941 19.1047 20.9388C19.0437 20.935 18.983 20.9302 18.9225 20.9249C18.8818 20.9213 18.8411 20.9178 18.8006 20.9136C18.7442 20.9077 18.6883 20.9005 18.6323 20.8934C18.5501 20.8828 18.4681 20.8708 18.3866 20.8574C18.3496 20.8514 18.3125 20.8457 18.2755 20.8391C18.2162 20.8284 18.1572 20.8166 18.0982 20.8045C18.0713 20.799 18.0444 20.7933 18.0177 20.7875C17.9535 20.7734 17.8894 20.7589 17.8257 20.7432C17.8193 20.7416 17.8131 20.7399 17.8068 20.7383C17.5841 20.6824 17.3646 20.6158 17.1486 20.5386C17.1414 20.536 17.1343 20.5334 17.1271 20.5309C16.8403 20.4272 16.5597 20.3043 16.2856 20.163C16.2693 20.1546 16.2531 20.1463 16.2369 20.1377C16.1769 20.1061 16.117 20.0739 16.0575 20.0405C16.0398 20.0306 16.0223 20.0201 16.0046 20.01C15.9482 19.9777 15.8919 19.9452 15.8361 19.9113C15.8341 19.9101 15.832 19.9093 15.83 19.9081C15.4685 19.6874 15.1187 19.4325 14.7821 19.1425ZM16.466 29.0524C15.9991 29.2115 15.4873 29.0746 15.1623 28.7037L12.2594 25.3907L14.4267 24.7149C14.4293 24.7141 14.432 24.715 14.4348 24.7146C14.4416 24.7135 14.4484 24.7124 14.4549 24.7138C14.456 24.7142 14.457 24.7148 14.4581 24.7152C14.464 24.7169 14.4692 24.7203 14.4743 24.7239C14.4766 24.7255 14.4793 24.7258 14.4813 24.7277L14.4812 24.7276L18.363 28.4063L16.466 29.0524ZM20.8105 34.4812C20.8105 35.1631 20.2785 35.7368 19.5992 35.7875C19.2852 35.811 19.0424 36.0726 19.0424 36.3876V37.8712H18.189V34.5242C18.189 34.16 18.3397 33.8033 18.6025 33.5454C18.8555 33.2973 19.1848 33.1634 19.5253 33.1707C20.234 33.1841 20.8105 33.772 20.8105 34.4812ZM18.736 29.5504L19.4998 29.2901L20.2636 29.5503L19.4998 31.1632L18.736 29.5504ZM19.4998 27.8256L15.5541 24.0864C15.9096 23.6051 16.1258 22.9947 16.1258 22.4088V21.4239C16.6503 21.6613 17.1946 21.8412 17.7575 21.9635C17.7594 21.9639 17.7613 21.9643 17.7631 21.9647C17.8824 21.9905 18.0025 22.0138 18.1235 22.0344C18.1654 22.0416 18.2074 22.0484 18.2495 22.055C18.309 22.0642 18.3685 22.0733 18.4284 22.0813C18.5095 22.0922 18.591 22.1017 18.6727 22.1103C18.7092 22.1141 18.7457 22.1179 18.7824 22.1212C18.8828 22.1305 18.9836 22.1381 19.085 22.144C19.1076 22.1453 19.1304 22.1461 19.153 22.1473C19.2659 22.1529 19.3792 22.1569 19.4932 22.1582H19.4933C19.4955 22.1582 19.4978 22.1582 19.4999 22.1582C19.5022 22.1582 19.5043 22.1582 19.5066 22.1582H19.5067C19.6206 22.1569 19.7339 22.1529 19.8468 22.1473C19.8695 22.1461 19.8922 22.1453 19.9149 22.144C20.0162 22.1382 20.1171 22.1305 20.2175 22.1212C20.2542 22.1179 20.2907 22.1141 20.3272 22.1103C20.409 22.1018 20.4904 22.0922 20.5715 22.0813C20.6314 22.0733 20.6909 22.0642 20.7504 22.055C20.7925 22.0484 20.8344 22.0416 20.8763 22.0344C20.9972 22.0137 21.1174 21.9905 21.2367 21.9647C21.2385 21.9643 21.2404 21.9639 21.2423 21.9635C21.8051 21.8412 22.3495 21.6613 22.874 21.4239V22.4088C22.874 22.9947 23.0902 23.6051 23.4457 24.0864L19.4998 27.8256ZM23.8374 28.7035C23.5123 29.0746 23.0009 29.2116 22.5335 29.0523L20.6366 28.4062L23.8511 25.3598L24.5182 24.7276C24.5192 24.7267 24.5204 24.7266 24.5215 24.7259C24.5272 24.7211 24.5336 24.7177 24.5406 24.7155C24.5421 24.715 24.5433 24.7142 24.5448 24.7138C24.554 24.7118 24.5638 24.7119 24.5732 24.7149L26.7404 25.3906L23.8374 28.7035Z"/>
</mask>
<path d="M36.5071 28.8106C35.4354 27.378 33.9621 26.3532 32.2463 25.8469L24.9312 23.566C24.7989 23.5248 24.6629 23.5066 24.5283 23.5096C24.2592 23.2249 24.0771 22.7949 24.0771 22.4088V20.7578C24.3944 20.5469 24.703 20.3124 25.0027 20.0544C26.4425 18.8147 27.346 17.0217 27.533 15.0674C28.5842 15.0376 29.4303 14.1732 29.4303 13.1148V11.6171C29.4303 11.035 29.1726 10.4933 28.7387 10.1266V8.18892C28.7387 7.8566 28.4694 7.5873 28.1371 7.5873C27.8048 7.5873 27.5355 7.8566 27.5355 8.18892L27.5354 9.48114C27.485 9.46409 27.4344 9.44823 27.384 9.43149C27.3076 9.40611 27.2312 9.38097 27.1547 9.3563C27.0548 9.32419 26.955 9.29288 26.855 9.26205C26.7798 9.23883 26.7046 9.21544 26.6292 9.19294C26.5261 9.16211 26.4228 9.1324 26.3195 9.10285C26.2474 9.08227 26.1753 9.06121 26.1032 9.04127C25.9919 9.01052 25.8805 8.98122 25.769 8.95199C25.7048 8.93517 25.6406 8.91763 25.5764 8.9013C25.4344 8.86518 25.2922 8.83099 25.15 8.79744C25.1163 8.78951 25.0827 8.78078 25.049 8.77301C24.8733 8.73233 24.6975 8.69374 24.5216 8.6569C24.4682 8.64577 24.4148 8.63576 24.3614 8.62495C24.2382 8.60004 24.1151 8.57522 23.9918 8.55216C23.9236 8.53942 23.8554 8.52781 23.7872 8.51564C23.6784 8.49626 23.5697 8.47696 23.4609 8.45903C23.3875 8.44693 23.3141 8.4358 23.2405 8.42435C23.1365 8.40818 23.0326 8.39224 22.9285 8.37743C22.8531 8.3667 22.7776 8.35661 22.7021 8.34652C22.5996 8.3329 22.4972 8.31969 22.3947 8.30736C22.3184 8.29815 22.2422 8.28942 22.166 8.28093C22.0636 8.26956 21.9614 8.25899 21.859 8.24898C21.7832 8.24153 21.7074 8.23425 21.6316 8.22752C21.5277 8.21831 21.4237 8.21014 21.3198 8.20222C21.2458 8.19661 21.1719 8.19084 21.0979 8.18596C20.9898 8.17875 20.8817 8.17291 20.7736 8.16722C20.704 8.16354 20.6344 8.15937 20.5648 8.15625C20.4457 8.15096 20.3266 8.14736 20.2074 8.14384C20.149 8.14208 20.0905 8.13959 20.0321 8.13831C19.8546 8.13439 19.6771 8.13215 19.4997 8.13215C19.3223 8.13215 19.1449 8.13439 18.9675 8.13831C18.9089 8.13959 18.8503 8.14216 18.7916 8.14384C18.6727 8.14736 18.5537 8.15096 18.4348 8.15625C18.365 8.15937 18.2951 8.16354 18.2253 8.16722C18.1174 8.17291 18.0096 8.17875 17.9017 8.18596C17.8277 8.19092 17.7536 8.19669 17.6795 8.2023C17.5757 8.21014 17.4719 8.21831 17.3681 8.22752C17.2921 8.23425 17.2161 8.24161 17.1401 8.24906C17.038 8.25907 16.936 8.26964 16.8339 8.28093C16.7573 8.28942 16.6808 8.29823 16.6043 8.30744C16.5023 8.31969 16.4003 8.33282 16.2983 8.34636C16.2223 8.35645 16.1464 8.36662 16.0706 8.37743C15.967 8.39224 15.8633 8.4081 15.7598 8.42419C15.686 8.43564 15.6121 8.44685 15.5383 8.45903C15.4302 8.47688 15.3221 8.49602 15.2141 8.51532C15.1451 8.52765 15.0762 8.53934 15.0073 8.55224C14.8851 8.57506 14.7631 8.59964 14.641 8.62439C14.5867 8.63544 14.5322 8.64561 14.4778 8.65698C14.3021 8.69374 14.1266 8.73233 13.9512 8.77293C13.9154 8.78118 13.8797 8.79039 13.844 8.79888C13.7039 8.83195 13.5638 8.86566 13.4239 8.90122C13.3582 8.91787 13.2926 8.93581 13.2269 8.95303C13.1171 8.98186 13.0072 9.01068 12.8974 9.04103C12.8239 9.06137 12.7505 9.08275 12.677 9.10382C12.5753 9.13296 12.4736 9.16211 12.3719 9.19254C12.2951 9.21552 12.2184 9.23931 12.1416 9.26301C12.0434 9.29336 11.9452 9.32411 11.8472 9.35566C11.769 9.38089 11.6908 9.40659 11.6127 9.43254C11.5632 9.44895 11.5137 9.46449 11.4643 9.48122V5.37386C11.4643 3.9435 12.436 2.71318 13.8274 2.38198L18.2196 1.33648C18.9535 1.16183 19.7301 1.15854 20.4654 1.32727L25.1474 2.40104C26.5534 2.72351 27.5354 3.95615 27.5354 5.39852C27.5354 5.73084 27.8047 6.00015 28.137 6.00015C28.4693 6.00015 28.7386 5.73084 28.7386 5.39852C28.7386 3.3916 27.3724 1.67673 25.4163 1.22805L20.7343 0.154364C19.8196 -0.055281 18.8536 -0.0513572 17.9409 0.165975L13.5488 1.21147C11.6129 1.67224 10.2608 3.38391 10.2608 5.37394L10.261 10.1266C9.82706 10.4933 9.56929 11.035 9.56929 11.6171V13.1149C9.56929 14.1732 10.4153 15.0377 11.4666 15.0675C11.6535 17.0218 12.5571 18.8148 13.9969 20.0545C14.2965 20.3125 14.6052 20.547 14.9224 20.7579V22.409C14.9224 22.7951 14.7404 23.225 14.4714 23.5098C14.3367 23.5067 14.2007 23.5248 14.0684 23.5662L6.75334 25.847C5.03751 26.3534 3.56431 27.378 2.49255 28.8108C1.41998 30.2448 0.853027 31.9492 0.853027 33.74V34.1886C0.853027 34.5209 1.12233 34.7902 1.45465 34.7902C1.78698 34.7902 2.05628 34.5209 2.05628 34.1886V33.74C2.05628 32.2111 2.54035 30.7558 3.45613 29.5316C4.37198 28.3073 5.63121 27.4319 7.09784 27.0001C7.10088 26.9992 7.10393 26.9983 7.10697 26.9974L11.0027 25.7826L14.2572 29.4969C14.7255 30.0314 15.3884 30.322 16.0713 30.322C16.3325 30.322 16.5968 30.2794 16.854 30.1917L17.5895 29.9412L18.6258 32.1294C18.3075 32.2507 18.0133 32.4381 17.7597 32.6868C17.2678 33.1695 16.9856 33.8394 16.9856 34.5245V38.1985C16.9856 38.6817 17.3787 39.0748 17.8619 39.0748H19.3694C19.8525 39.0748 20.2456 38.6817 20.2456 38.1985V36.8815C21.2719 36.5607 22.0138 35.5963 22.0138 34.4814C22.0138 33.4113 21.329 32.4855 20.375 32.1265L21.41 29.941L22.1454 30.1916C22.4028 30.2793 22.6669 30.3218 22.9282 30.3218C23.6111 30.3218 24.274 30.0311 24.7423 29.4967L27.9968 25.7825L31.8925 26.9972C31.8956 26.9982 31.8986 26.999 31.9016 26.9999C33.3683 27.4317 34.6276 28.3071 35.5433 29.5314C36.4591 30.7557 36.9432 32.2109 36.9432 33.7398V38.889C36.9432 39.3894 36.536 39.7967 36.0354 39.7967H33.017V34.0356C33.017 33.7033 32.7477 33.434 32.4154 33.434C32.0831 33.434 31.8138 33.7033 31.8138 34.0356V39.7966H7.18569V34.0356C7.18569 33.7033 6.91638 33.434 6.58406 33.434C6.25173 33.434 5.98243 33.7033 5.98243 34.0356V39.7966H2.96405C2.46356 39.7966 2.05628 39.3894 2.05628 38.8889V36.9878C2.05628 36.6555 1.78698 36.3862 1.45465 36.3862C1.12233 36.3862 0.853027 36.6555 0.853027 36.9878V38.8889C0.853027 40.053 1.80003 41 2.96413 41H36.0357C37.1998 41 38.1468 40.053 38.1468 38.8889V33.7398C38.1466 31.9491 37.5797 30.2446 36.5071 28.8106ZM12.099 10.5383C12.1484 10.5222 12.198 10.5071 12.2475 10.4912C12.3667 10.4531 12.4858 10.415 12.6051 10.3787C12.6685 10.3594 12.7321 10.3413 12.7955 10.3226C12.9013 10.2913 13.0072 10.26 13.1132 10.2302C13.1823 10.2107 13.2515 10.1924 13.3207 10.1737C13.4212 10.1464 13.5216 10.119 13.6222 10.0931C13.6947 10.0744 13.7673 10.0566 13.8399 10.0386C13.9374 10.0143 14.0348 9.9902 14.1325 9.96722C14.207 9.94968 14.2816 9.93286 14.3563 9.91605C14.452 9.89443 14.5477 9.87313 14.6435 9.85271C14.7194 9.83653 14.7954 9.82099 14.8714 9.80562C14.9663 9.7864 15.0611 9.76758 15.156 9.74957C15.2326 9.73499 15.3092 9.7209 15.3858 9.70712C15.4803 9.69007 15.5749 9.67365 15.6695 9.6578C15.7464 9.6449 15.8232 9.63233 15.9 9.62016C15.9948 9.60526 16.0895 9.59109 16.1842 9.57732C16.2609 9.56619 16.3376 9.55521 16.4143 9.54481C16.5097 9.53191 16.6052 9.51998 16.7006 9.50829C16.7766 9.499 16.8526 9.48955 16.9285 9.48106C17.0254 9.47017 17.1222 9.46048 17.219 9.45079C17.2935 9.44335 17.3682 9.43558 17.4428 9.42885C17.5421 9.41988 17.6414 9.41236 17.7407 9.40467C17.8129 9.39914 17.8851 9.39306 17.9572 9.38817C18.0612 9.38113 18.165 9.37568 18.269 9.37008C18.3365 9.36647 18.404 9.36207 18.4714 9.35902C18.5862 9.35382 18.7012 9.35046 18.816 9.34701C18.8726 9.34533 18.9292 9.34277 18.9858 9.34149C19.1571 9.33764 19.3285 9.33548 19.4997 9.33548C19.5001 9.33548 19.5005 9.33548 19.5009 9.33548C19.6718 9.33548 19.8428 9.33756 20.0137 9.34141C20.0707 9.34269 20.1277 9.34525 20.1847 9.34701C20.299 9.35046 20.4132 9.35382 20.5275 9.35894C20.5961 9.36207 20.6647 9.36647 20.7333 9.37015C20.8361 9.37568 20.9389 9.38113 21.0418 9.38801C21.115 9.39298 21.1881 9.39906 21.2613 9.40475C21.3595 9.41228 21.4577 9.4198 21.5558 9.42861C21.6315 9.43542 21.7072 9.44327 21.783 9.45087C21.8787 9.4604 21.9744 9.47001 22.07 9.48082C22.147 9.48947 22.224 9.499 22.301 9.50845C22.3953 9.51998 22.4897 9.53175 22.5839 9.54449C22.6617 9.55498 22.7397 9.56619 22.8175 9.57748C22.9109 9.59101 23.0045 9.60502 23.0979 9.61976C23.176 9.63201 23.254 9.64482 23.332 9.65788C23.4253 9.67349 23.5186 9.68975 23.6119 9.70656C23.6899 9.72058 23.7678 9.73499 23.8457 9.74981C23.9391 9.76758 24.0324 9.78608 24.1257 9.80498C24.2032 9.82067 24.2806 9.83653 24.358 9.85295C24.4521 9.87304 24.5463 9.89395 24.6404 9.91517C24.7167 9.93238 24.7929 9.94952 24.8692 9.96746C24.9646 9.98996 25.06 10.0135 25.1553 10.0372C25.23 10.0558 25.3048 10.0741 25.3794 10.0934C25.4772 10.1187 25.5749 10.1452 25.6725 10.1717C25.7445 10.1913 25.8165 10.2104 25.8885 10.2306C25.9907 10.2593 26.0929 10.2896 26.1951 10.3198C26.2622 10.3396 26.3294 10.3588 26.3964 10.3791C26.5093 10.4135 26.6222 10.4496 26.7349 10.4856C26.7909 10.5036 26.8469 10.5206 26.9029 10.5389C27.0595 10.5901 27.2158 10.6432 27.3719 10.6977C27.3839 10.7019 27.396 10.7058 27.4081 10.7099C27.4097 10.7105 27.4112 10.7111 27.4127 10.7116L27.2581 11.2863C27.201 11.4983 27.0639 11.6737 26.8717 11.7799C26.682 11.8847 26.4642 11.9075 26.2581 11.8443C25.9778 11.7582 25.6973 11.6775 25.4165 11.6022C21.2055 10.4722 16.9461 10.5528 12.7417 11.8443C12.5358 11.9075 12.3178 11.8847 12.1283 11.7799C12.0802 11.7533 12.0356 11.7225 11.9949 11.6878C11.8725 11.5838 11.7846 11.4453 11.7417 11.2863L11.6662 11.0054L11.5873 10.7116C11.7575 10.652 11.9282 10.5942 12.099 10.5383ZM14.7821 19.1425C13.4572 18.0019 12.6748 16.2927 12.6353 14.4536C12.6284 14.1265 12.3611 13.8649 12.0338 13.8649H11.5226C11.109 13.8649 10.7726 13.5285 10.7726 13.1149V12.0712C10.7745 12.0744 10.7766 12.0775 10.7785 12.0807C10.7966 12.1124 10.8157 12.1433 10.8356 12.1738C10.8423 12.1841 10.8491 12.1943 10.856 12.2044C10.8735 12.2304 10.8917 12.2558 10.9104 12.2808C10.9166 12.2891 10.9225 12.2975 10.9289 12.3057C10.9534 12.3374 10.9788 12.3684 11.0053 12.3986C11.0114 12.4056 11.0178 12.4122 11.024 12.4191C11.0454 12.4429 11.0673 12.4661 11.09 12.4889C11.0989 12.4978 11.1078 12.5067 11.117 12.5155C11.1411 12.539 11.1659 12.5618 11.1913 12.584C11.1969 12.5889 11.2022 12.5941 11.2079 12.5989C11.2388 12.6253 11.2707 12.6507 11.3033 12.6754C11.312 12.6819 11.3209 12.6882 11.3297 12.6947C11.3555 12.7135 11.3817 12.7318 11.4085 12.7494C11.4182 12.7558 11.4279 12.7623 11.4378 12.7685C11.4731 12.7909 11.5089 12.8128 11.5459 12.8332C11.5475 12.8341 11.5492 12.8349 11.5509 12.8358C11.5834 12.8536 11.6162 12.8704 11.6494 12.8863C11.6609 12.8918 11.6725 12.897 11.6842 12.9022C11.7082 12.9133 11.7324 12.9239 11.7567 12.9339C11.7695 12.9392 11.7823 12.9443 11.7952 12.9493C11.82 12.9589 11.8451 12.968 11.8702 12.9766C11.8816 12.9805 11.893 12.9846 11.9045 12.9883C11.9406 12.9999 11.9768 13.0107 12.0132 13.0202C12.0176 13.0213 12.0221 13.0222 12.0265 13.0233C12.0589 13.0316 12.0915 13.0389 12.1243 13.0454C12.1368 13.0479 12.1492 13.05 12.1618 13.0522C12.1871 13.0568 12.2124 13.0609 12.2378 13.0644C12.2513 13.0663 12.265 13.0681 12.2785 13.0697C12.3047 13.0728 12.3309 13.0752 12.3572 13.0772C12.369 13.0781 12.3808 13.0793 12.3925 13.08C12.4298 13.0822 12.467 13.0835 12.5044 13.0835C12.5055 13.0835 12.5066 13.0836 12.5078 13.0836C12.5117 13.0836 12.5155 13.0832 12.5194 13.0831C12.5586 13.0829 12.5978 13.0813 12.637 13.0787C12.6484 13.078 12.6597 13.0772 12.671 13.0763C12.7143 13.0726 12.7576 13.0681 12.8008 13.0616C12.8037 13.0611 12.8067 13.0605 12.8097 13.0601C12.8501 13.0538 12.8904 13.046 12.9307 13.0372C12.9427 13.0345 12.9548 13.0318 12.9668 13.029C13.0076 13.0193 13.0484 13.0087 13.089 12.9963C13.091 12.9958 13.093 12.9954 13.095 12.9947C14.1574 12.6683 15.2237 12.4235 16.2918 12.2603C18.8286 11.8728 21.3758 11.9455 23.9085 12.4783C24.575 12.6185 25.2404 12.7906 25.9045 12.9946C26.4253 13.1548 26.9756 13.0973 27.4536 12.8331C27.4904 12.8127 27.526 12.7911 27.5612 12.7688C27.5715 12.7622 27.5817 12.7554 27.5918 12.7487C27.6181 12.7313 27.644 12.7133 27.6693 12.6948C27.6783 12.6882 27.6875 12.6818 27.6964 12.6751C27.7289 12.6505 27.7608 12.6251 27.7916 12.5987C27.7972 12.5939 27.8025 12.5889 27.808 12.584C27.8336 12.5617 27.8585 12.5387 27.8828 12.5151C27.8917 12.5065 27.9005 12.4978 27.9093 12.489C27.9322 12.4659 27.9545 12.4423 27.9762 12.4182C27.9821 12.4117 27.9881 12.4054 27.9939 12.3988C28.0205 12.3684 28.0461 12.3373 28.0707 12.3053C28.0769 12.2973 28.0827 12.2892 28.0887 12.2811C28.1075 12.2559 28.1258 12.2303 28.1434 12.2043C28.1503 12.1941 28.1571 12.184 28.1638 12.1737C28.1834 12.1434 28.2024 12.1128 28.2204 12.0814C28.2224 12.0779 28.2248 12.0746 28.2268 12.0711V13.1148C28.2268 13.5285 27.8904 13.8648 27.4768 13.8648H26.9656C26.6384 13.8648 26.3711 14.1264 26.3641 14.4535C26.3246 16.2927 25.5422 18.0018 24.2173 19.1424C23.8807 19.4323 23.5308 19.6873 23.169 19.9081C23.167 19.9093 23.1648 19.9101 23.1628 19.9113C23.107 19.9452 23.0507 19.9777 22.9943 20.01C22.9767 20.0201 22.9591 20.0306 22.9414 20.0405C22.882 20.0739 22.8221 20.1061 22.762 20.1377C22.7458 20.1462 22.7296 20.1546 22.7133 20.163C22.4392 20.3043 22.1586 20.4272 21.8718 20.5309C21.8646 20.5334 21.8574 20.536 21.8503 20.5386C21.6343 20.6158 21.4148 20.6825 21.1921 20.7383C21.1858 20.7399 21.1796 20.7416 21.1732 20.7432C21.1096 20.7589 21.0454 20.7734 20.9812 20.7875C20.9544 20.7933 20.9276 20.799 20.9007 20.8045C20.8417 20.8167 20.7827 20.8285 20.7234 20.8391C20.6865 20.8457 20.6494 20.8514 20.6123 20.8574C20.5308 20.8708 20.4489 20.8827 20.3666 20.8934C20.3106 20.9006 20.2547 20.9077 20.1983 20.9136C20.1578 20.9178 20.1171 20.9213 20.0764 20.9249C20.0159 20.9302 19.9552 20.935 19.8942 20.9388C19.859 20.941 19.8238 20.9434 19.7885 20.9452C19.6977 20.9497 19.6066 20.953 19.5148 20.9543C19.5097 20.9543 19.5046 20.9547 19.4995 20.9547C19.4943 20.9546 19.4892 20.9543 19.4841 20.9543C19.3924 20.953 19.3013 20.9497 19.2105 20.9452C19.1751 20.9434 19.1399 20.941 19.1047 20.9388C19.0437 20.935 18.983 20.9302 18.9225 20.9249C18.8818 20.9213 18.8411 20.9178 18.8006 20.9136C18.7442 20.9077 18.6883 20.9005 18.6323 20.8934C18.5501 20.8828 18.4681 20.8708 18.3866 20.8574C18.3496 20.8514 18.3125 20.8457 18.2755 20.8391C18.2162 20.8284 18.1572 20.8166 18.0982 20.8045C18.0713 20.799 18.0444 20.7933 18.0177 20.7875C17.9535 20.7734 17.8894 20.7589 17.8257 20.7432C17.8193 20.7416 17.8131 20.7399 17.8068 20.7383C17.5841 20.6824 17.3646 20.6158 17.1486 20.5386C17.1414 20.536 17.1343 20.5334 17.1271 20.5309C16.8403 20.4272 16.5597 20.3043 16.2856 20.163C16.2693 20.1546 16.2531 20.1463 16.2369 20.1377C16.1769 20.1061 16.117 20.0739 16.0575 20.0405C16.0398 20.0306 16.0223 20.0201 16.0046 20.01C15.9482 19.9777 15.8919 19.9452 15.8361 19.9113C15.8341 19.9101 15.832 19.9093 15.83 19.9081C15.4685 19.6874 15.1187 19.4325 14.7821 19.1425ZM16.466 29.0524C15.9991 29.2115 15.4873 29.0746 15.1623 28.7037L12.2594 25.3907L14.4267 24.7149C14.4293 24.7141 14.432 24.715 14.4348 24.7146C14.4416 24.7135 14.4484 24.7124 14.4549 24.7138C14.456 24.7142 14.457 24.7148 14.4581 24.7152C14.464 24.7169 14.4692 24.7203 14.4743 24.7239C14.4766 24.7255 14.4793 24.7258 14.4813 24.7277L14.4812 24.7276L18.363 28.4063L16.466 29.0524ZM20.8105 34.4812C20.8105 35.1631 20.2785 35.7368 19.5992 35.7875C19.2852 35.811 19.0424 36.0726 19.0424 36.3876V37.8712H18.189V34.5242C18.189 34.16 18.3397 33.8033 18.6025 33.5454C18.8555 33.2973 19.1848 33.1634 19.5253 33.1707C20.234 33.1841 20.8105 33.772 20.8105 34.4812ZM18.736 29.5504L19.4998 29.2901L20.2636 29.5503L19.4998 31.1632L18.736 29.5504ZM19.4998 27.8256L15.5541 24.0864C15.9096 23.6051 16.1258 22.9947 16.1258 22.4088V21.4239C16.6503 21.6613 17.1946 21.8412 17.7575 21.9635C17.7594 21.9639 17.7613 21.9643 17.7631 21.9647C17.8824 21.9905 18.0025 22.0138 18.1235 22.0344C18.1654 22.0416 18.2074 22.0484 18.2495 22.055C18.309 22.0642 18.3685 22.0733 18.4284 22.0813C18.5095 22.0922 18.591 22.1017 18.6727 22.1103C18.7092 22.1141 18.7457 22.1179 18.7824 22.1212C18.8828 22.1305 18.9836 22.1381 19.085 22.144C19.1076 22.1453 19.1304 22.1461 19.153 22.1473C19.2659 22.1529 19.3792 22.1569 19.4932 22.1582H19.4933C19.4955 22.1582 19.4978 22.1582 19.4999 22.1582C19.5022 22.1582 19.5043 22.1582 19.5066 22.1582H19.5067C19.6206 22.1569 19.7339 22.1529 19.8468 22.1473C19.8695 22.1461 19.8922 22.1453 19.9149 22.144C20.0162 22.1382 20.1171 22.1305 20.2175 22.1212C20.2542 22.1179 20.2907 22.1141 20.3272 22.1103C20.409 22.1018 20.4904 22.0922 20.5715 22.0813C20.6314 22.0733 20.6909 22.0642 20.7504 22.055C20.7925 22.0484 20.8344 22.0416 20.8763 22.0344C20.9972 22.0137 21.1174 21.9905 21.2367 21.9647C21.2385 21.9643 21.2404 21.9639 21.2423 21.9635C21.8051 21.8412 22.3495 21.6613 22.874 21.4239V22.4088C22.874 22.9947 23.0902 23.6051 23.4457 24.0864L19.4998 27.8256ZM23.8374 28.7035C23.5123 29.0746 23.0009 29.2116 22.5335 29.0523L20.6366 28.4062L23.8511 25.3598L24.5182 24.7276C24.5192 24.7267 24.5204 24.7266 24.5215 24.7259C24.5272 24.7211 24.5336 24.7177 24.5406 24.7155C24.5421 24.715 24.5433 24.7142 24.5448 24.7138C24.554 24.7118 24.5638 24.7119 24.5732 24.7149L26.7404 25.3906L23.8374 28.7035Z" fill="black"/>
<path d="M36.5071 28.8106C35.4354 27.378 33.9621 26.3532 32.2463 25.8469L24.9312 23.566C24.7989 23.5248 24.6629 23.5066 24.5283 23.5096C24.2592 23.2249 24.0771 22.7949 24.0771 22.4088V20.7578C24.3944 20.5469 24.703 20.3124 25.0027 20.0544C26.4425 18.8147 27.346 17.0217 27.533 15.0674C28.5842 15.0376 29.4303 14.1732 29.4303 13.1148V11.6171C29.4303 11.035 29.1726 10.4933 28.7387 10.1266V8.18892C28.7387 7.8566 28.4694 7.5873 28.1371 7.5873C27.8048 7.5873 27.5355 7.8566 27.5355 8.18892L27.5354 9.48114C27.485 9.46409 27.4344 9.44823 27.384 9.43149C27.3076 9.40611 27.2312 9.38097 27.1547 9.3563C27.0548 9.32419 26.955 9.29288 26.855 9.26205C26.7798 9.23883 26.7046 9.21544 26.6292 9.19294C26.5261 9.16211 26.4228 9.1324 26.3195 9.10285C26.2474 9.08227 26.1753 9.06121 26.1032 9.04127C25.9919 9.01052 25.8805 8.98122 25.769 8.95199C25.7048 8.93517 25.6406 8.91763 25.5764 8.9013C25.4344 8.86518 25.2922 8.83099 25.15 8.79744C25.1163 8.78951 25.0827 8.78078 25.049 8.77301C24.8733 8.73233 24.6975 8.69374 24.5216 8.6569C24.4682 8.64577 24.4148 8.63576 24.3614 8.62495C24.2382 8.60004 24.1151 8.57522 23.9918 8.55216C23.9236 8.53942 23.8554 8.52781 23.7872 8.51564C23.6784 8.49626 23.5697 8.47696 23.4609 8.45903C23.3875 8.44693 23.3141 8.4358 23.2405 8.42435C23.1365 8.40818 23.0326 8.39224 22.9285 8.37743C22.8531 8.3667 22.7776 8.35661 22.7021 8.34652C22.5996 8.3329 22.4972 8.31969 22.3947 8.30736C22.3184 8.29815 22.2422 8.28942 22.166 8.28093C22.0636 8.26956 21.9614 8.25899 21.859 8.24898C21.7832 8.24153 21.7074 8.23425 21.6316 8.22752C21.5277 8.21831 21.4237 8.21014 21.3198 8.20222C21.2458 8.19661 21.1719 8.19084 21.0979 8.18596C20.9898 8.17875 20.8817 8.17291 20.7736 8.16722C20.704 8.16354 20.6344 8.15937 20.5648 8.15625C20.4457 8.15096 20.3266 8.14736 20.2074 8.14384C20.149 8.14208 20.0905 8.13959 20.0321 8.13831C19.8546 8.13439 19.6771 8.13215 19.4997 8.13215C19.3223 8.13215 19.1449 8.13439 18.9675 8.13831C18.9089 8.13959 18.8503 8.14216 18.7916 8.14384C18.6727 8.14736 18.5537 8.15096 18.4348 8.15625C18.365 8.15937 18.2951 8.16354 18.2253 8.16722C18.1174 8.17291 18.0096 8.17875 17.9017 8.18596C17.8277 8.19092 17.7536 8.19669 17.6795 8.2023C17.5757 8.21014 17.4719 8.21831 17.3681 8.22752C17.2921 8.23425 17.2161 8.24161 17.1401 8.24906C17.038 8.25907 16.936 8.26964 16.8339 8.28093C16.7573 8.28942 16.6808 8.29823 16.6043 8.30744C16.5023 8.31969 16.4003 8.33282 16.2983 8.34636C16.2223 8.35645 16.1464 8.36662 16.0706 8.37743C15.967 8.39224 15.8633 8.4081 15.7598 8.42419C15.686 8.43564 15.6121 8.44685 15.5383 8.45903C15.4302 8.47688 15.3221 8.49602 15.2141 8.51532C15.1451 8.52765 15.0762 8.53934 15.0073 8.55224C14.8851 8.57506 14.7631 8.59964 14.641 8.62439C14.5867 8.63544 14.5322 8.64561 14.4778 8.65698C14.3021 8.69374 14.1266 8.73233 13.9512 8.77293C13.9154 8.78118 13.8797 8.79039 13.844 8.79888C13.7039 8.83195 13.5638 8.86566 13.4239 8.90122C13.3582 8.91787 13.2926 8.93581 13.2269 8.95303C13.1171 8.98186 13.0072 9.01068 12.8974 9.04103C12.8239 9.06137 12.7505 9.08275 12.677 9.10382C12.5753 9.13296 12.4736 9.16211 12.3719 9.19254C12.2951 9.21552 12.2184 9.23931 12.1416 9.26301C12.0434 9.29336 11.9452 9.32411 11.8472 9.35566C11.769 9.38089 11.6908 9.40659 11.6127 9.43254C11.5632 9.44895 11.5137 9.46449 11.4643 9.48122V5.37386C11.4643 3.9435 12.436 2.71318 13.8274 2.38198L18.2196 1.33648C18.9535 1.16183 19.7301 1.15854 20.4654 1.32727L25.1474 2.40104C26.5534 2.72351 27.5354 3.95615 27.5354 5.39852C27.5354 5.73084 27.8047 6.00015 28.137 6.00015C28.4693 6.00015 28.7386 5.73084 28.7386 5.39852C28.7386 3.3916 27.3724 1.67673 25.4163 1.22805L20.7343 0.154364C19.8196 -0.055281 18.8536 -0.0513572 17.9409 0.165975L13.5488 1.21147C11.6129 1.67224 10.2608 3.38391 10.2608 5.37394L10.261 10.1266C9.82706 10.4933 9.56929 11.035 9.56929 11.6171V13.1149C9.56929 14.1732 10.4153 15.0377 11.4666 15.0675C11.6535 17.0218 12.5571 18.8148 13.9969 20.0545C14.2965 20.3125 14.6052 20.547 14.9224 20.7579V22.409C14.9224 22.7951 14.7404 23.225 14.4714 23.5098C14.3367 23.5067 14.2007 23.5248 14.0684 23.5662L6.75334 25.847C5.03751 26.3534 3.56431 27.378 2.49255 28.8108C1.41998 30.2448 0.853027 31.9492 0.853027 33.74V34.1886C0.853027 34.5209 1.12233 34.7902 1.45465 34.7902C1.78698 34.7902 2.05628 34.5209 2.05628 34.1886V33.74C2.05628 32.2111 2.54035 30.7558 3.45613 29.5316C4.37198 28.3073 5.63121 27.4319 7.09784 27.0001C7.10088 26.9992 7.10393 26.9983 7.10697 26.9974L11.0027 25.7826L14.2572 29.4969C14.7255 30.0314 15.3884 30.322 16.0713 30.322C16.3325 30.322 16.5968 30.2794 16.854 30.1917L17.5895 29.9412L18.6258 32.1294C18.3075 32.2507 18.0133 32.4381 17.7597 32.6868C17.2678 33.1695 16.9856 33.8394 16.9856 34.5245V38.1985C16.9856 38.6817 17.3787 39.0748 17.8619 39.0748H19.3694C19.8525 39.0748 20.2456 38.6817 20.2456 38.1985V36.8815C21.2719 36.5607 22.0138 35.5963 22.0138 34.4814C22.0138 33.4113 21.329 32.4855 20.375 32.1265L21.41 29.941L22.1454 30.1916C22.4028 30.2793 22.6669 30.3218 22.9282 30.3218C23.6111 30.3218 24.274 30.0311 24.7423 29.4967L27.9968 25.7825L31.8925 26.9972C31.8956 26.9982 31.8986 26.999 31.9016 26.9999C33.3683 27.4317 34.6276 28.3071 35.5433 29.5314C36.4591 30.7557 36.9432 32.2109 36.9432 33.7398V38.889C36.9432 39.3894 36.536 39.7967 36.0354 39.7967H33.017V34.0356C33.017 33.7033 32.7477 33.434 32.4154 33.434C32.0831 33.434 31.8138 33.7033 31.8138 34.0356V39.7966H7.18569V34.0356C7.18569 33.7033 6.91638 33.434 6.58406 33.434C6.25173 33.434 5.98243 33.7033 5.98243 34.0356V39.7966H2.96405C2.46356 39.7966 2.05628 39.3894 2.05628 38.8889V36.9878C2.05628 36.6555 1.78698 36.3862 1.45465 36.3862C1.12233 36.3862 0.853027 36.6555 0.853027 36.9878V38.8889C0.853027 40.053 1.80003 41 2.96413 41H36.0357C37.1998 41 38.1468 40.053 38.1468 38.8889V33.7398C38.1466 31.9491 37.5797 30.2446 36.5071 28.8106ZM12.099 10.5383C12.1484 10.5222 12.198 10.5071 12.2475 10.4912C12.3667 10.4531 12.4858 10.415 12.6051 10.3787C12.6685 10.3594 12.7321 10.3413 12.7955 10.3226C12.9013 10.2913 13.0072 10.26 13.1132 10.2302C13.1823 10.2107 13.2515 10.1924 13.3207 10.1737C13.4212 10.1464 13.5216 10.119 13.6222 10.0931C13.6947 10.0744 13.7673 10.0566 13.8399 10.0386C13.9374 10.0143 14.0348 9.9902 14.1325 9.96722C14.207 9.94968 14.2816 9.93286 14.3563 9.91605C14.452 9.89443 14.5477 9.87313 14.6435 9.85271C14.7194 9.83653 14.7954 9.82099 14.8714 9.80562C14.9663 9.7864 15.0611 9.76758 15.156 9.74957C15.2326 9.73499 15.3092 9.7209 15.3858 9.70712C15.4803 9.69007 15.5749 9.67365 15.6695 9.6578C15.7464 9.6449 15.8232 9.63233 15.9 9.62016C15.9948 9.60526 16.0895 9.59109 16.1842 9.57732C16.2609 9.56619 16.3376 9.55521 16.4143 9.54481C16.5097 9.53191 16.6052 9.51998 16.7006 9.50829C16.7766 9.499 16.8526 9.48955 16.9285 9.48106C17.0254 9.47017 17.1222 9.46048 17.219 9.45079C17.2935 9.44335 17.3682 9.43558 17.4428 9.42885C17.5421 9.41988 17.6414 9.41236 17.7407 9.40467C17.8129 9.39914 17.8851 9.39306 17.9572 9.38817C18.0612 9.38113 18.165 9.37568 18.269 9.37008C18.3365 9.36647 18.404 9.36207 18.4714 9.35902C18.5862 9.35382 18.7012 9.35046 18.816 9.34701C18.8726 9.34533 18.9292 9.34277 18.9858 9.34149C19.1571 9.33764 19.3285 9.33548 19.4997 9.33548C19.5001 9.33548 19.5005 9.33548 19.5009 9.33548C19.6718 9.33548 19.8428 9.33756 20.0137 9.34141C20.0707 9.34269 20.1277 9.34525 20.1847 9.34701C20.299 9.35046 20.4132 9.35382 20.5275 9.35894C20.5961 9.36207 20.6647 9.36647 20.7333 9.37015C20.8361 9.37568 20.9389 9.38113 21.0418 9.38801C21.115 9.39298 21.1881 9.39906 21.2613 9.40475C21.3595 9.41228 21.4577 9.4198 21.5558 9.42861C21.6315 9.43542 21.7072 9.44327 21.783 9.45087C21.8787 9.4604 21.9744 9.47001 22.07 9.48082C22.147 9.48947 22.224 9.499 22.301 9.50845C22.3953 9.51998 22.4897 9.53175 22.5839 9.54449C22.6617 9.55498 22.7397 9.56619 22.8175 9.57748C22.9109 9.59101 23.0045 9.60502 23.0979 9.61976C23.176 9.63201 23.254 9.64482 23.332 9.65788C23.4253 9.67349 23.5186 9.68975 23.6119 9.70656C23.6899 9.72058 23.7678 9.73499 23.8457 9.74981C23.9391 9.76758 24.0324 9.78608 24.1257 9.80498C24.2032 9.82067 24.2806 9.83653 24.358 9.85295C24.4521 9.87304 24.5463 9.89395 24.6404 9.91517C24.7167 9.93238 24.7929 9.94952 24.8692 9.96746C24.9646 9.98996 25.06 10.0135 25.1553 10.0372C25.23 10.0558 25.3048 10.0741 25.3794 10.0934C25.4772 10.1187 25.5749 10.1452 25.6725 10.1717C25.7445 10.1913 25.8165 10.2104 25.8885 10.2306C25.9907 10.2593 26.0929 10.2896 26.1951 10.3198C26.2622 10.3396 26.3294 10.3588 26.3964 10.3791C26.5093 10.4135 26.6222 10.4496 26.7349 10.4856C26.7909 10.5036 26.8469 10.5206 26.9029 10.5389C27.0595 10.5901 27.2158 10.6432 27.3719 10.6977C27.3839 10.7019 27.396 10.7058 27.4081 10.7099C27.4097 10.7105 27.4112 10.7111 27.4127 10.7116L27.2581 11.2863C27.201 11.4983 27.0639 11.6737 26.8717 11.7799C26.682 11.8847 26.4642 11.9075 26.2581 11.8443C25.9778 11.7582 25.6973 11.6775 25.4165 11.6022C21.2055 10.4722 16.9461 10.5528 12.7417 11.8443C12.5358 11.9075 12.3178 11.8847 12.1283 11.7799C12.0802 11.7533 12.0356 11.7225 11.9949 11.6878C11.8725 11.5838 11.7846 11.4453 11.7417 11.2863L11.6662 11.0054L11.5873 10.7116C11.7575 10.652 11.9282 10.5942 12.099 10.5383ZM14.7821 19.1425C13.4572 18.0019 12.6748 16.2927 12.6353 14.4536C12.6284 14.1265 12.3611 13.8649 12.0338 13.8649H11.5226C11.109 13.8649 10.7726 13.5285 10.7726 13.1149V12.0712C10.7745 12.0744 10.7766 12.0775 10.7785 12.0807C10.7966 12.1124 10.8157 12.1433 10.8356 12.1738C10.8423 12.1841 10.8491 12.1943 10.856 12.2044C10.8735 12.2304 10.8917 12.2558 10.9104 12.2808C10.9166 12.2891 10.9225 12.2975 10.9289 12.3057C10.9534 12.3374 10.9788 12.3684 11.0053 12.3986C11.0114 12.4056 11.0178 12.4122 11.024 12.4191C11.0454 12.4429 11.0673 12.4661 11.09 12.4889C11.0989 12.4978 11.1078 12.5067 11.117 12.5155C11.1411 12.539 11.1659 12.5618 11.1913 12.584C11.1969 12.5889 11.2022 12.5941 11.2079 12.5989C11.2388 12.6253 11.2707 12.6507 11.3033 12.6754C11.312 12.6819 11.3209 12.6882 11.3297 12.6947C11.3555 12.7135 11.3817 12.7318 11.4085 12.7494C11.4182 12.7558 11.4279 12.7623 11.4378 12.7685C11.4731 12.7909 11.5089 12.8128 11.5459 12.8332C11.5475 12.8341 11.5492 12.8349 11.5509 12.8358C11.5834 12.8536 11.6162 12.8704 11.6494 12.8863C11.6609 12.8918 11.6725 12.897 11.6842 12.9022C11.7082 12.9133 11.7324 12.9239 11.7567 12.9339C11.7695 12.9392 11.7823 12.9443 11.7952 12.9493C11.82 12.9589 11.8451 12.968 11.8702 12.9766C11.8816 12.9805 11.893 12.9846 11.9045 12.9883C11.9406 12.9999 11.9768 13.0107 12.0132 13.0202C12.0176 13.0213 12.0221 13.0222 12.0265 13.0233C12.0589 13.0316 12.0915 13.0389 12.1243 13.0454C12.1368 13.0479 12.1492 13.05 12.1618 13.0522C12.1871 13.0568 12.2124 13.0609 12.2378 13.0644C12.2513 13.0663 12.265 13.0681 12.2785 13.0697C12.3047 13.0728 12.3309 13.0752 12.3572 13.0772C12.369 13.0781 12.3808 13.0793 12.3925 13.08C12.4298 13.0822 12.467 13.0835 12.5044 13.0835C12.5055 13.0835 12.5066 13.0836 12.5078 13.0836C12.5117 13.0836 12.5155 13.0832 12.5194 13.0831C12.5586 13.0829 12.5978 13.0813 12.637 13.0787C12.6484 13.078 12.6597 13.0772 12.671 13.0763C12.7143 13.0726 12.7576 13.0681 12.8008 13.0616C12.8037 13.0611 12.8067 13.0605 12.8097 13.0601C12.8501 13.0538 12.8904 13.046 12.9307 13.0372C12.9427 13.0345 12.9548 13.0318 12.9668 13.029C13.0076 13.0193 13.0484 13.0087 13.089 12.9963C13.091 12.9958 13.093 12.9954 13.095 12.9947C14.1574 12.6683 15.2237 12.4235 16.2918 12.2603C18.8286 11.8728 21.3758 11.9455 23.9085 12.4783C24.575 12.6185 25.2404 12.7906 25.9045 12.9946C26.4253 13.1548 26.9756 13.0973 27.4536 12.8331C27.4904 12.8127 27.526 12.7911 27.5612 12.7688C27.5715 12.7622 27.5817 12.7554 27.5918 12.7487C27.6181 12.7313 27.644 12.7133 27.6693 12.6948C27.6783 12.6882 27.6875 12.6818 27.6964 12.6751C27.7289 12.6505 27.7608 12.6251 27.7916 12.5987C27.7972 12.5939 27.8025 12.5889 27.808 12.584C27.8336 12.5617 27.8585 12.5387 27.8828 12.5151C27.8917 12.5065 27.9005 12.4978 27.9093 12.489C27.9322 12.4659 27.9545 12.4423 27.9762 12.4182C27.9821 12.4117 27.9881 12.4054 27.9939 12.3988C28.0205 12.3684 28.0461 12.3373 28.0707 12.3053C28.0769 12.2973 28.0827 12.2892 28.0887 12.2811C28.1075 12.2559 28.1258 12.2303 28.1434 12.2043C28.1503 12.1941 28.1571 12.184 28.1638 12.1737C28.1834 12.1434 28.2024 12.1128 28.2204 12.0814C28.2224 12.0779 28.2248 12.0746 28.2268 12.0711V13.1148C28.2268 13.5285 27.8904 13.8648 27.4768 13.8648H26.9656C26.6384 13.8648 26.3711 14.1264 26.3641 14.4535C26.3246 16.2927 25.5422 18.0018 24.2173 19.1424C23.8807 19.4323 23.5308 19.6873 23.169 19.9081C23.167 19.9093 23.1648 19.9101 23.1628 19.9113C23.107 19.9452 23.0507 19.9777 22.9943 20.01C22.9767 20.0201 22.9591 20.0306 22.9414 20.0405C22.882 20.0739 22.8221 20.1061 22.762 20.1377C22.7458 20.1462 22.7296 20.1546 22.7133 20.163C22.4392 20.3043 22.1586 20.4272 21.8718 20.5309C21.8646 20.5334 21.8574 20.536 21.8503 20.5386C21.6343 20.6158 21.4148 20.6825 21.1921 20.7383C21.1858 20.7399 21.1796 20.7416 21.1732 20.7432C21.1096 20.7589 21.0454 20.7734 20.9812 20.7875C20.9544 20.7933 20.9276 20.799 20.9007 20.8045C20.8417 20.8167 20.7827 20.8285 20.7234 20.8391C20.6865 20.8457 20.6494 20.8514 20.6123 20.8574C20.5308 20.8708 20.4489 20.8827 20.3666 20.8934C20.3106 20.9006 20.2547 20.9077 20.1983 20.9136C20.1578 20.9178 20.1171 20.9213 20.0764 20.9249C20.0159 20.9302 19.9552 20.935 19.8942 20.9388C19.859 20.941 19.8238 20.9434 19.7885 20.9452C19.6977 20.9497 19.6066 20.953 19.5148 20.9543C19.5097 20.9543 19.5046 20.9547 19.4995 20.9547C19.4943 20.9546 19.4892 20.9543 19.4841 20.9543C19.3924 20.953 19.3013 20.9497 19.2105 20.9452C19.1751 20.9434 19.1399 20.941 19.1047 20.9388C19.0437 20.935 18.983 20.9302 18.9225 20.9249C18.8818 20.9213 18.8411 20.9178 18.8006 20.9136C18.7442 20.9077 18.6883 20.9005 18.6323 20.8934C18.5501 20.8828 18.4681 20.8708 18.3866 20.8574C18.3496 20.8514 18.3125 20.8457 18.2755 20.8391C18.2162 20.8284 18.1572 20.8166 18.0982 20.8045C18.0713 20.799 18.0444 20.7933 18.0177 20.7875C17.9535 20.7734 17.8894 20.7589 17.8257 20.7432C17.8193 20.7416 17.8131 20.7399 17.8068 20.7383C17.5841 20.6824 17.3646 20.6158 17.1486 20.5386C17.1414 20.536 17.1343 20.5334 17.1271 20.5309C16.8403 20.4272 16.5597 20.3043 16.2856 20.163C16.2693 20.1546 16.2531 20.1463 16.2369 20.1377C16.1769 20.1061 16.117 20.0739 16.0575 20.0405C16.0398 20.0306 16.0223 20.0201 16.0046 20.01C15.9482 19.9777 15.8919 19.9452 15.8361 19.9113C15.8341 19.9101 15.832 19.9093 15.83 19.9081C15.4685 19.6874 15.1187 19.4325 14.7821 19.1425ZM16.466 29.0524C15.9991 29.2115 15.4873 29.0746 15.1623 28.7037L12.2594 25.3907L14.4267 24.7149C14.4293 24.7141 14.432 24.715 14.4348 24.7146C14.4416 24.7135 14.4484 24.7124 14.4549 24.7138C14.456 24.7142 14.457 24.7148 14.4581 24.7152C14.464 24.7169 14.4692 24.7203 14.4743 24.7239C14.4766 24.7255 14.4793 24.7258 14.4813 24.7277L14.4812 24.7276L18.363 28.4063L16.466 29.0524ZM20.8105 34.4812C20.8105 35.1631 20.2785 35.7368 19.5992 35.7875C19.2852 35.811 19.0424 36.0726 19.0424 36.3876V37.8712H18.189V34.5242C18.189 34.16 18.3397 33.8033 18.6025 33.5454C18.8555 33.2973 19.1848 33.1634 19.5253 33.1707C20.234 33.1841 20.8105 33.772 20.8105 34.4812ZM18.736 29.5504L19.4998 29.2901L20.2636 29.5503L19.4998 31.1632L18.736 29.5504ZM19.4998 27.8256L15.5541 24.0864C15.9096 23.6051 16.1258 22.9947 16.1258 22.4088V21.4239C16.6503 21.6613 17.1946 21.8412 17.7575 21.9635C17.7594 21.9639 17.7613 21.9643 17.7631 21.9647C17.8824 21.9905 18.0025 22.0138 18.1235 22.0344C18.1654 22.0416 18.2074 22.0484 18.2495 22.055C18.309 22.0642 18.3685 22.0733 18.4284 22.0813C18.5095 22.0922 18.591 22.1017 18.6727 22.1103C18.7092 22.1141 18.7457 22.1179 18.7824 22.1212C18.8828 22.1305 18.9836 22.1381 19.085 22.144C19.1076 22.1453 19.1304 22.1461 19.153 22.1473C19.2659 22.1529 19.3792 22.1569 19.4932 22.1582H19.4933C19.4955 22.1582 19.4978 22.1582 19.4999 22.1582C19.5022 22.1582 19.5043 22.1582 19.5066 22.1582H19.5067C19.6206 22.1569 19.7339 22.1529 19.8468 22.1473C19.8695 22.1461 19.8922 22.1453 19.9149 22.144C20.0162 22.1382 20.1171 22.1305 20.2175 22.1212C20.2542 22.1179 20.2907 22.1141 20.3272 22.1103C20.409 22.1018 20.4904 22.0922 20.5715 22.0813C20.6314 22.0733 20.6909 22.0642 20.7504 22.055C20.7925 22.0484 20.8344 22.0416 20.8763 22.0344C20.9972 22.0137 21.1174 21.9905 21.2367 21.9647C21.2385 21.9643 21.2404 21.9639 21.2423 21.9635C21.8051 21.8412 22.3495 21.6613 22.874 21.4239V22.4088C22.874 22.9947 23.0902 23.6051 23.4457 24.0864L19.4998 27.8256ZM23.8374 28.7035C23.5123 29.0746 23.0009 29.2116 22.5335 29.0523L20.6366 28.4062L23.8511 25.3598L24.5182 24.7276C24.5192 24.7267 24.5204 24.7266 24.5215 24.7259C24.5272 24.7211 24.5336 24.7177 24.5406 24.7155C24.5421 24.715 24.5433 24.7142 24.5448 24.7138C24.554 24.7118 24.5638 24.7119 24.5732 24.7149L26.7404 25.3906L23.8374 28.7035Z" stroke="black" stroke-width="0.6" mask="url(#path-1-outside-1_428_2186)"/>
</svg>
