<svg width="31" height="31" viewBox="0 0 31 31" fill="none" xmlns="http://www.w3.org/2000/svg">
<path d="M31 15.5C31 23.2367 25.3316 29.6492 17.9219 30.8117V19.9805H21.5335L22.2207 15.5H17.9219V12.5925C17.9219 11.3665 18.5225 10.1719 20.4479 10.1719H22.4023V6.35742C22.4023 6.35742 20.6283 6.05469 18.9324 6.05469C15.3922 6.05469 13.0781 8.20047 13.0781 12.0852V15.5H9.14258V19.9805H13.0781V30.8117C5.6684 29.6492 0 23.2367 0 15.5C0 6.93988 6.93988 0 15.5 0C24.0601 0 31 6.93988 31 15.5Z" fill="#1877F2"/>
<path d="M21.5335 19.9805L22.2207 15.5H17.9219V12.5925C17.9219 11.3667 18.5224 10.1719 20.4478 10.1719H22.4023V6.35742C22.4023 6.35742 20.6286 6.05469 18.9327 6.05469C15.3922 6.05469 13.0781 8.20047 13.0781 12.0852V15.5H9.14258V19.9805H13.0781V30.8116C13.8673 30.9355 14.6761 31 15.5 31C16.3239 31 17.1327 30.9355 17.9219 30.8116V19.9805H21.5335Z" fill="white"/>
</svg>
