<svg width="21" height="20" viewBox="0 0 21 20" fill="none" xmlns="http://www.w3.org/2000/svg">
<path fill-rule="evenodd" clip-rule="evenodd" d="M19.7391 8.18079C20.2102 8.46372 20.3043 9.12387 20.1159 9.59541C20.0217 10.1613 19.4565 10.5385 18.8913 10.5385V17.8945C18.8913 18.649 18.326 19.3091 17.5724 19.3091H2.8768C2.02897 19.3091 1.46375 18.649 1.46375 17.8945V10.5385C0.898536 10.5385 0.427475 10.1613 0.23907 9.59541C0.0506638 9.12387 0.239093 8.46372 0.615904 8.18079L9.28253 0.730434C9.84774 0.353202 10.6014 0.353202 11.0724 0.730434L19.7391 8.18079ZM11.5434 17.8945V13.7449H8.81151V17.8945H11.5434ZM18.7971 9.21816L10.1304 1.86214L1.46375 9.21816H2.78262V17.8945H7.39847V13.7449C7.39847 12.9905 8.05789 12.4247 8.81151 12.4247H11.5434C12.297 12.4247 12.9565 12.9905 12.9565 13.7449V17.8945H17.4782V9.21816H18.7971Z" fill="white"/>
</svg>
