<svg width="12" height="12" viewBox="0 0 12 12" fill="none" xmlns="http://www.w3.org/2000/svg">
<mask id="path-1-outside-1_380_2892" maskUnits="userSpaceOnUse" x="-1" y="-1" width="13" height="14" fill="black">
<rect fill="white" x="-1" y="-1" width="13" height="14"/>
<path d="M1.938 7.801V6.713H4.658C5.89333 6.713 6.80567 6.45233 7.395 5.931C7.99567 5.40967 8.296 4.72967 8.296 3.891C8.296 2.95033 7.97867 2.208 7.344 1.664C6.72067 1.10867 5.797 0.836667 4.573 0.848L0.408 0.864999V0.0999992H11.356V0.848H6.766L7.123 0.507999C7.96167 0.791333 8.57367 1.239 8.959 1.851C9.34433 2.45167 9.537 3.13733 9.537 3.908C9.537 4.71267 9.34433 5.40967 8.959 5.999C8.57367 6.577 8.01833 7.02467 7.293 7.342C6.56767 7.648 5.70067 7.801 4.692 7.801H1.938ZM8.364 12L5.253 7.291H6.63L9.741 12H8.364ZM0.408 3.228V2.463H11.356V3.228H0.408Z"/>
</mask>
<path d="M1.938 7.801V6.713H4.658C5.89333 6.713 6.80567 6.45233 7.395 5.931C7.99567 5.40967 8.296 4.72967 8.296 3.891C8.296 2.95033 7.97867 2.208 7.344 1.664C6.72067 1.10867 5.797 0.836667 4.573 0.848L0.408 0.864999V0.0999992H11.356V0.848H6.766L7.123 0.507999C7.96167 0.791333 8.57367 1.239 8.959 1.851C9.34433 2.45167 9.537 3.13733 9.537 3.908C9.537 4.71267 9.34433 5.40967 8.959 5.999C8.57367 6.577 8.01833 7.02467 7.293 7.342C6.56767 7.648 5.70067 7.801 4.692 7.801H1.938ZM8.364 12L5.253 7.291H6.63L9.741 12H8.364ZM0.408 3.228V2.463H11.356V3.228H0.408Z" fill="black"/>
<path d="M1.938 7.801H1.438V8.301H1.938V7.801ZM1.938 6.713V6.213H1.438V6.713H1.938ZM7.395 5.931L7.06725 5.55337L7.06371 5.5565L7.395 5.931ZM7.344 1.664L7.01134 2.0374L7.0186 2.04363L7.344 1.664ZM4.573 0.848L4.57504 1.348L4.57763 1.34798L4.573 0.848ZM0.408 0.864999H-0.092V1.36704L0.410041 1.365L0.408 0.864999ZM0.408 0.0999994V-0.400001H-0.092V0.0999994H0.408ZM11.356 0.0999994H11.856V-0.400001H11.356V0.0999994ZM11.356 0.848V1.348H11.856V0.848H11.356ZM6.766 0.848L6.42117 0.485931L5.516 1.348H6.766V0.848ZM7.123 0.507999L7.28303 0.0343013L6.99689 -0.0623698L6.77817 0.14593L7.123 0.507999ZM8.959 1.851L8.53587 2.11742L8.53815 2.12098L8.959 1.851ZM8.959 5.999L9.37504 6.27636L9.37749 6.27262L8.959 5.999ZM7.293 7.342L7.48737 7.80272L7.49341 7.80008L7.293 7.342ZM8.364 12L7.94682 12.2756L8.09506 12.5H8.364V12ZM5.253 7.291V6.791H4.32341L4.83582 7.56661L5.253 7.291ZM6.63 7.291L7.04718 7.01539L6.89894 6.791H6.63V7.291ZM9.741 12V12.5H10.6706L10.1582 11.7244L9.741 12ZM0.408 3.228H-0.092V3.728H0.408V3.228ZM0.408 2.463V1.963H-0.092V2.463H0.408ZM11.356 2.463H11.856V1.963H11.356V2.463ZM11.356 3.228V3.728H11.856V3.228H11.356ZM2.438 7.801V6.713H1.438V7.801H2.438ZM1.938 7.213H4.658V6.213H1.938V7.213ZM4.658 7.213C5.94908 7.213 7.00578 6.94287 7.72629 6.3055L7.06371 5.5565C6.60555 5.9618 5.83759 6.213 4.658 6.213V7.213ZM7.72274 6.30861C8.43942 5.68658 8.796 4.86557 8.796 3.891H7.796C7.796 4.59376 7.55191 5.13275 7.06726 5.55339L7.72274 6.30861ZM8.796 3.891C8.796 2.82485 8.42955 1.93593 7.6694 1.28437L7.0186 2.04363C7.52779 2.48007 7.796 3.07582 7.796 3.891H8.796ZM7.6766 1.29067C6.92532 0.621342 5.85967 0.336065 4.56837 0.348021L4.57763 1.34798C5.73433 1.33727 6.51602 1.59599 7.0114 2.03733L7.6766 1.29067ZM4.57096 0.348004L0.405959 0.365004L0.410041 1.365L4.57504 1.348L4.57096 0.348004ZM0.908 0.864999V0.0999994H-0.092V0.864999H0.908ZM0.408 0.599999H11.356V-0.400001H0.408V0.599999ZM10.856 0.0999994V0.848H11.856V0.0999994H10.856ZM11.356 0.348H6.766V1.348H11.356V0.348ZM7.11083 1.21007L7.46783 0.870068L6.77817 0.14593L6.42117 0.485931L7.11083 1.21007ZM6.96297 0.981697C7.71791 1.23675 8.22462 1.62304 8.53588 2.11741L9.38212 1.58459C8.92272 0.854958 8.20542 0.34592 7.28303 0.0343013L6.96297 0.981697ZM8.53815 2.12098C8.86766 2.63462 9.037 3.22507 9.037 3.908H10.037C10.037 3.04959 9.82101 2.26871 9.37985 1.58102L8.53815 2.12098ZM9.037 3.908C9.037 4.62974 8.86536 5.22856 8.54052 5.72538L9.37749 6.27262C9.82331 5.59077 10.037 4.79559 10.037 3.908H9.037ZM8.54297 5.72165C8.21787 6.20931 7.74281 6.59945 7.09259 6.88392L7.49341 7.80008C8.29385 7.44988 8.92947 6.94469 9.37503 6.27635L8.54297 5.72165ZM7.09865 6.88132C6.44949 7.15518 5.65191 7.301 4.692 7.301V8.301C5.74942 8.301 6.68584 8.14082 7.48735 7.80268L7.09865 6.88132ZM4.692 7.301H1.938V8.301H4.692V7.301ZM8.78118 11.7244L5.67018 7.01539L4.83582 7.56661L7.94682 12.2756L8.78118 11.7244ZM5.253 7.791H6.63V6.791H5.253V7.791ZM6.21282 7.56661L9.32382 12.2756L10.1582 11.7244L7.04718 7.01539L6.21282 7.56661ZM9.741 11.5H8.364V12.5H9.741V11.5ZM0.908 3.228V2.463H-0.092V3.228H0.908ZM0.408 2.963H11.356V1.963H0.408V2.963ZM10.856 2.463V3.228H11.856V2.463H10.856ZM11.356 2.728H0.408V3.728H11.356V2.728Z" fill="black" mask="url(#path-1-outside-1_380_2892)"/>
</svg>
