<svg width="22" height="22" viewBox="0 0 22 22" fill="none" xmlns="http://www.w3.org/2000/svg">
<g clip-path="url(#clip0_8_435)">
<path d="M0.6875 11C0.6875 5.30458 5.30458 0.6875 11 0.6875C13.0808 0.6875 15.0176 1.30377 16.638 2.36375C16.9888 2.59325 17.0199 3.08447 16.7234 3.3809C16.4805 3.62385 16.098 3.65004 15.8085 3.46497C14.4202 2.57714 12.7702 2.0625 11 2.0625C6.06396 2.0625 2.0625 6.06396 2.0625 11C2.0625 15.936 6.06396 19.9375 11 19.9375C15.936 19.9375 19.9375 15.936 19.9375 11C19.9375 9.021 19.2943 7.19221 18.2055 5.71134C17.9921 5.42111 18.0061 5.01511 18.2608 4.76039C18.5441 4.47703 19.0101 4.49209 19.2508 4.81247C20.5454 6.53603 21.3125 8.67842 21.3125 11C21.3125 16.6954 16.6954 21.3125 11 21.3125C5.30458 21.3125 0.6875 16.6954 0.6875 11Z" fill="white"/>
<path fill-rule="evenodd" clip-rule="evenodd" d="M3.4375 11C3.4375 9.86092 4.36092 8.9375 5.5 8.9375C6.63908 8.9375 7.5625 9.86092 7.5625 11C7.5625 12.1391 6.63908 13.0625 5.5 13.0625C4.36092 13.0625 3.4375 12.1391 3.4375 11ZM5.5 10.3125C5.12029 10.3125 4.8125 10.6203 4.8125 11C4.8125 11.3797 5.12029 11.6875 5.5 11.6875C5.87971 11.6875 6.1875 11.3797 6.1875 11C6.1875 10.6203 5.87971 10.3125 5.5 10.3125Z" fill="white"/>
<path fill-rule="evenodd" clip-rule="evenodd" d="M11 8.9375C9.86092 8.9375 8.9375 9.86092 8.9375 11C8.9375 12.1391 9.86092 13.0625 11 13.0625C12.1391 13.0625 13.0625 12.1391 13.0625 11C13.0625 9.86092 12.1391 8.9375 11 8.9375ZM10.3125 11C10.3125 10.6203 10.6203 10.3125 11 10.3125C11.3797 10.3125 11.6875 10.6203 11.6875 11C11.6875 11.3797 11.3797 11.6875 11 11.6875C10.6203 11.6875 10.3125 11.3797 10.3125 11Z" fill="white"/>
<path fill-rule="evenodd" clip-rule="evenodd" d="M16.5 8.9375C15.3609 8.9375 14.4375 9.86092 14.4375 11C14.4375 12.1391 15.3609 13.0625 16.5 13.0625C17.6391 13.0625 18.5625 12.1391 18.5625 11C18.5625 9.86092 17.6391 8.9375 16.5 8.9375ZM15.8125 11C15.8125 10.6203 16.1203 10.3125 16.5 10.3125C16.8797 10.3125 17.1875 10.6203 17.1875 11C17.1875 11.3797 16.8797 11.6875 16.5 11.6875C16.1203 11.6875 15.8125 11.3797 15.8125 11Z" fill="white"/>
</g>
<defs>
<clipPath id="clip0_8_435">
<rect width="22" height="22" fill="white"/>
</clipPath>
</defs>
</svg>
