<svg width="13" height="13" viewBox="0 0 13 13" fill="none" xmlns="http://www.w3.org/2000/svg">
<path d="M6.49999 12.6249C6.3262 12.6259 6.15604 12.5751 6.01121 12.4791C5.86638 12.383 5.75344 12.246 5.68679 12.0854C5.62015 11.9249 5.60281 11.7482 5.637 11.5778C5.67118 11.4074 5.75534 11.251 5.87874 11.1287L10.5162 6.4999L5.87874 1.87115C5.73539 1.70376 5.66049 1.48845 5.669 1.26823C5.6775 1.04801 5.76879 0.839116 5.92462 0.683284C6.08046 0.527451 6.28935 0.436161 6.50957 0.427655C6.72979 0.419149 6.9451 0.494054 7.11249 0.637402L12.3625 5.8874C12.5255 6.05134 12.6169 6.27311 12.6169 6.50428C12.6169 6.73544 12.5255 6.95721 12.3625 7.12115L7.11249 12.3712C6.94951 12.5328 6.72954 12.6239 6.49999 12.6249Z" fill="black"/>
<path d="M1.24999 12.6249C1.0762 12.6259 0.906035 12.5752 0.761206 12.4791C0.616376 12.383 0.503439 12.246 0.436793 12.0855C0.370147 11.925 0.352812 11.7482 0.386998 11.5778C0.421184 11.4074 0.505342 11.2511 0.628742 11.1287L5.26624 6.49992L0.628742 1.87117C0.463977 1.7064 0.371412 1.48293 0.371412 1.24992C0.371412 1.0169 0.463977 0.793434 0.628742 0.628668C0.793508 0.463902 1.01698 0.371338 1.24999 0.371338C1.48301 0.371338 1.70648 0.463902 1.87124 0.628668L7.12124 5.87867C7.28421 6.04261 7.37569 6.26438 7.37569 6.49554C7.37569 6.72671 7.28421 6.94848 7.12124 7.11242L1.87124 12.3624C1.7902 12.4451 1.69357 12.5109 1.58692 12.5559C1.48028 12.601 1.36576 12.6244 1.24999 12.6249Z" fill="black"/>
</svg>
