<svg width="21" height="20" viewBox="0 0 21 20" fill="none" xmlns="http://www.w3.org/2000/svg">
<path fill-rule="evenodd" clip-rule="evenodd" d="M5.42749 6.48328C5.42749 3.27681 7.59425 0.636169 10.2319 0.636169C12.9638 0.636169 15.1304 3.27681 15.1304 6.48328C15.1304 9.68975 12.9638 12.236 10.2319 12.236C7.59425 12.236 5.42749 9.68975 5.42749 6.48328ZM6.84053 6.48328C6.84053 8.84098 8.34787 10.8214 10.2319 10.8214C12.116 10.8214 13.6231 8.84098 13.6231 6.48328C13.6231 4.03127 12.116 2.05079 10.2319 2.05079C8.34787 2.05079 6.84053 4.03127 6.84053 6.48328Z" fill="white"/>
<path d="M14.6596 12C14.2828 12 13.9059 12.2829 13.9059 12.6602C13.8117 13.0374 14.0943 13.4146 14.5653 13.4146C16.732 13.6975 18.522 15.5837 18.7104 17.8471H1.84793C2.03633 15.5837 3.73213 13.6975 5.99299 13.4146C6.36981 13.4146 6.65237 13.0374 6.65237 12.6602C6.55817 12.2829 6.27542 12 5.8044 12C5.8044 12 0.34082 12.6602 0.34082 18.5073C0.34082 18.8845 0.717448 19.2617 1.09426 19.2617H19.4638C19.8406 19.2617 20.1234 18.8845 20.1234 18.5073C20.1234 12.6602 14.7538 12 14.6596 12Z" fill="white"/>
</svg>
