<svg width="19" height="19" viewBox="0 0 19 19" fill="none" xmlns="http://www.w3.org/2000/svg">
<path d="M12.5943 11.495H10.4772L10.9182 10.0293C11.0531 9.59102 11.0107 9.11733 10.8001 8.71001C10.5895 8.3027 10.2274 7.99429 9.79181 7.85107C9.6667 7.80983 9.53443 7.79487 9.40327 7.80713C9.27211 7.81939 9.1449 7.85859 9.0296 7.92229C8.9143 7.986 8.8134 8.07282 8.73321 8.17733C8.65302 8.28184 8.59528 8.40178 8.56359 8.52964L8.49574 8.81464C8.23983 9.8416 7.70977 10.7798 6.96216 11.5289L6.57538 11.9089C6.47709 11.7851 6.35233 11.6849 6.21025 11.6156C6.06817 11.5463 5.91237 11.5098 5.75431 11.5086H5.25895C4.98053 11.5085 4.71332 11.6182 4.51518 11.8138C4.31705 12.0094 4.20395 12.2752 4.20038 12.5536V16.9236C4.20038 17.2043 4.31191 17.4736 4.51043 17.6721C4.70895 17.8706 4.9782 17.9821 5.25895 17.9821H5.75431C5.93652 17.9817 6.11551 17.934 6.27372 17.8436C6.43193 17.7532 6.56394 17.6232 6.65681 17.4664L6.75181 17.5139C7.36511 17.8202 8.04094 17.9804 8.72645 17.9821H11.1625C11.5652 17.9841 11.9621 17.8859 12.3175 17.6964C12.6728 17.5068 12.9755 17.232 13.1982 16.8964C13.6723 16.1876 13.925 15.3538 13.9243 14.5011V12.8114C13.9243 12.6374 13.8898 12.4651 13.8228 12.3045C13.7558 12.1439 13.6576 11.9982 13.5339 11.8757C13.4103 11.7533 13.2635 11.6566 13.1023 11.5913C12.941 11.5259 12.7683 11.4932 12.5943 11.495ZM6.10716 16.9236C6.10716 17.0244 6.06713 17.121 5.99586 17.1923C5.9246 17.2635 5.82795 17.3036 5.72716 17.3036H5.25895C5.15817 17.3036 5.06151 17.2635 4.99025 17.1923C4.91899 17.121 4.87895 17.0244 4.87895 16.9236V12.5536C4.87895 12.4528 4.91899 12.3561 4.99025 12.2849C5.06151 12.2136 5.15817 12.1736 5.25895 12.1736H5.75431C5.85031 12.1804 5.94013 12.2235 6.00563 12.294C6.07112 12.3646 6.10741 12.4573 6.10716 12.5536V16.9236ZM13.2322 14.5011C13.235 15.2252 13.0224 15.9338 12.6215 16.5368C12.461 16.7766 12.244 16.9733 11.9896 17.1094C11.7351 17.2455 11.4511 17.3168 11.1625 17.3171H8.72645C8.1471 17.3166 7.57575 17.1819 7.05716 16.9236L6.78574 16.7879V12.6214L7.41002 11.9971C8.24528 11.162 8.83857 10.1161 9.12681 8.97071L9.19466 8.6925C9.21481 8.61806 9.26361 8.55463 9.33038 8.51607C9.36462 8.50112 9.40159 8.49341 9.43895 8.49341C9.47631 8.49341 9.51328 8.50112 9.54752 8.51607C9.68125 8.56054 9.80489 8.63093 9.91139 8.72323C10.0179 8.81553 10.1051 8.92791 10.1682 9.05396C10.2312 9.18001 10.2687 9.31724 10.2787 9.45782C10.2886 9.59839 10.2708 9.73955 10.2261 9.87321L9.65609 11.78C9.64134 11.8306 9.63857 11.8839 9.64799 11.9357C9.65742 11.9875 9.67878 12.0364 9.71038 12.0786C9.74121 12.1215 9.78203 12.1563 9.82932 12.18C9.87661 12.2036 9.92895 12.2154 9.98181 12.2143H12.5536C12.6374 12.2143 12.7203 12.2308 12.7977 12.2628C12.8751 12.2949 12.9454 12.3419 13.0046 12.4011C13.0639 12.4603 13.1108 12.5307 13.1429 12.608C13.175 12.6854 13.1915 12.7684 13.1915 12.8521L13.2322 14.5011Z" fill="black"/>
<path d="M7.46434 4.95349L7.2472 6.20885C7.22108 6.34778 7.23532 6.49128 7.28824 6.62237C7.34115 6.75345 7.43052 6.86663 7.54577 6.94849C7.67333 7.04359 7.82774 7.09585 7.98684 7.09778C8.10967 7.09583 8.2304 7.06565 8.3397 7.00956L9.50005 6.41242L10.6333 7.00956C10.7579 7.07536 10.8986 7.10454 11.0391 7.09374C11.1796 7.08293 11.3141 7.03257 11.4272 6.94849C11.5413 6.86715 11.6299 6.75509 11.6827 6.62535C11.7356 6.49561 11.7505 6.35353 11.7258 6.21564L11.5358 4.95349L12.4247 4.07135C12.5274 3.97426 12.6003 3.85002 12.6352 3.71308C12.67 3.57614 12.6653 3.43213 12.6215 3.29778C12.5776 3.16358 12.4973 3.04424 12.3894 2.95315C12.2815 2.86206 12.1504 2.80282 12.0108 2.78207L10.7418 2.59885L10.1786 1.43849C10.1153 1.31288 10.0183 1.20731 9.89848 1.13356C9.77867 1.0598 9.64074 1.02075 9.50005 1.02075C9.35936 1.02075 9.22144 1.0598 9.10163 1.13356C8.98182 1.20731 8.88484 1.31288 8.82148 1.43849L8.25827 2.58528L6.98934 2.76849C6.84969 2.78925 6.71858 2.84849 6.61071 2.93958C6.50284 3.03067 6.42247 3.15 6.37862 3.28421C6.33203 3.42042 6.32581 3.56719 6.36073 3.70685C6.39564 3.84651 6.4702 3.9731 6.57541 4.07135L7.46434 4.95349ZM7.0572 3.44028L8.50255 3.22992C8.56784 3.23415 8.63293 3.21902 8.68966 3.18643C8.74639 3.15384 8.79224 3.10524 8.82148 3.04671L9.50005 1.73706C9.50601 1.72407 9.51557 1.71306 9.5276 1.70534C9.53963 1.69762 9.55362 1.69352 9.56791 1.69352C9.5822 1.69352 9.5962 1.69762 9.60822 1.70534C9.62025 1.71306 9.62981 1.72407 9.63577 1.73706L10.3143 3.04671C10.3387 3.09626 10.3751 3.13896 10.4201 3.17094C10.4651 3.20293 10.5174 3.2232 10.5722 3.22992L12.0176 3.44028C12.0316 3.44314 12.0447 3.44967 12.0554 3.45921C12.0661 3.46874 12.0741 3.48094 12.0786 3.49457C12.0852 3.50591 12.0886 3.51878 12.0886 3.53189C12.0886 3.54499 12.0852 3.55786 12.0786 3.56921L11.0336 4.58707C10.9941 4.62656 10.9643 4.67472 10.9467 4.72772C10.929 4.78073 10.9239 4.83712 10.9318 4.89242L11.1829 6.32421C11.1875 6.33864 11.1866 6.35427 11.1803 6.36807C11.1741 6.38186 11.1629 6.39284 11.149 6.39885C11.1372 6.40766 11.123 6.41242 11.1083 6.41242C11.0936 6.41242 11.0793 6.40766 11.0676 6.39885L9.77827 5.72028C9.7306 5.69353 9.67686 5.67948 9.6222 5.67948C9.56754 5.67948 9.51379 5.69353 9.46612 5.72028L8.17005 6.39885C8.15936 6.4071 8.14624 6.41158 8.13273 6.41158C8.11923 6.41158 8.1061 6.4071 8.09541 6.39885C8.0815 6.39284 8.07033 6.38186 8.06406 6.36807C8.05779 6.35427 8.05687 6.33864 8.06148 6.32421L8.31255 4.89242C8.32047 4.83712 8.3154 4.78073 8.29773 4.72772C8.28006 4.67472 8.25029 4.62656 8.21077 4.58707L7.16577 3.56921C7.15922 3.55786 7.15577 3.54499 7.15577 3.53189C7.15577 3.51878 7.15922 3.50591 7.16577 3.49457C7.14815 3.49556 7.13067 3.49081 7.11599 3.48102C7.1013 3.47123 7.09019 3.45693 7.08434 3.44028H7.0572Z" fill="black"/>
<path d="M4.98074 8.9911C5.08182 8.99295 5.18203 8.97219 5.27405 8.93033C5.36608 8.88848 5.44759 8.8266 5.51262 8.7492C5.57766 8.67181 5.62459 8.58086 5.64996 8.483C5.67534 8.38514 5.67854 8.28285 5.65931 8.18361L5.4761 7.15218L6.2361 6.41253C6.33185 6.32466 6.40036 6.21114 6.43347 6.08546C6.46658 5.95979 6.4629 5.82725 6.42288 5.70361C6.38285 5.57996 6.30816 5.47041 6.20769 5.38798C6.10722 5.30554 5.98518 5.2537 5.8561 5.2386L4.81789 5.08932L4.34967 4.1461C4.2872 4.03758 4.19722 3.94743 4.08882 3.88475C3.98041 3.82207 3.8574 3.78906 3.73217 3.78906C3.60695 3.78906 3.48393 3.82207 3.37552 3.88475C3.26712 3.94743 3.17714 4.03758 3.11467 4.1461L2.64646 5.08932L1.60824 5.2386C1.47916 5.2537 1.35713 5.30554 1.25665 5.38798C1.15618 5.47041 1.08149 5.57996 1.04146 5.70361C1.00144 5.82725 0.997765 5.95979 1.03088 6.08546C1.06399 6.21114 1.13249 6.32466 1.22824 6.41253L1.98146 7.15218L1.79824 8.18361C1.77473 8.31148 1.78846 8.44342 1.83778 8.56371C1.8871 8.68401 1.96995 8.78761 2.07646 8.86218C2.18048 8.93821 2.30401 8.98306 2.43259 8.99147C2.56117 8.99988 2.68948 8.97151 2.80253 8.90968L3.73217 8.4211L4.66181 8.90968C4.75983 8.96258 4.86936 8.99055 4.98074 8.9911ZM3.73217 7.70182C3.67748 7.70148 3.62366 7.71552 3.5761 7.74253L2.47003 8.29896L2.71431 7.0911C2.71809 7.03302 2.70771 6.97489 2.68407 6.92171C2.66044 6.86852 2.62424 6.82186 2.5786 6.78575L1.70324 5.91039L2.92467 5.73396C2.97867 5.72737 3.03009 5.70708 3.07404 5.67501C3.11798 5.64294 3.15299 5.60017 3.17574 5.55075L3.73896 4.44468L4.2886 5.55075C4.31135 5.60017 4.34636 5.64294 4.39031 5.67501C4.43425 5.70708 4.48567 5.72737 4.53967 5.73396L5.7611 5.93075L4.88574 6.78575C4.84622 6.82524 4.81645 6.8734 4.79878 6.9264C4.78111 6.97941 4.77604 7.0358 4.78396 7.0911L4.98074 8.31253L3.88824 7.74253C3.84068 7.71552 3.78686 7.70148 3.73217 7.70182Z" fill="black"/>
<path d="M17.9482 5.70682C17.9095 5.58402 17.8366 5.47479 17.738 5.39188C17.6395 5.30897 17.5194 5.25581 17.3918 5.2386L16.3536 5.08932L15.8854 4.1461C15.8229 4.03758 15.7329 3.94743 15.6245 3.88475C15.5161 3.82207 15.3931 3.78906 15.2679 3.78906C15.1427 3.78906 15.0196 3.82207 14.9112 3.88475C14.8028 3.94743 14.7129 4.03758 14.6504 4.1461L14.1822 5.08932L13.1439 5.2386C13.0149 5.2537 12.8928 5.30554 12.7924 5.38798C12.6919 5.47041 12.6172 5.57996 12.5772 5.70361C12.5371 5.82725 12.5335 5.95979 12.5666 6.08546C12.5997 6.21114 12.6682 6.32466 12.7639 6.41253L13.5172 7.15218L13.3339 8.18361C13.3104 8.31148 13.3242 8.44342 13.3735 8.56371C13.4228 8.68401 13.5057 8.78761 13.6122 8.86218C13.7162 8.93821 13.8397 8.98306 13.9683 8.99147C14.0969 8.99988 14.2252 8.97151 14.3382 8.90968L15.2679 8.4211L16.1975 8.90968C16.2955 8.96258 16.4051 8.99055 16.5164 8.9911C16.6175 8.99295 16.7177 8.97219 16.8098 8.93033C16.9018 8.88848 16.9833 8.8266 17.0483 8.7492C17.1134 8.67181 17.1603 8.58086 17.1857 8.483C17.2111 8.38514 17.2142 8.28285 17.195 8.18361L17.0118 7.15218L17.765 6.41253C17.8596 6.32453 17.927 6.21138 17.9595 6.08637C17.9919 5.96136 17.988 5.82969 17.9482 5.70682ZM16.4214 6.78575C16.3819 6.82524 16.3522 6.8734 16.3345 6.9264C16.3168 6.97941 16.3117 7.0358 16.3197 7.0911L16.5164 8.31253L15.4239 7.74253C15.3763 7.71578 15.3225 7.70174 15.2679 7.70174C15.2132 7.70174 15.1595 7.71578 15.1118 7.74253L14.0057 8.29896L14.25 7.0911C14.2538 7.03302 14.2434 6.97489 14.2198 6.92171C14.1961 6.86852 14.1599 6.82186 14.1143 6.78575L13.2389 5.91039L14.4604 5.73396C14.5144 5.72737 14.5658 5.70708 14.6097 5.67501C14.6537 5.64294 14.6887 5.60017 14.7114 5.55075L15.2747 4.44468L15.8243 5.55075C15.8471 5.60017 15.8821 5.64294 15.926 5.67501C15.97 5.70708 16.0214 5.72737 16.0754 5.73396L17.2968 5.93075L16.4214 6.78575Z" fill="black"/>
</svg>
