<svg width="21" height="22" viewBox="0 0 21 22" fill="none" xmlns="http://www.w3.org/2000/svg">
<path d="M20.2032 19.7124L15.8306 15.189C17.2201 13.412 17.8976 11.1513 17.7234 8.87282C17.5492 6.59438 16.5366 4.47192 14.8943 2.94301C13.2521 1.41411 11.1054 0.595314 8.89675 0.655435C6.68814 0.715556 4.58601 1.65001 3.02374 3.26614C1.46148 4.88228 0.558176 7.0569 0.500058 9.34166C0.441941 11.6264 1.23344 13.8472 2.71138 15.5461C4.18932 17.245 6.24104 18.2925 8.44353 18.4727C10.646 18.6529 12.8314 17.952 14.5491 16.5146L18.9218 21.038C19.0927 21.2088 19.3216 21.3033 19.5592 21.3012C19.7969 21.299 20.0242 21.2004 20.1922 21.0266C20.3602 20.8528 20.4555 20.6176 20.4576 20.3718C20.4596 20.126 20.3683 19.8892 20.2032 19.7124ZM2.34375 9.59396C2.34264 8.43892 2.61661 7.30139 3.14144 6.28192C3.66627 5.26244 4.42579 4.39241 5.35288 3.74874C6.27997 3.10506 7.34606 2.70757 8.45693 2.59138C9.5678 2.4752 10.6892 2.6439 11.7221 3.08259C12.755 3.52127 13.6675 4.21643 14.3789 5.1066C15.0904 5.99678 15.5789 7.05456 15.8013 8.18645C16.0237 9.31834 15.9731 10.4895 15.654 11.5963C15.335 12.7032 14.7572 13.7117 13.9718 14.5327C13.961 14.543 13.9474 14.5458 13.9374 14.5561C13.9274 14.5665 13.9238 14.5815 13.9148 14.5918C12.9619 15.5676 11.7511 16.2299 10.435 16.4952C9.11892 16.7604 7.75638 16.6168 6.51906 16.0823C5.28174 15.5479 4.225 14.6466 3.48199 13.492C2.73897 12.3373 2.34293 10.981 2.34375 9.59396Z" fill="black"/>
</svg>
