<svg width="14" height="14" viewBox="0 0 14 14" fill="none" xmlns="http://www.w3.org/2000/svg">
<g clip-path="url(#clip0_111_1898)">
<path d="M10.796 9.41702C10.1252 9.41702 9.52084 9.70669 9.10139 10.1675L5.32871 7.83087C5.42943 7.57303 5.4853 7.29297 5.4853 6.99999C5.4853 6.70689 5.42943 6.42684 5.32871 6.1691L9.10139 3.83239C9.52084 4.29317 10.1252 4.58295 10.796 4.58295C12.0595 4.58295 13.0875 3.555 13.0875 2.29142C13.0875 1.02785 12.0595 0 10.796 0C9.53238 0 8.50442 1.02795 8.50442 2.29153C8.50442 2.58451 8.56039 2.86457 8.66101 3.12241L4.88843 5.45902C4.46899 4.99823 3.86465 4.70846 3.19387 4.70846C1.9303 4.70846 0.902344 5.73651 0.902344 6.99999C0.902344 8.26356 1.9303 9.29151 3.19387 9.29151C3.86465 9.29151 4.46899 9.00184 4.88843 8.54095L8.66101 10.8776C8.56039 11.1354 8.50442 11.4155 8.50442 11.7085C8.50442 12.972 9.53238 14 10.796 14C12.0595 14 13.0875 12.972 13.0875 11.7085C13.0875 10.445 12.0595 9.41702 10.796 9.41702ZM9.34001 2.29153C9.34001 1.48874 9.99316 0.835585 10.796 0.835585C11.5987 0.835585 12.2519 1.48874 12.2519 2.29153C12.2519 3.09432 11.5987 3.74747 10.796 3.74747C9.99316 3.74747 9.34001 3.09432 9.34001 2.29153ZM3.19387 8.45593C2.39097 8.45593 1.73782 7.80278 1.73782 6.99999C1.73782 6.19719 2.39097 5.54404 3.19387 5.54404C3.99667 5.54404 4.64971 6.19719 4.64971 6.99999C4.64971 7.80278 3.99667 8.45593 3.19387 8.45593ZM9.34001 11.7084C9.34001 10.9056 9.99316 10.2525 10.796 10.2525C11.5987 10.2525 12.2519 10.9056 12.2519 11.7084C12.2519 12.5112 11.5987 13.1644 10.796 13.1644C9.99316 13.1644 9.34001 12.5112 9.34001 11.7084Z" fill="black"/>
</g>
<defs>
<clipPath id="clip0_111_1898">
<rect width="14" height="14" fill="white"/>
</clipPath>
</defs>
</svg>
