<svg width="23" height="23" viewBox="0 0 23 23" fill="none" xmlns="http://www.w3.org/2000/svg">
<mask id="path-1-outside-1_8_442" maskUnits="userSpaceOnUse" x="0.901089" y="-0.555511" width="21" height="24" fill="black">
<rect fill="white" x="0.901089" y="-0.555511" width="21" height="24"/>
<path d="M19.9848 22.5508H3.01516C2.7173 22.549 2.43207 22.4303 2.22094 22.2201C2.01531 22.0128 1.90029 21.7323 1.90109 21.4403V5.46609C1.90185 5.39728 1.92855 5.3313 1.97586 5.28132C2.02316 5.23135 2.08759 5.20108 2.15625 5.19656H6.29266V3.85249C6.23516 1.41234 8.98437 -0.309069 11.1406 0.776244C11.6595 0.535656 12.2305 0.429146 12.8013 0.466473C13.372 0.503801 13.9242 0.683773 14.4074 0.989897C14.8905 1.29602 15.2891 1.71851 15.5666 2.21864C15.8442 2.71877 15.9917 3.28055 15.9958 3.85249V5.19656H20.8437C20.9149 5.19749 20.983 5.22618 21.0333 5.27653C21.0837 5.32688 21.1123 5.39489 21.1133 5.46609V21.4403C21.1123 21.5874 21.0824 21.7328 21.0251 21.8683C20.9679 22.0038 20.8844 22.1266 20.7796 22.2298C20.6747 22.333 20.5506 22.4144 20.4142 22.4695C20.2778 22.5246 20.1319 22.5522 19.9848 22.5508ZM17.8717 22.0117C17.922 22.0117 20.2077 22.0405 20.1681 21.983L19.0469 20.8437L17.8717 22.0117ZM2.44016 5.74999V21.4547C2.43989 21.5293 2.45436 21.6033 2.48273 21.6724C2.51109 21.7415 2.5528 21.8043 2.60547 21.8572C2.71528 21.964 2.86197 22.0245 3.01516 22.0261H16.9517V5.74999H13.0992V7.18749C13.2816 7.24925 13.436 7.37378 13.5351 7.53885C13.6342 7.70393 13.6713 7.89883 13.6401 8.08879C13.6088 8.27874 13.511 8.45141 13.3642 8.57598C13.2174 8.70056 13.0312 8.76894 12.8387 8.76894C12.6462 8.76894 12.4599 8.70056 12.3131 8.57598C12.1663 8.45141 12.0686 8.27874 12.0373 8.08879C12.006 7.89883 12.0432 7.70393 12.1422 7.53885C12.2413 7.37378 12.3958 7.24925 12.5781 7.18749V5.74999H6.82812V7.18749C7.00896 7.25111 7.16147 7.37664 7.25866 7.54188C7.35585 7.70712 7.39146 7.9014 7.35919 8.09037C7.32692 8.27934 7.22885 8.4508 7.08233 8.57442C6.93582 8.69803 6.75029 8.76584 6.55859 8.76584C6.36689 8.76584 6.18137 8.69803 6.03485 8.57442C5.88833 8.4508 5.79026 8.27934 5.75799 8.09037C5.72573 7.9014 5.76134 7.70712 5.85853 7.54188C5.95572 7.37664 6.10822 7.25111 6.28906 7.18749V5.74999H2.44016ZM17.4944 5.74999V21.6272L18.7845 20.337V8.47765C18.7845 8.40617 18.8129 8.33761 18.8635 8.28706C18.914 8.23652 18.9826 8.20812 19.0541 8.20812C19.1255 8.20812 19.1941 8.23652 19.2446 8.28706C19.2952 8.33761 19.3236 8.40617 19.3236 8.47765V20.337L20.5383 21.5877C20.5994 21.3505 20.5383 5.95843 20.5598 5.73562L17.4944 5.74999ZM12.5494 7.94218C12.5478 7.97909 12.554 8.01593 12.5676 8.05028C12.5812 8.08463 12.6019 8.11571 12.6284 8.14149C12.6549 8.16728 12.6865 8.18718 12.7212 8.1999C12.7558 8.21262 12.7928 8.21787 12.8297 8.21531C12.8679 8.21972 12.9067 8.21599 12.9434 8.20436C12.9801 8.19274 13.014 8.17349 13.0427 8.14787C13.0714 8.12224 13.0944 8.09083 13.1102 8.05569C13.1259 8.02056 13.1341 7.98249 13.1341 7.94398C13.1341 7.90547 13.1259 7.8674 13.1102 7.83226C13.0944 7.79712 13.0714 7.76571 13.0427 7.74009C13.014 7.71447 12.9801 7.69522 12.9434 7.68359C12.9067 7.67197 12.8679 7.66824 12.8297 7.67265C12.7931 7.67013 12.7565 7.67528 12.722 7.68779C12.6876 7.70029 12.6562 7.71987 12.6298 7.74526C12.6034 7.77065 12.5826 7.80129 12.5687 7.83521C12.5549 7.86913 12.5483 7.90556 12.5494 7.94218ZM6.28187 7.94218C6.28027 7.97909 6.28647 8.01593 6.30009 8.05028C6.31371 8.08463 6.33443 8.11571 6.36089 8.14149C6.38735 8.16728 6.41896 8.18718 6.45365 8.1999C6.48834 8.21262 6.52533 8.21787 6.56219 8.21531C6.60044 8.21972 6.63919 8.21599 6.6759 8.20436C6.71262 8.19274 6.74645 8.17349 6.7752 8.14787C6.80394 8.12224 6.82695 8.09083 6.8427 8.05569C6.85845 8.02056 6.86659 7.98249 6.86659 7.94398C6.86659 7.90547 6.85845 7.8674 6.8427 7.83226C6.82695 7.79712 6.80394 7.76571 6.7752 7.74009C6.74645 7.71447 6.71262 7.69522 6.6759 7.68359C6.63919 7.67197 6.60044 7.66824 6.56219 7.67265C6.52564 7.67013 6.48897 7.67528 6.45454 7.68779C6.42011 7.70029 6.38868 7.71987 6.36227 7.74526C6.33586 7.77065 6.31507 7.80129 6.30122 7.83521C6.28737 7.86913 6.28078 7.90556 6.28187 7.94218ZM13.11 5.19656H15.4531V3.85249C15.4503 3.40359 15.3423 2.96159 15.138 2.5619C14.9336 2.1622 14.6385 1.81592 14.2762 1.55078C13.914 1.28565 13.4947 1.10902 13.0519 1.03506C12.6091 0.96109 12.1552 0.991838 11.7264 1.12484C12.1523 1.44075 12.4983 1.85201 12.7367 2.32567C12.9751 2.79933 13.0992 3.32223 13.0992 3.85249L13.11 5.19656ZM9.74266 5.19656H12.5781V3.85249C12.5745 3.35138 12.4399 2.85992 12.1877 2.42685C11.9356 1.99378 11.5746 1.63414 11.1406 1.38359C10.7113 1.63729 10.3554 1.99829 10.1077 2.43115C9.86013 2.864 9.72936 3.35382 9.72828 3.85249L9.74266 5.19656ZM6.8425 5.19656H9.20359V3.85249C9.20205 3.32309 9.32443 2.80068 9.56094 2.32704C9.79744 1.85341 10.1415 1.44169 10.5656 1.12484C10.1362 0.989787 9.68109 0.957456 9.23689 1.03045C8.7927 1.10344 8.37186 1.27972 8.00824 1.54509C7.64463 1.81046 7.34841 2.1575 7.14344 2.55827C6.93846 2.95904 6.83046 3.40235 6.82812 3.85249L6.8425 5.19656ZM12.3697 19.4745H7.02578C6.99025 19.475 6.95499 19.4684 6.92207 19.455C6.88915 19.4416 6.85924 19.4218 6.83412 19.3967C6.80899 19.3715 6.78915 19.3416 6.77578 19.3087C6.76241 19.2758 6.75577 19.2405 6.75625 19.205V14.6158L6.0375 15.3345C5.98696 15.385 5.91846 15.4134 5.84703 15.4134C5.7756 15.4134 5.7071 15.385 5.65656 15.3345L4.3125 13.9653C4.26202 13.9148 4.23367 13.8463 4.23367 13.7748C4.23367 13.7034 4.26202 13.6349 4.3125 13.5844L6.84969 11.0687C6.87419 11.043 6.90378 11.0227 6.93658 11.0091C6.96938 10.9955 7.00465 10.9889 7.04016 10.9897H8.61422C8.64914 10.9892 8.68382 10.9956 8.71627 11.0085C8.74871 11.0215 8.7783 11.0407 8.80332 11.065C8.82835 11.0894 8.84834 11.1184 8.86214 11.1505C8.87594 11.1826 8.88328 11.2171 8.88375 11.252C8.88375 11.4712 8.97083 11.6815 9.12584 11.8365C9.28085 11.9915 9.49109 12.0786 9.71031 12.0786C9.92953 12.0786 10.1398 11.9915 10.2948 11.8365C10.4498 11.6815 10.5369 11.4712 10.5369 11.252C10.5373 11.2171 10.5447 11.1826 10.5585 11.1505C10.5723 11.1184 10.5923 11.0894 10.6173 11.065C10.6423 11.0407 10.6719 11.0215 10.7044 11.0085C10.7368 10.9956 10.7715 10.9892 10.8064 10.9897H12.3841C12.4195 10.9893 12.4547 10.9961 12.4874 11.0097C12.5201 11.0233 12.5498 11.0434 12.5745 11.0687L15.0902 13.5844C15.1406 13.6349 15.169 13.7034 15.169 13.7748C15.169 13.8463 15.1406 13.9148 15.0902 13.9653L13.7281 15.3273C13.7033 15.3528 13.6737 15.373 13.641 15.3868C13.6083 15.4006 13.5732 15.4077 13.5377 15.4077C13.5022 15.4077 13.467 15.4006 13.4343 15.3868C13.4016 15.373 13.372 15.3528 13.3472 15.3273L12.6284 14.6086V19.205C12.6285 19.2746 12.6016 19.3416 12.5533 19.3919C12.5051 19.4421 12.4393 19.4717 12.3697 19.4745ZM7.29531 18.9355H12.1002V13.9617C12.0958 13.9044 12.1098 13.8473 12.1402 13.7985C12.1706 13.7498 12.2158 13.712 12.2691 13.6908C12.3225 13.6695 12.3812 13.6659 12.4368 13.6803C12.4924 13.6948 12.5419 13.7267 12.5781 13.7712L13.5592 14.7559L14.5403 13.7748L12.2583 11.5H11.0328C10.7597 12.9375 8.63219 12.9375 8.35906 11.5H7.13719L4.86953 13.7641L5.85062 14.7451L6.82812 13.7712C6.86629 13.7341 6.91448 13.7089 6.96677 13.6988C7.01906 13.6887 7.07317 13.6941 7.12244 13.7143C7.1717 13.7346 7.21398 13.7688 7.24405 13.8127C7.27413 13.8567 7.2907 13.9085 7.29172 13.9617L7.29531 18.9355Z"/>
</mask>
<path d="M19.9848 22.5508H3.01516C2.7173 22.549 2.43207 22.4303 2.22094 22.2201C2.01531 22.0128 1.90029 21.7323 1.90109 21.4403V5.46609C1.90185 5.39728 1.92855 5.3313 1.97586 5.28132C2.02316 5.23135 2.08759 5.20108 2.15625 5.19656H6.29266V3.85249C6.23516 1.41234 8.98437 -0.309069 11.1406 0.776244C11.6595 0.535656 12.2305 0.429146 12.8013 0.466473C13.372 0.503801 13.9242 0.683773 14.4074 0.989897C14.8905 1.29602 15.2891 1.71851 15.5666 2.21864C15.8442 2.71877 15.9917 3.28055 15.9958 3.85249V5.19656H20.8437C20.9149 5.19749 20.983 5.22618 21.0333 5.27653C21.0837 5.32688 21.1123 5.39489 21.1133 5.46609V21.4403C21.1123 21.5874 21.0824 21.7328 21.0251 21.8683C20.9679 22.0038 20.8844 22.1266 20.7796 22.2298C20.6747 22.333 20.5506 22.4144 20.4142 22.4695C20.2778 22.5246 20.1319 22.5522 19.9848 22.5508ZM17.8717 22.0117C17.922 22.0117 20.2077 22.0405 20.1681 21.983L19.0469 20.8437L17.8717 22.0117ZM2.44016 5.74999V21.4547C2.43989 21.5293 2.45436 21.6033 2.48273 21.6724C2.51109 21.7415 2.5528 21.8043 2.60547 21.8572C2.71528 21.964 2.86197 22.0245 3.01516 22.0261H16.9517V5.74999H13.0992V7.18749C13.2816 7.24925 13.436 7.37378 13.5351 7.53885C13.6342 7.70393 13.6713 7.89883 13.6401 8.08879C13.6088 8.27874 13.511 8.45141 13.3642 8.57598C13.2174 8.70056 13.0312 8.76894 12.8387 8.76894C12.6462 8.76894 12.4599 8.70056 12.3131 8.57598C12.1663 8.45141 12.0686 8.27874 12.0373 8.08879C12.006 7.89883 12.0432 7.70393 12.1422 7.53885C12.2413 7.37378 12.3958 7.24925 12.5781 7.18749V5.74999H6.82812V7.18749C7.00896 7.25111 7.16147 7.37664 7.25866 7.54188C7.35585 7.70712 7.39146 7.9014 7.35919 8.09037C7.32692 8.27934 7.22885 8.4508 7.08233 8.57442C6.93582 8.69803 6.75029 8.76584 6.55859 8.76584C6.36689 8.76584 6.18137 8.69803 6.03485 8.57442C5.88833 8.4508 5.79026 8.27934 5.75799 8.09037C5.72573 7.9014 5.76134 7.70712 5.85853 7.54188C5.95572 7.37664 6.10822 7.25111 6.28906 7.18749V5.74999H2.44016ZM17.4944 5.74999V21.6272L18.7845 20.337V8.47765C18.7845 8.40617 18.8129 8.33761 18.8635 8.28706C18.914 8.23652 18.9826 8.20812 19.0541 8.20812C19.1255 8.20812 19.1941 8.23652 19.2446 8.28706C19.2952 8.33761 19.3236 8.40617 19.3236 8.47765V20.337L20.5383 21.5877C20.5994 21.3505 20.5383 5.95843 20.5598 5.73562L17.4944 5.74999ZM12.5494 7.94218C12.5478 7.97909 12.554 8.01593 12.5676 8.05028C12.5812 8.08463 12.6019 8.11571 12.6284 8.14149C12.6549 8.16728 12.6865 8.18718 12.7212 8.1999C12.7558 8.21262 12.7928 8.21787 12.8297 8.21531C12.8679 8.21972 12.9067 8.21599 12.9434 8.20436C12.9801 8.19274 13.014 8.17349 13.0427 8.14787C13.0714 8.12224 13.0944 8.09083 13.1102 8.05569C13.1259 8.02056 13.1341 7.98249 13.1341 7.94398C13.1341 7.90547 13.1259 7.8674 13.1102 7.83226C13.0944 7.79712 13.0714 7.76571 13.0427 7.74009C13.014 7.71447 12.9801 7.69522 12.9434 7.68359C12.9067 7.67197 12.8679 7.66824 12.8297 7.67265C12.7931 7.67013 12.7565 7.67528 12.722 7.68779C12.6876 7.70029 12.6562 7.71987 12.6298 7.74526C12.6034 7.77065 12.5826 7.80129 12.5687 7.83521C12.5549 7.86913 12.5483 7.90556 12.5494 7.94218ZM6.28187 7.94218C6.28027 7.97909 6.28647 8.01593 6.30009 8.05028C6.31371 8.08463 6.33443 8.11571 6.36089 8.14149C6.38735 8.16728 6.41896 8.18718 6.45365 8.1999C6.48834 8.21262 6.52533 8.21787 6.56219 8.21531C6.60044 8.21972 6.63919 8.21599 6.6759 8.20436C6.71262 8.19274 6.74645 8.17349 6.7752 8.14787C6.80394 8.12224 6.82695 8.09083 6.8427 8.05569C6.85845 8.02056 6.86659 7.98249 6.86659 7.94398C6.86659 7.90547 6.85845 7.8674 6.8427 7.83226C6.82695 7.79712 6.80394 7.76571 6.7752 7.74009C6.74645 7.71447 6.71262 7.69522 6.6759 7.68359C6.63919 7.67197 6.60044 7.66824 6.56219 7.67265C6.52564 7.67013 6.48897 7.67528 6.45454 7.68779C6.42011 7.70029 6.38868 7.71987 6.36227 7.74526C6.33586 7.77065 6.31507 7.80129 6.30122 7.83521C6.28737 7.86913 6.28078 7.90556 6.28187 7.94218ZM13.11 5.19656H15.4531V3.85249C15.4503 3.40359 15.3423 2.96159 15.138 2.5619C14.9336 2.1622 14.6385 1.81592 14.2762 1.55078C13.914 1.28565 13.4947 1.10902 13.0519 1.03506C12.6091 0.96109 12.1552 0.991838 11.7264 1.12484C12.1523 1.44075 12.4983 1.85201 12.7367 2.32567C12.9751 2.79933 13.0992 3.32223 13.0992 3.85249L13.11 5.19656ZM9.74266 5.19656H12.5781V3.85249C12.5745 3.35138 12.4399 2.85992 12.1877 2.42685C11.9356 1.99378 11.5746 1.63414 11.1406 1.38359C10.7113 1.63729 10.3554 1.99829 10.1077 2.43115C9.86013 2.864 9.72936 3.35382 9.72828 3.85249L9.74266 5.19656ZM6.8425 5.19656H9.20359V3.85249C9.20205 3.32309 9.32443 2.80068 9.56094 2.32704C9.79744 1.85341 10.1415 1.44169 10.5656 1.12484C10.1362 0.989787 9.68109 0.957456 9.23689 1.03045C8.7927 1.10344 8.37186 1.27972 8.00824 1.54509C7.64463 1.81046 7.34841 2.1575 7.14344 2.55827C6.93846 2.95904 6.83046 3.40235 6.82812 3.85249L6.8425 5.19656ZM12.3697 19.4745H7.02578C6.99025 19.475 6.95499 19.4684 6.92207 19.455C6.88915 19.4416 6.85924 19.4218 6.83412 19.3967C6.80899 19.3715 6.78915 19.3416 6.77578 19.3087C6.76241 19.2758 6.75577 19.2405 6.75625 19.205V14.6158L6.0375 15.3345C5.98696 15.385 5.91846 15.4134 5.84703 15.4134C5.7756 15.4134 5.7071 15.385 5.65656 15.3345L4.3125 13.9653C4.26202 13.9148 4.23367 13.8463 4.23367 13.7748C4.23367 13.7034 4.26202 13.6349 4.3125 13.5844L6.84969 11.0687C6.87419 11.043 6.90378 11.0227 6.93658 11.0091C6.96938 10.9955 7.00465 10.9889 7.04016 10.9897H8.61422C8.64914 10.9892 8.68382 10.9956 8.71627 11.0085C8.74871 11.0215 8.7783 11.0407 8.80332 11.065C8.82835 11.0894 8.84834 11.1184 8.86214 11.1505C8.87594 11.1826 8.88328 11.2171 8.88375 11.252C8.88375 11.4712 8.97083 11.6815 9.12584 11.8365C9.28085 11.9915 9.49109 12.0786 9.71031 12.0786C9.92953 12.0786 10.1398 11.9915 10.2948 11.8365C10.4498 11.6815 10.5369 11.4712 10.5369 11.252C10.5373 11.2171 10.5447 11.1826 10.5585 11.1505C10.5723 11.1184 10.5923 11.0894 10.6173 11.065C10.6423 11.0407 10.6719 11.0215 10.7044 11.0085C10.7368 10.9956 10.7715 10.9892 10.8064 10.9897H12.3841C12.4195 10.9893 12.4547 10.9961 12.4874 11.0097C12.5201 11.0233 12.5498 11.0434 12.5745 11.0687L15.0902 13.5844C15.1406 13.6349 15.169 13.7034 15.169 13.7748C15.169 13.8463 15.1406 13.9148 15.0902 13.9653L13.7281 15.3273C13.7033 15.3528 13.6737 15.373 13.641 15.3868C13.6083 15.4006 13.5732 15.4077 13.5377 15.4077C13.5022 15.4077 13.467 15.4006 13.4343 15.3868C13.4016 15.373 13.372 15.3528 13.3472 15.3273L12.6284 14.6086V19.205C12.6285 19.2746 12.6016 19.3416 12.5533 19.3919C12.5051 19.4421 12.4393 19.4717 12.3697 19.4745ZM7.29531 18.9355H12.1002V13.9617C12.0958 13.9044 12.1098 13.8473 12.1402 13.7985C12.1706 13.7498 12.2158 13.712 12.2691 13.6908C12.3225 13.6695 12.3812 13.6659 12.4368 13.6803C12.4924 13.6948 12.5419 13.7267 12.5781 13.7712L13.5592 14.7559L14.5403 13.7748L12.2583 11.5H11.0328C10.7597 12.9375 8.63219 12.9375 8.35906 11.5H7.13719L4.86953 13.7641L5.85062 14.7451L6.82812 13.7712C6.86629 13.7341 6.91448 13.7089 6.96677 13.6988C7.01906 13.6887 7.07317 13.6941 7.12244 13.7143C7.1717 13.7346 7.21398 13.7688 7.24405 13.8127C7.27413 13.8567 7.2907 13.9085 7.29172 13.9617L7.29531 18.9355Z" fill="white"/>
<path d="M19.9848 22.5508H3.01516C2.7173 22.549 2.43207 22.4303 2.22094 22.2201C2.01531 22.0128 1.90029 21.7323 1.90109 21.4403V5.46609C1.90185 5.39728 1.92855 5.3313 1.97586 5.28132C2.02316 5.23135 2.08759 5.20108 2.15625 5.19656H6.29266V3.85249C6.23516 1.41234 8.98437 -0.309069 11.1406 0.776244C11.6595 0.535656 12.2305 0.429146 12.8013 0.466473C13.372 0.503801 13.9242 0.683773 14.4074 0.989897C14.8905 1.29602 15.2891 1.71851 15.5666 2.21864C15.8442 2.71877 15.9917 3.28055 15.9958 3.85249V5.19656H20.8437C20.9149 5.19749 20.983 5.22618 21.0333 5.27653C21.0837 5.32688 21.1123 5.39489 21.1133 5.46609V21.4403C21.1123 21.5874 21.0824 21.7328 21.0251 21.8683C20.9679 22.0038 20.8844 22.1266 20.7796 22.2298C20.6747 22.333 20.5506 22.4144 20.4142 22.4695C20.2778 22.5246 20.1319 22.5522 19.9848 22.5508ZM17.8717 22.0117C17.922 22.0117 20.2077 22.0405 20.1681 21.983L19.0469 20.8437L17.8717 22.0117ZM2.44016 5.74999V21.4547C2.43989 21.5293 2.45436 21.6033 2.48273 21.6724C2.51109 21.7415 2.5528 21.8043 2.60547 21.8572C2.71528 21.964 2.86197 22.0245 3.01516 22.0261H16.9517V5.74999H13.0992V7.18749C13.2816 7.24925 13.436 7.37378 13.5351 7.53885C13.6342 7.70393 13.6713 7.89883 13.6401 8.08879C13.6088 8.27874 13.511 8.45141 13.3642 8.57598C13.2174 8.70056 13.0312 8.76894 12.8387 8.76894C12.6462 8.76894 12.4599 8.70056 12.3131 8.57598C12.1663 8.45141 12.0686 8.27874 12.0373 8.08879C12.006 7.89883 12.0432 7.70393 12.1422 7.53885C12.2413 7.37378 12.3958 7.24925 12.5781 7.18749V5.74999H6.82812V7.18749C7.00896 7.25111 7.16147 7.37664 7.25866 7.54188C7.35585 7.70712 7.39146 7.9014 7.35919 8.09037C7.32692 8.27934 7.22885 8.4508 7.08233 8.57442C6.93582 8.69803 6.75029 8.76584 6.55859 8.76584C6.36689 8.76584 6.18137 8.69803 6.03485 8.57442C5.88833 8.4508 5.79026 8.27934 5.75799 8.09037C5.72573 7.9014 5.76134 7.70712 5.85853 7.54188C5.95572 7.37664 6.10822 7.25111 6.28906 7.18749V5.74999H2.44016ZM17.4944 5.74999V21.6272L18.7845 20.337V8.47765C18.7845 8.40617 18.8129 8.33761 18.8635 8.28706C18.914 8.23652 18.9826 8.20812 19.0541 8.20812C19.1255 8.20812 19.1941 8.23652 19.2446 8.28706C19.2952 8.33761 19.3236 8.40617 19.3236 8.47765V20.337L20.5383 21.5877C20.5994 21.3505 20.5383 5.95843 20.5598 5.73562L17.4944 5.74999ZM12.5494 7.94218C12.5478 7.97909 12.554 8.01593 12.5676 8.05028C12.5812 8.08463 12.6019 8.11571 12.6284 8.14149C12.6549 8.16728 12.6865 8.18718 12.7212 8.1999C12.7558 8.21262 12.7928 8.21787 12.8297 8.21531C12.8679 8.21972 12.9067 8.21599 12.9434 8.20436C12.9801 8.19274 13.014 8.17349 13.0427 8.14787C13.0714 8.12224 13.0944 8.09083 13.1102 8.05569C13.1259 8.02056 13.1341 7.98249 13.1341 7.94398C13.1341 7.90547 13.1259 7.8674 13.1102 7.83226C13.0944 7.79712 13.0714 7.76571 13.0427 7.74009C13.014 7.71447 12.9801 7.69522 12.9434 7.68359C12.9067 7.67197 12.8679 7.66824 12.8297 7.67265C12.7931 7.67013 12.7565 7.67528 12.722 7.68779C12.6876 7.70029 12.6562 7.71987 12.6298 7.74526C12.6034 7.77065 12.5826 7.80129 12.5687 7.83521C12.5549 7.86913 12.5483 7.90556 12.5494 7.94218ZM6.28187 7.94218C6.28027 7.97909 6.28647 8.01593 6.30009 8.05028C6.31371 8.08463 6.33443 8.11571 6.36089 8.14149C6.38735 8.16728 6.41896 8.18718 6.45365 8.1999C6.48834 8.21262 6.52533 8.21787 6.56219 8.21531C6.60044 8.21972 6.63919 8.21599 6.6759 8.20436C6.71262 8.19274 6.74645 8.17349 6.7752 8.14787C6.80394 8.12224 6.82695 8.09083 6.8427 8.05569C6.85845 8.02056 6.86659 7.98249 6.86659 7.94398C6.86659 7.90547 6.85845 7.8674 6.8427 7.83226C6.82695 7.79712 6.80394 7.76571 6.7752 7.74009C6.74645 7.71447 6.71262 7.69522 6.6759 7.68359C6.63919 7.67197 6.60044 7.66824 6.56219 7.67265C6.52564 7.67013 6.48897 7.67528 6.45454 7.68779C6.42011 7.70029 6.38868 7.71987 6.36227 7.74526C6.33586 7.77065 6.31507 7.80129 6.30122 7.83521C6.28737 7.86913 6.28078 7.90556 6.28187 7.94218ZM13.11 5.19656H15.4531V3.85249C15.4503 3.40359 15.3423 2.96159 15.138 2.5619C14.9336 2.1622 14.6385 1.81592 14.2762 1.55078C13.914 1.28565 13.4947 1.10902 13.0519 1.03506C12.6091 0.96109 12.1552 0.991838 11.7264 1.12484C12.1523 1.44075 12.4983 1.85201 12.7367 2.32567C12.9751 2.79933 13.0992 3.32223 13.0992 3.85249L13.11 5.19656ZM9.74266 5.19656H12.5781V3.85249C12.5745 3.35138 12.4399 2.85992 12.1877 2.42685C11.9356 1.99378 11.5746 1.63414 11.1406 1.38359C10.7113 1.63729 10.3554 1.99829 10.1077 2.43115C9.86013 2.864 9.72936 3.35382 9.72828 3.85249L9.74266 5.19656ZM6.8425 5.19656H9.20359V3.85249C9.20205 3.32309 9.32443 2.80068 9.56094 2.32704C9.79744 1.85341 10.1415 1.44169 10.5656 1.12484C10.1362 0.989787 9.68109 0.957456 9.23689 1.03045C8.7927 1.10344 8.37186 1.27972 8.00824 1.54509C7.64463 1.81046 7.34841 2.1575 7.14344 2.55827C6.93846 2.95904 6.83046 3.40235 6.82812 3.85249L6.8425 5.19656ZM12.3697 19.4745H7.02578C6.99025 19.475 6.95499 19.4684 6.92207 19.455C6.88915 19.4416 6.85924 19.4218 6.83412 19.3967C6.80899 19.3715 6.78915 19.3416 6.77578 19.3087C6.76241 19.2758 6.75577 19.2405 6.75625 19.205V14.6158L6.0375 15.3345C5.98696 15.385 5.91846 15.4134 5.84703 15.4134C5.7756 15.4134 5.7071 15.385 5.65656 15.3345L4.3125 13.9653C4.26202 13.9148 4.23367 13.8463 4.23367 13.7748C4.23367 13.7034 4.26202 13.6349 4.3125 13.5844L6.84969 11.0687C6.87419 11.043 6.90378 11.0227 6.93658 11.0091C6.96938 10.9955 7.00465 10.9889 7.04016 10.9897H8.61422C8.64914 10.9892 8.68382 10.9956 8.71627 11.0085C8.74871 11.0215 8.7783 11.0407 8.80332 11.065C8.82835 11.0894 8.84834 11.1184 8.86214 11.1505C8.87594 11.1826 8.88328 11.2171 8.88375 11.252C8.88375 11.4712 8.97083 11.6815 9.12584 11.8365C9.28085 11.9915 9.49109 12.0786 9.71031 12.0786C9.92953 12.0786 10.1398 11.9915 10.2948 11.8365C10.4498 11.6815 10.5369 11.4712 10.5369 11.252C10.5373 11.2171 10.5447 11.1826 10.5585 11.1505C10.5723 11.1184 10.5923 11.0894 10.6173 11.065C10.6423 11.0407 10.6719 11.0215 10.7044 11.0085C10.7368 10.9956 10.7715 10.9892 10.8064 10.9897H12.3841C12.4195 10.9893 12.4547 10.9961 12.4874 11.0097C12.5201 11.0233 12.5498 11.0434 12.5745 11.0687L15.0902 13.5844C15.1406 13.6349 15.169 13.7034 15.169 13.7748C15.169 13.8463 15.1406 13.9148 15.0902 13.9653L13.7281 15.3273C13.7033 15.3528 13.6737 15.373 13.641 15.3868C13.6083 15.4006 13.5732 15.4077 13.5377 15.4077C13.5022 15.4077 13.467 15.4006 13.4343 15.3868C13.4016 15.373 13.372 15.3528 13.3472 15.3273L12.6284 14.6086V19.205C12.6285 19.2746 12.6016 19.3416 12.5533 19.3919C12.5051 19.4421 12.4393 19.4717 12.3697 19.4745ZM7.29531 18.9355H12.1002V13.9617C12.0958 13.9044 12.1098 13.8473 12.1402 13.7985C12.1706 13.7498 12.2158 13.712 12.2691 13.6908C12.3225 13.6695 12.3812 13.6659 12.4368 13.6803C12.4924 13.6948 12.5419 13.7267 12.5781 13.7712L13.5592 14.7559L14.5403 13.7748L12.2583 11.5H11.0328C10.7597 12.9375 8.63219 12.9375 8.35906 11.5H7.13719L4.86953 13.7641L5.85062 14.7451L6.82812 13.7712C6.86629 13.7341 6.91448 13.7089 6.96677 13.6988C7.01906 13.6887 7.07317 13.6941 7.12244 13.7143C7.1717 13.7346 7.21398 13.7688 7.24405 13.8127C7.27413 13.8567 7.2907 13.9085 7.29172 13.9617L7.29531 18.9355Z" stroke="white" stroke-width="0.8" mask="url(#path-1-outside-1_8_442)"/>
</svg>
